<?xml version="1.0" encoding="UTF-8" standalone="no"?>
<!-- Created with Inkscape (http://www.inkscape.org/) -->

<svg
   width="63.720001"
   height="83.445999"
   viewBox="0 0 16.859251 22.078418"
   version="1.1"
   id="svg1"
   xml:space="preserve"
   inkscape:version="1.3.2 (091e20ef0f, 2023-11-25, custom)"
   sodipodi:docname="poweredby.svg"
   xmlns:inkscape="http://www.inkscape.org/namespaces/inkscape"
   xmlns:sodipodi="http://sodipodi.sourceforge.net/DTD/sodipodi-0.dtd"
   xmlns:xlink="http://www.w3.org/1999/xlink"
   xmlns="http://www.w3.org/2000/svg"
   xmlns:svg="http://www.w3.org/2000/svg"><sodipodi:namedview
     id="namedview1"
     pagecolor="#ffffff"
     bordercolor="#000000"
     borderopacity="0.25"
     inkscape:showpageshadow="2"
     inkscape:pageopacity="0.0"
     inkscape:pagecheckerboard="0"
     inkscape:deskcolor="#d1d1d1"
     inkscape:document-units="mm"
     inkscape:zoom="4.580595"
     inkscape:cx="19.757259"
     inkscape:cy="38.641268"
     inkscape:window-width="1920"
     inkscape:window-height="1014"
     inkscape:window-x="0"
     inkscape:window-y="0"
     inkscape:window-maximized="1"
     inkscape:current-layer="text1" /><defs
     id="defs1"><linearGradient
       id="linear-gradient-34"
       x1="155.32001"
       y1="560.59003"
       x2="155.32001"
       y2="560.42999"
       xlink:href="#linear-gradient-13" /><linearGradient
       id="linear-gradient-13"
       x1="155.32001"
       y1="562.58002"
       x2="155.32001"
       y2="562.41998"
       gradientTransform="matrix(45.2,0,0,-212.17,-6849.43,119709.31)"
       gradientUnits="userSpaceOnUse"><stop
         offset="0"
         stop-color="#16b0ed"
         stop-opacity="0.8"
         id="stop76" /><stop
         offset="1"
         stop-color="#0f59b2"
         stop-opacity="0.84"
         id="stop77" /></linearGradient><linearGradient
       id="linear-gradient-35"
       x1="158.05"
       y1="560.59003"
       x2="158.05"
       y2="560.42999"
       xlink:href="#linear-gradient-14" /><linearGradient
       id="linear-gradient-14"
       x1="158.05"
       y1="562.58002"
       x2="158.05"
       y2="562.41998"
       gradientTransform="matrix(-46.13,0,0,-212.15,7480.38,119695.47)"
       gradientUnits="userSpaceOnUse"><stop
         offset="0"
         stop-color="#7db643"
         id="stop78" /><stop
         offset="1"
         stop-color="#367533"
         id="stop79" /></linearGradient><linearGradient
       id="linear-gradient-36"
       x1="155.08"
       y1="560.59003"
       x2="155.08"
       y2="560.42999"
       xlink:href="#linear-gradient-15" /><linearGradient
       id="linear-gradient-15"
       x1="155.08"
       y1="562.58002"
       x2="155.08"
       y2="562.41998"
       gradientTransform="matrix(150.45,0,0,-212.19,-23151.41,119720.44)"
       gradientUnits="userSpaceOnUse"><stop
         offset="0"
         stop-color="#88c649"
         stop-opacity="0.8"
         id="stop80" /><stop
         offset="1"
         stop-color="#439240"
         stop-opacity="0.84"
         id="stop81" /></linearGradient></defs><g
     inkscape:label="图层 1"
     inkscape:groupmode="layer"
     id="layer1"><g
       id="g2"
       inkscape:label="poweredby"><path
         class="cls-162"
         d="m 5.3789795,14.053046 h 0.103187 c 0.100542,0 0.195792,0 0.195792,0.11113 0,0.11112 -0.108479,0.11906 -0.227542,0.11906 h -0.07144 v -0.2249 m -0.137584,-0.127 v 0.79375 h 0.137584 v -0.3175 h 0.0635 c 0.169333,0 0.375708,-0.0238 0.375708,-0.2487 0,-0.2249 -0.219604,-0.23284 -0.322792,-0.23284 h -0.264583"
         id="path1561"
         style="fill:#444444;stroke-width:0.264583" /><path
         class="cls-162"
         d="m 6.1833125,14.725086 a 0.26458333,0.26458333 0 0 0 0.283104,-0.28575 0.28045833,0.28045833 0 1 0 -0.283104,0.28575 m 0,-0.46302 c 0.07673,0 0.140229,0.0609 0.140229,0.17992 0,0.11906 -0.06085,0.17462 -0.140229,0.17462 -0.07937,0 -0.140229,-0.0609 -0.140229,-0.17462 0,-0.11377 0.0635,-0.17992 0.140229,-0.17992"
         id="path1562"
         style="fill:#444444;stroke-width:0.264583" /><polyline
         class="cls-162"
         points="172.68 807.88 172.26 809.4 171.79 807.88 171.24 807.88 172.03 809.94 172.52 809.94 172.94 808.47 173.36 809.94 173.85 809.94 174.64 807.88 174.09 807.88 173.62 809.4 173.2 807.88 172.68 807.88"
         id="polyline1562"
         style="fill:#444444"
         transform="matrix(0.26458333,0,0,0.26458333,-38.774687,-199.58478)" /><path
         class="cls-162"
         d="m 7.7549375,14.262066 c 0.06615,0 0.116417,0.0476 0.116417,0.13494 h -0.232834 a 0.127,0.127 0 0 1 0.116417,-0.13494 m 0,-0.10583 a 0.26458333,0.26458333 0 0 0 -0.264583,0.28575 0.26458333,0.26458333 0 0 0 0.298979,0.2831 0.57414583,0.57414583 0 0 0 0.1905,-0.0318 v -0.0952 a 0.89164582,0.89164582 0 0 1 -0.171979,0.0212 c -0.100542,0 -0.164042,-0.0265 -0.17198,-0.127 h 0.370417 v -0.0503 c 0,-0.16933 -0.08202,-0.28575 -0.264583,-0.28575"
         id="path1563"
         style="fill:#444444;stroke-width:0.264583" /><path
         class="cls-162"
         d="m 8.2761665,14.195926 -0.01852,-0.037 h -0.09525 v 0.5662 h 0.134938 v -0.42068 a 0.48947916,0.48947916 0 0 1 0.1269999,-0.0212 0.24870833,0.24870833 0 0 1 0.103187,0.0212 v 0 -0.11377 a 0.21166666,0.21166666 0 0 0 -0.0979,-0.0212 0.31220833,0.31220833 0 0 0 -0.1613949,0.0476"
         id="path1564"
         style="fill:#444444;stroke-width:0.264583" /><path
         class="cls-162"
         d="m 8.8476664,14.262066 c 0.06615,0 0.116417,0.0476 0.116417,0.13494 h -0.232834 a 0.127,0.127 0 0 1 0.116417,-0.13494 m 0,-0.10583 a 0.26458333,0.26458333 0 0 0 -0.264583,0.28575 0.26458333,0.26458333 0 0 0 0.291041,0.2831 0.57414583,0.57414583 0 0 0 0.1905,-0.0318 v -0.0952 a 0.89429166,0.89429166 0 0 1 -0.174625,0.0212 c -0.0979,0 -0.161395,-0.0265 -0.169333,-0.127 h 0.391583 v -0.0503 c 0,-0.16933 -0.08467,-0.28575 -0.264583,-0.28575"
         id="path1565"
         style="fill:#444444;stroke-width:0.264583" /><path
         class="cls-162"
         d="m 9.5276454,14.262066 a 0.28839583,0.28839583 0 0 1 0.0979,0.0185 v 0.31221 a 0.19314583,0.19314583 0 0 1 -0.09525,0.0265 0.14816666,0.14816666 0 0 1 -0.153458,-0.15875 c 0,-0.14023 0.06879,-0.18521 0.15875,-0.18521 m 0.0979,-0.33602 v 0.26458 a 0.333375,0.333375 0 0 0 -0.129646,-0.0238 0.26458333,0.26458333 0 0 0 -0.264584,0.28311 0.26458333,0.26458333 0 0 0 0.269875,0.26193 0.3254375,0.3254375 0 0 0 0.145521,-0.0423 v 0.0291 h 0.0979 v -0.79375 h -0.137583"
         id="path1566"
         style="fill:#444444;stroke-width:0.264583" /><path
         class="cls-162"
         d="m 10.435166,14.262066 c 0.0926,0 0.161396,0.045 0.161396,0.18521 a 0.1508125,0.1508125 0 0 1 -0.164042,0.17198 0.20108333,0.20108333 0 0 1 -0.09525,-0.0265 v -0.31221 a 0.28839583,0.28839583 0 0 1 0.0979,-0.0185 m -0.232833,-0.33602 v 0.79375 h 0.0979 v -0.0291 a 0.3254375,0.3254375 0 0 0 0.14552,0.0423 0.28575,0.28575 0 0 0 0,-0.56885 0.333375,0.333375 0 0 0 -0.129645,0.0238 v -0.26458 h -0.134938"
         id="path1567"
         style="fill:#444444;stroke-width:0.264583" /><polyline
         class="cls-162"
         points="187.3 807.88 188.23 809.96 187.76 811.05 188.34 811.05 189.6 807.88 189.06 807.88 188.5 809.46 187.89 807.88 187.3 807.88"
         id="polyline1567"
         style="fill:#444444"
         transform="matrix(0.26458333,0,0,0.26458333,-38.774687,-199.58478)" /></g><g
       id="g3"
       inkscape:label="layout"><path
         class="cls-162"
         d="m 0,15.254256 v 5.74146 a 1.1165417,1.1165417 0 0 0 1.153583,1.08214 h 14.552084 a 1.1165417,1.1165417 0 0 0 1.153583,-1.08214 v -5.74146 z"
         id="path1568"
         style="fill:#444444;stroke-width:0.264583" /><path
         class="cls-28"
         d="M 14.626166,3.5173863 V 18.752197 c 0,1.870623 -12.3930823,1.870623 -12.3930823,0 V 3.5120943 c 0,-2.1193274 12.3930823,-2.1193274 12.3930823,0.0053 z"
         id="path1569"
         style="fill:none;stroke:#aaaaaa;stroke-width:0.100542px;stroke-linecap:round;stroke-linejoin:bevel" /></g><g
       id="g1"
       transform="matrix(0.2563785,0,0,0.2563785,3.8468595,3.0995465)"
       style="stroke:#000000;stroke-opacity:1;stroke-width:0.39004831;stroke-dasharray:none"
       inkscape:label="eweLogo"><path
         class="path"
         fill="#ffac33"
         d="m 11.983,3.562 c 4.543,-0.262 7.824,1.597 8.089,6.826 0.215,4.19 -5.184,6.79 -8.046,6.879 -2.462,0.077 -1.353,-1.852 0.61,-2.334 1.576,-0.387 4.124,-2.413 3.602,-4.44 C 15.641,8.173 11.923,7.809 9.887,10.785 9.089,11.952 6.333,11.658 5.791,10.351 4.833,8.042 7.002,3.849 11.983,3.562 Z"
         id="path1"
         style="stroke:#000000;stroke-opacity:1;stroke-width:0.39004831;stroke-dasharray:none" /><path
         class="path"
         fill="#e1e8ed"
         d="m 35.75,21.384 c 0,-7.783 -4.495,-11.407 -14.519,-11.407 -1.087,0 -2.083,0.051 -3.018,0.137 C 16.853,7.691 13.368,7.286 10,7.286 c -4.304,0 -10,6.145 -10,10.839 0,4.608 3.606,4.866 7.811,4.874 0.233,3.245 1.226,5.647 3.249,7.26 0.277,1.15 1.534,5.741 3.94,5.741 1.353,0 2.099,-1.695 2.51,-3.417 1.128,0.136 2.359,0.209 3.722,0.209 1.733,0 3.288,-0.116 4.695,-0.335 C 26.017,34.114 26.458,36 28,36 c 2.317,0 4.273,-4.956 4.834,-6.521 1.969,-1.87 2.916,-4.545 2.916,-8.095 z"
         id="path2"
         style="stroke:#000000;stroke-opacity:1;stroke-width:0.39004831;stroke-dasharray:none" /><circle
         class="path"
         fill="#292f33"
         cx="4.5"
         cy="15.786"
         r="1.5"
         id="circle2"
         style="stroke:#000000;stroke-opacity:1;stroke-width:0.39004831;stroke-dasharray:none" /><path
         class="path"
         fill="#ffcc4d"
         d="m 17.562,4.339 c 4.312,1.455 5.74,4.148 4.034,9.099 -1.367,3.967 -7.345,4.361 -10.034,3.375 C 9.25,15.964 11,14.589 13,14.875 c 1.606,0.23 4.727,-0.698 5,-2.773 C 18.312,9.727 15,8 12,10 10.823,10.785 6.226,10.43 6.5,9.042 7.138,5.816 12.835,2.744 17.562,4.339 Z"
         id="path3"
         style="stroke:#000000;stroke-opacity:1;stroke-width:0.39004831;stroke-dasharray:none" /><path
         fill="#dd2e44"
         class="nopath"
         transform="matrix(0.3,0,0,0.3,9,3.9)"
         d="m 19.281,6.392 c 0,0.405 -2.37,0.405 -2.37,0 C 16.911,5.492 2,-3.507 2,3.692 v 13.499 c 0,2.487 3.476,1.947 7.193,0.361 -1.429,3.525 -4.498,9.68 -7.05,13.934 -0.229,0.382 -0.178,0.868 0.124,1.194 0.303,0.325 0.783,0.415 1.181,0.215 l 5.258,-2.629 c 0.441,0.726 0.931,1.868 1.376,2.906 0.333,0.778 0.678,1.582 1.024,2.275 0.144,0.287 0.417,0.488 0.734,0.54 C 11.893,35.996 11.947,36 12,36 c 0.263,0 0.518,-0.104 0.707,-0.293 1.42,-1.419 3.429,-8.395 4.793,-14.093 1.364,5.698 3.373,12.674 4.793,14.093 C 22.481,35.896 22.737,36 23,36 c 0.053,0 0.106,-0.004 0.16,-0.013 0.317,-0.052 0.591,-0.253 0.734,-0.54 0.347,-0.693 0.691,-1.497 1.024,-2.275 0.445,-1.038 0.935,-2.181 1.376,-2.906 l 5.258,2.629 c 0.398,0.198 0.879,0.111 1.181,-0.215 0.303,-0.326 0.352,-0.812 0.124,-1.194 C 30.122,26.928 26.796,20.19 25.529,16.843 29.652,18.933 34,20.02 34,17.19 V 3.691 C 34,-3.507 19.281,5.492 19.281,6.392 Z"
         id="path4"
         style="stroke:#000000;stroke-opacity:1;stroke-width:1.30016104;stroke-dasharray:none" /><path
         fill="#a0041e"
         class="nopath"
         transform="matrix(0.3,0,0,0.3,9,3.9)"
         d="m 2.114,17.869 c 1.177,3.199 11.468,-1.787 14.86,-5.179 0.31,-0.31 0.549,-0.602 0.758,-0.885 C 7.286,12.057 3.19,15.662 2.114,17.869 Z m 16.482,-6.068 c 0.212,0.285 0.453,0.578 0.765,0.89 3.6,3.6 14.639,8.999 14.639,4.5 V 16.982 C 32.329,14.783 27.963,11.96 18.596,11.801 Z"
         id="path5"
         style="stroke:#000000;stroke-opacity:1;stroke-width:1.30016104;stroke-dasharray:none" /><path
         fill="#ea596e"
         class="nopath"
         transform="matrix(0.3,0,0,0.3,9,3.9)"
         d="M 22,11.4 C 22,13.388 20.389,15 18.401,15 H 16.599 C 14.611,15 13,13.388 13,11.4 V 7.6 C 13,5.612 14.611,4 16.599,4 h 1.802 C 20.389,4 22,5.612 22,7.6 Z"
         id="path6"
         style="stroke:#000000;stroke-opacity:1;stroke-width:1.30016104;stroke-dasharray:none" /></g><g
       id="text1"
       style="font-size:2.99861px;font-family:'Liberation Sans';-inkscape-font-specification:'Liberation Sans';stroke-width:0.1"
       aria-label="eweOS"
       inkscape:label="eweOS"><path
         style="font-family:'Noto Sans';-inkscape-font-specification:'Noto Sans';fill:#ffffff"
         d="m 4.4879567,16.857632 q 0.2069041,0 0.353836,0.08996 0.1499305,0.08996 0.2278944,0.254882 0.080963,0.161925 0.080963,0.380824 v 0.158926 H 4.0501597 q 0.006,0.272873 0.137936,0.416807 0.1349375,0.140934 0.3748263,0.140934 0.1529291,0 0.2698749,-0.02699 0.1199444,-0.02999 0.245886,-0.08396 v 0.230893 q -0.122943,0.05398 -0.2428874,0.07796 -0.1199444,0.02699 -0.2848679,0.02699 -0.2278944,0 -0.4048124,-0.09296 -0.1739194,-0.09296 -0.2728735,-0.275872 -0.095956,-0.185914 -0.095956,-0.45279 0,-0.263878 0.08696,-0.45279 0.089958,-0.188913 0.2488846,-0.290865 0.1619249,-0.101953 0.3748262,-0.101953 z m -0.003,0.2159 q -0.1889124,0 -0.299861,0.122943 -0.1079499,0.119944 -0.1289402,0.335844 h 0.8186205 q -0.003,-0.203905 -0.095956,-0.329847 -0.092957,-0.12894 -0.2938638,-0.12894 z m 2.0510455,0.512762 Q 6.4970216,17.463351 6.4670355,17.346405 6.440048,17.226461 6.425055,17.160492 h -0.011995 q -0.011994,0.06597 -0.038982,0.185913 -0.026987,0.116946 -0.068968,0.242888 L 6.017244,18.491874 H 5.717383 L 5.2765873,16.884619 h 0.2728736 l 0.2218971,0.857603 q 0.032985,0.12894 0.062971,0.260879 0.029986,0.131939 0.041981,0.218899 h 0.011995 q 0.011994,-0.05098 0.026987,-0.125942 0.017992,-0.07496 0.038982,-0.155928 0.02099,-0.08396 0.04198,-0.14993 l 0.284868,-0.905581 H 6.5689883 L 6.8448604,17.7902 q 0.032985,0.101952 0.062971,0.221897 0.032985,0.119944 0.044979,0.206904 h 0.011994 q 0.009,-0.07496 0.038982,-0.206904 0.032985,-0.131939 0.068968,-0.269875 L 7.2976505,16.884619 H 7.5675254 L 7.1207325,18.491874 H 6.8118757 Z m 1.9400985,-0.728662 q 0.2069041,0 0.353836,0.08996 0.1499305,0.08996 0.2278943,0.254882 0.080963,0.161925 0.080963,0.380824 v 0.158926 H 8.038305 q 0.006,0.272873 0.1379361,0.416807 0.1349374,0.140934 0.3748263,0.140934 0.1529291,0 0.2698749,-0.02699 0.1199444,-0.02999 0.245886,-0.08396 v 0.230893 q -0.122943,0.05398 -0.2428874,0.07796 -0.1199444,0.02699 -0.284868,0.02699 -0.2278944,0 -0.4048123,-0.09296 -0.1739194,-0.09296 -0.2728736,-0.275872 -0.095955,-0.185914 -0.095955,-0.45279 0,-0.263878 0.08696,-0.45279 0.089958,-0.188913 0.2488846,-0.290865 0.161925,-0.101953 0.3748263,-0.101953 z m -0.003,0.2159 q -0.1889124,0 -0.299861,0.122943 -0.10795,0.119944 -0.1289402,0.335844 h 0.8186205 q -0.003,-0.203905 -0.095956,-0.329847 -0.092957,-0.12894 -0.2938638,-0.12894 z"
         id="path7" /><path
         style="font-weight:300;font-family:'Noto Sans';-inkscape-font-specification:'Noto Sans Light';fill:#ffffff"
         d="m 11.405742,17.421371 q 0,0.326848 -0.10795,0.575733 -0.10795,0.248884 -0.32385,0.389819 -0.212902,0.137936 -0.530754,0.137936 -0.32385,0 -0.53975,-0.137936 -0.2129013,-0.140935 -0.3208512,-0.389819 -0.1049514,-0.251883 -0.1049514,-0.578732 0,-0.326848 0.10795,-0.572734 0.1109485,-0.245886 0.3268485,-0.383823 0.2188981,-0.140934 0.5397501,-0.140934 0.308856,0 0.521758,0.134937 0.212901,0.131939 0.320851,0.377825 0.110949,0.245886 0.110949,0.587728 z m -1.7451914,-0.003 q 0,0.284868 0.083961,0.500768 0.083961,0.212901 0.2578803,0.332846 0.17392,0.116945 0.440796,0.116945 0.269875,0 0.440796,-0.116945 0.173919,-0.116946 0.254881,-0.329847 0.08396,-0.2159 0.08396,-0.500768 0,-0.446793 -0.194909,-0.695678 -0.191911,-0.248884 -0.575733,-0.248884 -0.266877,0 -0.443795,0.119944 -0.1769176,0.116946 -0.2638773,0.329847 -0.083961,0.209903 -0.083961,0.491772 z m 3.4214134,0.51876 q 0,0.191911 -0.09596,0.323849 -0.09596,0.131939 -0.263877,0.197909 -0.167922,0.06597 -0.380824,0.06597 -0.194909,0 -0.338843,-0.02699 -0.143933,-0.02699 -0.245886,-0.06897 v -0.170921 q 0.110949,0.04498 0.263878,0.07796 0.152929,0.03298 0.329847,0.03298 0.245886,0 0.398815,-0.104951 0.155928,-0.104951 0.155928,-0.314854 0,-0.125942 -0.05997,-0.206904 -0.05697,-0.08396 -0.179917,-0.143933 -0.119944,-0.06297 -0.308857,-0.125942 -0.179916,-0.05997 -0.308857,-0.134937 -0.12894,-0.07497 -0.197908,-0.185914 -0.06897,-0.113947 -0.06897,-0.284868 0,-0.17392 0.08696,-0.293864 0.08996,-0.122943 0.242887,-0.185914 0.155928,-0.06297 0.353836,-0.06297 0.155928,0 0.296863,0.02999 0.140934,0.02999 0.266876,0.08396 l -0.05697,0.14993 q -0.25788,-0.10795 -0.512762,-0.10795 -0.221897,0 -0.362832,0.09895 -0.137936,0.09596 -0.137936,0.284868 0,0.137936 0.05997,0.221897 0.05997,0.08096 0.17392,0.137936 0.113947,0.05697 0.27887,0.113948 0.188913,0.06597 0.32385,0.137936 0.137936,0.07197 0.212902,0.182915 0.07496,0.10795 0.07496,0.278871 z"
         id="path8" /></g></g></svg>
