<?xml version="1.0" encoding="UTF-8" standalone="no"?>
<svg
   width="1200"
   height="600"
   viewBox="-2 0 120 60"
   version="1.1"
   id="svg6"
   sodipodi:docname="news-1200x600.svg"
   inkscape:export-filename="../png/package-logo.png"
   inkscape:export-xdpi="400"
   inkscape:export-ydpi="400"
   inkscape:version="1.3.2 (091e20ef0f, 2023-11-25, custom)"
   xml:space="preserve"
   xmlns:inkscape="http://www.inkscape.org/namespaces/inkscape"
   xmlns:sodipodi="http://sodipodi.sourceforge.net/DTD/sodipodi-0.dtd"
   xmlns="http://www.w3.org/2000/svg"
   xmlns:svg="http://www.w3.org/2000/svg"><defs
     id="defs6"><rect
       x="436.44303"
       y="441.33393"
       width="497.17309"
       height="80.526556"
       id="rect10" /><rect
       x="434.56279"
       y="445.03192"
       width="569.59928"
       height="72.403463"
       id="rect9" /><rect
       x="451.91667"
       y="448.24708"
       width="557.49417"
       height="77.549982"
       id="rect8" /><rect
       x="484.11366"
       y="186.13813"
       width="510.68696"
       height="183.18997"
       id="rect2" /><rect
       x="522.5251"
       y="201.62882"
       width="560.31169"
       height="137.35413"
       id="rect1" /></defs><sodipodi:namedview
     id="namedview6"
     pagecolor="#505050"
     bordercolor="#eeeeee"
     borderopacity="1"
     inkscape:showpageshadow="0"
     inkscape:pageopacity="0"
     inkscape:pagecheckerboard="0"
     inkscape:deskcolor="#505050"
     inkscape:zoom="0.68766134"
     inkscape:cx="570.77514"
     inkscape:cy="120.69895"
     inkscape:window-width="2194"
     inkscape:window-height="1158"
     inkscape:window-x="0"
     inkscape:window-y="0"
     inkscape:window-maximized="1"
     inkscape:current-layer="svg6" /><rect
     style="fill:#ffffff;fill-opacity:1;stroke:none;stroke-width:0.1"
     id="rect6"
     width="120"
     height="60"
     x="-2"
     y="0"
     inkscape:label="bg" /><g
     id="g1"
     transform="matrix(0.78321678,0,0,0.78321678,9.757088,12.893721)"
     style="display:inline"><path
       class="path"
       fill="#ffac33"
       d="m 11.983,3.562 c 4.543,-0.262 7.824,1.597 8.089,6.826 0.215,4.19 -5.184,6.79 -8.046,6.879 -2.462,0.077 -1.353,-1.852 0.61,-2.334 1.576,-0.387 4.124,-2.413 3.602,-4.44 C 15.641,8.173 11.923,7.809 9.887,10.785 9.089,11.952 6.333,11.658 5.791,10.351 4.833,8.042 7.002,3.849 11.983,3.562 Z"
       id="path1" /><path
       class="path"
       fill="#e1e8ed"
       d="m 35.75,21.384 c 0,-7.783 -4.495,-11.407 -14.519,-11.407 -1.087,0 -2.083,0.051 -3.018,0.137 C 16.853,7.691 13.368,7.286 10,7.286 c -4.304,0 -10,6.145 -10,10.839 0,4.608 3.606,4.866 7.811,4.874 0.233,3.245 1.226,5.647 3.249,7.26 0.277,1.15 1.534,5.741 3.94,5.741 1.353,0 2.099,-1.695 2.51,-3.417 1.128,0.136 2.359,0.209 3.722,0.209 1.733,0 3.288,-0.116 4.695,-0.335 C 26.017,34.114 26.458,36 28,36 c 2.317,0 4.273,-4.956 4.834,-6.521 1.969,-1.87 2.916,-4.545 2.916,-8.095 z"
       id="path2" /><circle
       class="path"
       fill="#292f33"
       cx="4.5"
       cy="15.786"
       r="1.5"
       id="circle2" /><path
       class="path"
       fill="#ffcc4d"
       d="m 17.562,4.339 c 4.312,1.455 5.74,4.148 4.034,9.099 -1.367,3.967 -7.345,4.361 -10.034,3.375 C 9.25,15.964 11,14.589 13,14.875 c 1.606,0.23 4.727,-0.698 5,-2.773 C 18.312,9.727 15,8 12,10 10.823,10.785 6.226,10.43 6.5,9.042 7.138,5.816 12.835,2.744 17.562,4.339 Z"
       id="path3" /><path
       fill="#dd2e44"
       class="nopath"
       d="m 14.7843,5.8176 c 0,0.1215 -0.711,0.1215 -0.711,0 0,-0.27 -4.4733,-2.9697 -4.4733,-0.81 v 4.0497 c 0,0.7461 1.0428,0.5841 2.1579,0.1083 -0.4287,1.0575 -1.3494,2.904 -2.115,4.1802 -0.0687,0.1146 -0.0534,0.2604 0.0372,0.3582 0.0909,0.0975 0.2349,0.1245 0.3543,0.0645 l 1.5774,-0.7887 c 0.1323,0.2178 0.2793,0.5604 0.4128,0.8718 0.0999,0.2334 0.2034,0.4746 0.3072,0.6825 0.0432,0.0861 0.1251,0.1464 0.2202,0.162 0.0159,0.0027 0.0321,0.0039 0.048,0.0039 0.0789,0 0.1554,-0.0312 0.2121,-0.0879 0.426,-0.4257 1.0287,-2.5185 1.4379,-4.2279 0.4092,1.7094 1.0119,3.8022 1.4379,4.2279 0.0564,0.0567 0.1332,0.0879 0.2121,0.0879 0.0159,0 0.0318,-0.0012 0.048,-0.0039 0.0951,-0.0156 0.1773,-0.0759 0.2202,-0.162 0.1041,-0.2079 0.2073,-0.4491 0.3072,-0.6825 0.1335,-0.3114 0.2805,-0.6543 0.4128,-0.8718 l 1.5774,0.7887 c 0.1194,0.0594 0.2637,0.0333 0.3543,-0.0645 0.0909,-0.0978 0.1056,-0.2436 0.0372,-0.3582 C 18.0366,11.9784 17.0388,9.957 16.6587,8.9529 17.8956,9.5799 19.2,9.906 19.2,9.057 V 5.0073 c 0,-2.1594 -4.4157,0.5403 -4.4157,0.8103 z"
       id="path4"
       style="stroke-width:0.3" /><path
       fill="#a0041e"
       class="nopath"
       d="M 9.6342,9.2607 C 9.9873,10.2204 13.0746,8.7246 14.0922,7.707 14.1852,7.614 14.2569,7.5264 14.3196,7.4415 11.1858,7.5171 9.957,8.5986 9.6342,9.2607 Z m 4.9446,-1.8204 c 0.0636,0.0855 0.1359,0.1734 0.2295,0.267 1.08,1.08 4.3917,2.6997 4.3917,1.35 V 8.9946 C 18.6987,8.3349 17.3889,7.488 14.5788,7.4403 Z"
       id="path5"
       style="stroke-width:0.3" /><path
       fill="#ea596e"
       class="nopath"
       d="m 15.6,7.32 c 0,0.5964 -0.4833,1.08 -1.0797,1.08 H 13.9797 C 13.3833,8.4 12.9,7.9164 12.9,7.32 V 6.18 c 0,-0.5964 0.4833,-1.08 1.0797,-1.08 h 0.5406 C 15.1167,5.1 15.6,5.5836 15.6,6.18 Z"
       id="path6"
       style="stroke-width:0.3" /><g
       id="g2"
       transform="matrix(4.6388889,0,0,4.6388889,-69.050669,-52.968187)"
       style="display:inline"><path
         fill="#99aab5"
         d="m 18.5,19.8 h -2.9 c 0.4,0 0.3,-0.9 0.3,-0.9 0,-0.2209 0.1791,-1.5 0.4,-1.5 h 2.1 c 0,0 0.4,0 0.4,0.4 v 1.7 c 0,0 0,0.3 -0.3,0.3"
         id="path1-3"
         style="stroke-width:0.1" /><path
         fill="#ccd6dd"
         d="m 18.2,19.5 c 0,0.3 0.3,0.3 0.3,0.3 h -3 c 0,0 -0.3,0 -0.3,-0.4 v -2.8 a 0.4,0.4 0 0 1 0.4,-0.4 h 2.2 a 0.4,0.4 0 0 1 0.4,0.4 z"
         id="path2-6"
         style="stroke-width:0.1" /><path
         fill="#99aab5"
         d="m 17.9,18.2 a 0.1,0.1 0 0 1 -0.1,0.1 H 17 a 0.1,0.1 0 1 1 0,-0.2 h 0.8 a 0.1,0.1 0 0 1 0.1,0.1 m 0,-0.4 a 0.1,0.1 0 0 1 -0.1,0.1 H 17 a 0.1,0.1 0 1 1 0,-0.2 h 0.8 a 0.1,0.1 0 0 1 0.1,0.1 m 0,-0.4 a 0.1,0.1 0 0 1 -0.1,0.1 H 17 a 0.1,0.1 0 1 1 0,-0.2 h 0.8 a 0.1,0.1 0 0 1 0.1,0.1 m 0,1.2 a 0.1,0.1 0 0 1 -0.1,0.1 h -2.2 a 0.1,0.1 0 1 1 0,-0.2 h 2.2 a 0.1,0.1 0 0 1 0.1,0.1 m 0,0.4 a 0.1,0.1 0 0 1 -0.1,0.1 h -2.2 a 0.1,0.1 0 1 1 0,-0.2 h 2.2 a 0.1,0.1 0 0 1 0.1,0.1 m 0,0.4 a 0.1,0.1 0 0 1 -0.1,0.1 h -2.2 a 0.1,0.1 0 1 1 0,-0.2 h 2.2 a 0.1,0.1 0 0 1 0.1,0.1 m -0.2,-2.3 c 0,0 0.2,0 0.2,-0.2 v -0.2 c 0,0 0,-0.2 -0.2,-0.2 h -2 c 0,0 -0.2,0 -0.2,0.2 v 0.2 c 0,0 0,0.2 0.2,0.2 z"
         id="path3-7"
         style="stroke-width:0.1" /><path
         fill="#55acee"
         d="m 16.5,18.3 c 0,0 0.2,0 0.2,-0.2 v -0.6 c 0,0 0,-0.2 -0.2,-0.2 h -0.8 c 0,0 -0.2,0 -0.2,0.2 v 0.6 c 0,0 0,0.2 0.2,0.2 z"
         id="path4-5"
         style="stroke-width:0.1" /></g></g><text
     xml:space="preserve"
     transform="matrix(0.1,0,0,0.1,-3.454492,-5.4476683)"
     id="text1"
     style="font-style:normal;font-variant:normal;font-weight:normal;font-stretch:normal;font-size:60px;font-family:Roboto;-inkscape-font-specification:Roboto;white-space:pre;shape-inside:url(#rect2);display:inline;fill:#000000;fill-opacity:1;stroke:none"
     inkscape:label="eweos"><tspan
       x="484.11328"
       y="238.63867"
       id="tspan8">ewe<tspan
   style="font-weight:300;-inkscape-font-specification:'Roboto Light'"
   id="tspan6">OS | News
</tspan></tspan></text><text
     xml:space="preserve"
     style="font-style:normal;font-variant:normal;font-weight:500;font-stretch:normal;font-size:6.66667px;font-family:Roboto;-inkscape-font-specification:'Roboto Medium';fill:#000000;fill-opacity:1;stroke:none;stroke-width:0.1"
     x="44.621979"
     y="27.151752"
     id="text4"
     inkscape:label="title"><tspan
       style="font-style:normal;font-variant:normal;font-weight:bold;font-stretch:normal;font-size:6.66667px;font-family:Roboto;-inkscape-font-specification:'Roboto Bold';stroke-width:0.1"
       x="44.621979"
       y="27.151752"
       id="tspan5"
       sodipodi:role="line">Monthly</tspan><tspan
       style="font-style:normal;font-variant:normal;font-weight:bold;font-stretch:normal;font-size:6.66667px;font-family:Roboto;-inkscape-font-specification:'Roboto Bold';stroke-width:0.1"
       x="44.621979"
       y="35.485088"
       sodipodi:role="line"
       id="tspan7">Progress Report</tspan></text><text
     xml:space="preserve"
     transform="matrix(0.1,0,0,0.1,1.318359,-1.8433474)"
     id="text10"
     style="font-style:normal;font-variant:normal;font-weight:normal;font-stretch:normal;font-size:40px;font-family:Roboto;-inkscape-font-specification:Roboto;white-space:pre;shape-inside:url(#rect10);fill:#7d7d7d;fill-opacity:1;stroke:none"
     inkscape:label="subtitle"><tspan
       x="436.44336"
       y="476.33398"
       id="tspan10"><tspan
         style="font-weight:300;-inkscape-font-specification:'Roboto Light';fill:#000000"
         id="tspan9">(2024.05)</tspan></tspan></text></svg>
