<?xml version="1.0" encoding="UTF-8" standalone="no"?>
<!-- Created with Inkscape (http://www.inkscape.org/) -->

<svg
   width="63.720001"
   height="83.445999"
   viewBox="0 0 16.859251 22.078418"
   version="1.1"
   id="svg1"
   xml:space="preserve"
   inkscape:version="1.4 (e7c3feb100, 2024-10-09)"
   sodipodi:docname="poweredby_llvm.svg"
   inkscape:export-filename="../png/poweredby_llvm.png"
   inkscape:export-xdpi="2000"
   inkscape:export-ydpi="2000"
   xmlns:inkscape="http://www.inkscape.org/namespaces/inkscape"
   xmlns:sodipodi="http://sodipodi.sourceforge.net/DTD/sodipodi-0.dtd"
   xmlns:xlink="http://www.w3.org/1999/xlink"
   xmlns="http://www.w3.org/2000/svg"
   xmlns:svg="http://www.w3.org/2000/svg"><sodipodi:namedview
     id="namedview1"
     pagecolor="#ffffff"
     bordercolor="#000000"
     borderopacity="0.25"
     inkscape:showpageshadow="2"
     inkscape:pageopacity="0.0"
     inkscape:pagecheckerboard="0"
     inkscape:deskcolor="#d1d1d1"
     inkscape:document-units="mm"
     inkscape:zoom="6.4779395"
     inkscape:cx="15.205452"
     inkscape:cy="32.958011"
     inkscape:window-width="2194"
     inkscape:window-height="1158"
     inkscape:window-x="0"
     inkscape:window-y="0"
     inkscape:window-maximized="1"
     inkscape:current-layer="layer1" /><defs
     id="defs1"><linearGradient
       id="linear-gradient-34"
       x1="155.32001"
       y1="560.59003"
       x2="155.32001"
       y2="560.42999"
       xlink:href="#linear-gradient-13" /><linearGradient
       id="linear-gradient-13"
       x1="155.32001"
       y1="562.58002"
       x2="155.32001"
       y2="562.41998"
       gradientTransform="matrix(45.2,0,0,-212.17,-6849.43,119709.31)"
       gradientUnits="userSpaceOnUse"><stop
         offset="0"
         stop-color="#16b0ed"
         stop-opacity="0.8"
         id="stop76" /><stop
         offset="1"
         stop-color="#0f59b2"
         stop-opacity="0.84"
         id="stop77" /></linearGradient><linearGradient
       id="linear-gradient-35"
       x1="158.05"
       y1="560.59003"
       x2="158.05"
       y2="560.42999"
       xlink:href="#linear-gradient-14" /><linearGradient
       id="linear-gradient-14"
       x1="158.05"
       y1="562.58002"
       x2="158.05"
       y2="562.41998"
       gradientTransform="matrix(-46.13,0,0,-212.15,7480.38,119695.47)"
       gradientUnits="userSpaceOnUse"><stop
         offset="0"
         stop-color="#7db643"
         id="stop78" /><stop
         offset="1"
         stop-color="#367533"
         id="stop79" /></linearGradient><linearGradient
       id="linear-gradient-36"
       x1="155.08"
       y1="560.59003"
       x2="155.08"
       y2="560.42999"
       xlink:href="#linear-gradient-15" /><linearGradient
       id="linear-gradient-15"
       x1="155.08"
       y1="562.58002"
       x2="155.08"
       y2="562.41998"
       gradientTransform="matrix(150.45,0,0,-212.19,-23151.41,119720.44)"
       gradientUnits="userSpaceOnUse"><stop
         offset="0"
         stop-color="#88c649"
         stop-opacity="0.8"
         id="stop80" /><stop
         offset="1"
         stop-color="#439240"
         stop-opacity="0.84"
         id="stop81" /></linearGradient></defs><g
     inkscape:label="图层 1"
     inkscape:groupmode="layer"
     id="layer1"><g
       id="g3"
       inkscape:label="layout"><path
         class="cls-162"
         d="m 0,0 v 18.575333 a 1.1165417,3.6123448 0 0 0 1.153583,3.501044 H 15.705667 A 1.1165417,3.6123448 0 0 0 16.85925,18.575333 V 0 Z"
         id="use1"
         style="display:inline;fill:#ffffff;fill-opacity:1;stroke-width:0.475904"
         inkscape:label="bg" /><path
         class="cls-162"
         d="m 0,15.254256 v 5.74146 a 1.1165417,1.1165417 0 0 0 1.153583,1.08214 h 14.552084 a 1.1165417,1.1165417 0 0 0 1.153583,-1.08214 v -5.74146 z"
         id="path1568"
         style="fill:#09637d;fill-opacity:1;stroke-width:0.265;stroke-dasharray:none" /><path
         class="cls-28"
         d="M 14.626166,3.5173863 V 18.752197 c 0,1.870623 -12.3930823,1.870623 -12.3930823,0 V 3.5120943 c 0,-2.1193274 12.3930823,-2.1193274 12.3930823,0.0053 z"
         id="path1569"
         style="fill:none;fill-opacity:1;stroke:#aaaaaa;stroke-width:0.100542px;stroke-linecap:round;stroke-linejoin:bevel" /></g><g
       id="g2"
       inkscape:label="poweredby"
       transform="translate(0.11906423)"><path
         class="cls-162"
         d="m 5.3789795,14.053046 h 0.103187 c 0.100542,0 0.195792,0 0.195792,0.11113 0,0.11112 -0.108479,0.11906 -0.227542,0.11906 h -0.07144 v -0.2249 m -0.137584,-0.127 v 0.79375 h 0.137584 v -0.3175 h 0.0635 c 0.169333,0 0.375708,-0.0238 0.375708,-0.2487 0,-0.2249 -0.219604,-0.23284 -0.322792,-0.23284 h -0.264583"
         id="path1561"
         style="fill:#444444;stroke-width:0.264583" /><path
         class="cls-162"
         d="m 6.1833125,14.725086 a 0.26458333,0.26458333 0 0 0 0.283104,-0.28575 0.28045833,0.28045833 0 1 0 -0.283104,0.28575 m 0,-0.46302 c 0.07673,0 0.140229,0.0609 0.140229,0.17992 0,0.11906 -0.06085,0.17462 -0.140229,0.17462 -0.07937,0 -0.140229,-0.0609 -0.140229,-0.17462 0,-0.11377 0.0635,-0.17992 0.140229,-0.17992"
         id="path1562"
         style="fill:#444444;stroke-width:0.264583" /><polyline
         class="cls-162"
         points="172.68 807.88 172.26 809.4 171.79 807.88 171.24 807.88 172.03 809.94 172.52 809.94 172.94 808.47 173.36 809.94 173.85 809.94 174.64 807.88 174.09 807.88 173.62 809.4 173.2 807.88 172.68 807.88"
         id="polyline1562"
         style="fill:#444444"
         transform="matrix(0.26458333,0,0,0.26458333,-38.774687,-199.58478)" /><path
         class="cls-162"
         d="m 7.7549375,14.262066 c 0.06615,0 0.116417,0.0476 0.116417,0.13494 h -0.232834 a 0.127,0.127 0 0 1 0.116417,-0.13494 m 0,-0.10583 a 0.26458333,0.26458333 0 0 0 -0.264583,0.28575 0.26458333,0.26458333 0 0 0 0.298979,0.2831 0.57414583,0.57414583 0 0 0 0.1905,-0.0318 v -0.0952 a 0.89164582,0.89164582 0 0 1 -0.171979,0.0212 c -0.100542,0 -0.164042,-0.0265 -0.17198,-0.127 h 0.370417 v -0.0503 c 0,-0.16933 -0.08202,-0.28575 -0.264583,-0.28575"
         id="path1563"
         style="fill:#444444;stroke-width:0.264583" /><path
         class="cls-162"
         d="m 8.2761665,14.195926 -0.01852,-0.037 h -0.09525 v 0.5662 h 0.134938 v -0.42068 a 0.48947916,0.48947916 0 0 1 0.1269999,-0.0212 0.24870833,0.24870833 0 0 1 0.103187,0.0212 v 0 -0.11377 a 0.21166666,0.21166666 0 0 0 -0.0979,-0.0212 0.31220833,0.31220833 0 0 0 -0.1613949,0.0476"
         id="path1564"
         style="fill:#444444;stroke-width:0.264583" /><path
         class="cls-162"
         d="m 8.8476664,14.262066 c 0.06615,0 0.116417,0.0476 0.116417,0.13494 h -0.232834 a 0.127,0.127 0 0 1 0.116417,-0.13494 m 0,-0.10583 a 0.26458333,0.26458333 0 0 0 -0.264583,0.28575 0.26458333,0.26458333 0 0 0 0.291041,0.2831 0.57414583,0.57414583 0 0 0 0.1905,-0.0318 v -0.0952 a 0.89429166,0.89429166 0 0 1 -0.174625,0.0212 c -0.0979,0 -0.161395,-0.0265 -0.169333,-0.127 h 0.391583 v -0.0503 c 0,-0.16933 -0.08467,-0.28575 -0.264583,-0.28575"
         id="path1565"
         style="fill:#444444;stroke-width:0.264583" /><path
         class="cls-162"
         d="m 9.5276454,14.262066 a 0.28839583,0.28839583 0 0 1 0.0979,0.0185 v 0.31221 a 0.19314583,0.19314583 0 0 1 -0.09525,0.0265 0.14816666,0.14816666 0 0 1 -0.153458,-0.15875 c 0,-0.14023 0.06879,-0.18521 0.15875,-0.18521 m 0.0979,-0.33602 v 0.26458 a 0.333375,0.333375 0 0 0 -0.129646,-0.0238 0.26458333,0.26458333 0 0 0 -0.264584,0.28311 0.26458333,0.26458333 0 0 0 0.269875,0.26193 0.3254375,0.3254375 0 0 0 0.145521,-0.0423 v 0.0291 h 0.0979 v -0.79375 h -0.137583"
         id="path1566"
         style="fill:#444444;stroke-width:0.264583" /><path
         class="cls-162"
         d="m 10.435166,14.262066 c 0.0926,0 0.161396,0.045 0.161396,0.18521 a 0.1508125,0.1508125 0 0 1 -0.164042,0.17198 0.20108333,0.20108333 0 0 1 -0.09525,-0.0265 v -0.31221 a 0.28839583,0.28839583 0 0 1 0.0979,-0.0185 m -0.232833,-0.33602 v 0.79375 h 0.0979 v -0.0291 a 0.3254375,0.3254375 0 0 0 0.14552,0.0423 0.28575,0.28575 0 0 0 0,-0.56885 0.333375,0.333375 0 0 0 -0.129645,0.0238 v -0.26458 h -0.134938"
         id="path1567"
         style="fill:#444444;stroke-width:0.264583" /><polyline
         class="cls-162"
         points="187.3 807.88 188.23 809.96 187.76 811.05 188.34 811.05 189.6 807.88 189.06 807.88 188.5 809.46 187.89 807.88 187.3 807.88"
         id="polyline1567"
         style="fill:#444444"
         transform="matrix(0.26458333,0,0,0.26458333,-38.774687,-199.58478)" /></g><path
       style="font-weight:500;font-size:3.175px;font-family:Roboto;-inkscape-font-specification:'Roboto Semi-Light';text-align:center;text-anchor:middle;fill:#ffffff;stroke-width:0.265"
       d="m 5.0786669,18.289068 h 1.0247437 v 0.313159 H 4.6864428 V 16.345 h 0.3922241 z m 1.7177246,0 h 1.0247436 v 0.313159 H 6.4041674 V 16.345 H 6.7963915 Z M 8.597832,18.110784 9.1714404,16.345 H 9.6024218 L 8.7900683,18.602227 H 8.4102465 L 7.6009936,16.345 H 8.0304247 Z M 10.365166,16.345 11.016289,18.075127 11.665862,16.345 h 0.506946 v 2.257227 h -0.390674 v -0.744141 l 0.03876,-0.995288 -0.666626,1.739429 h -0.280603 l -0.665076,-1.737879 0.03876,0.993738 v 0.744141 H 9.8566699 V 16.345 Z"
       id="text2"
       inkscape:label="llvm-text"
       aria-label="LLVM" /><path
       d="m 12.323404,4.1898231 -0.03792,0.041892 a 7.1635923,7.1635923 0 0 0 -0.524756,0.6557256 2.5457321,2.5457321 0 0 0 -0.196674,0.317059 1.2699998,1.2699998 0 0 0 -0.1098,0.2628193 0.21916316,0.21916316 0 0 0 -0.0145,0.078051 v 0.00177 a 0.13096872,0.13096872 0 0 0 -0.0926,0.1278817 0.13229164,0.13229164 0 0 0 0.08246,0.1252366 c 0.01675,0.1636 0.03529,0.5035903 0.03086,0.9701387 l -0.0018,0.062619 a 3.528218,3.528218 0 0 1 -0.191381,1.0261401 c -0.0071,-0.00442 -0.01317,-0.00621 -0.01763,-0.00568 -0.01317,0.00137 -0.04849,0.052916 -0.08378,0.1106832 -0.02558,0.039685 -0.05246,0.08599 -0.06792,0.1283234 a 0.16315968,0.16315968 0 0 0 -0.01317,0.061737 0.10980206,0.10980206 0 0 0 0.0045,0.0388 c 0.0043,0.016316 0.0097,0.025579 0.0097,0.025579 a 3.0144856,3.0144856 0 0 1 -0.0014,0.00305 0.06349999,0.06349999 0 0 0 -0.01234,0.029548 l -0.0054,0.012779 A 3.0144856,3.0144856 0 0 1 10.966521,8.496377 l -0.03395,0.062622 a 3.0144856,3.0144856 0 0 1 -0.03086,0.050716 0.06923262,0.06923262 0 0 0 -0.0097,-0.00621 0.07055553,0.07055553 0 0 0 -0.04983,0.010579 c -0.02072,0.015432 -0.06658,0.085548 -0.219603,0.1622785 a 0.61030543,0.61030543 0 0 1 -0.140999,0.050271 6.2177071,6.2177071 0 0 0 0.109366,-0.9128124 2.2366107,2.2366107 0 0 0 -0.02822,-0.4661076 c 0.0014,-0.00442 0.0014,-0.00749 0.0014,-0.00749 l -0.0022,0.00442 A 1.916024,1.916024 0 0 0 10.515859,7.2426731 1.567215,1.567215 0 0 0 10.196597,6.6319267 C 9.9183423,6.2994337 9.5369019,6.1292185 9.2017628,6.1181941 l -0.055116,-8.82e-4 c 0,-0.00354 0,-0.00662 8.821e-4,-0.00969 0.00884,-0.043215 0.010579,-0.056004 -0.038369,-0.014117 a 0.38452771,0.38452771 0 0 0 -0.025137,0.023817 1.3167428,1.3167428 0 0 0 -0.06438,0.00308 0.31573605,0.31573605 0 0 1 -0.00137,-0.047621 c 0.00179,-0.033513 0.010579,-0.056004 -0.038369,-0.014117 a 0.24385759,0.24385759 0 0 0 -0.062622,0.073642 c -0.022053,0.00354 -0.035274,0.00662 -0.035274,0.00662 l 0.019842,-8.82e-4 -0.020727,0.00354 c -0.00705,-0.01852 -0.023369,-0.046302 -0.021169,-0.070555 0.00442,-0.052035 0.018958,-0.061737 -0.016316,-0.028664 -0.043211,0.039689 -0.089075,0.09966 -0.097012,0.1322917 l -0.042337,0.013233 c -0.00789,-0.00838 -0.032632,-0.030869 -0.037927,-0.078933 -0.00568,-0.048507 -0.00526,-0.073202 -0.035274,-0.022049 a 0.50270824,0.50270824 0 0 0 -0.057323,0.1534548 c -0.014116,0.00662 -0.027779,0.013234 -0.041011,0.020285 a 0.11906248,0.11906248 0 0 1 -0.025137,-0.076288 c -0.00221,-0.0635 0.017642,-0.1146533 -0.029548,-0.029987 a 0.72054848,0.72054848 0 0 0 -0.064382,0.1790346 0.70555541,0.70555541 0 0 0 -0.046301,0.035278 1.1906248,1.1906248 0 0 1 -0.00354,-0.074965 c -8.82e-4,-0.063059 0.00926,-0.1305283 -0.029545,-0.011466 A 0.80786096,0.80786096 0 0 0 8.3034969,6.4237931 C 8.12535,6.5935621 8.0168709,6.8281592 8.0195167,7.116996 v 0.00308 a 1.5081247,1.5081247 0 0 0 0.00617,0.14552 c 0.00882,0.1049516 0.025135,0.1931457 0.047184,0.2667887 -0.041892,0.057327 -0.04542,0.3038293 -0.00442,0.3607152 0.032192,0.045864 0.2187224,0.1543394 0.2584098,0.175947 a 0.16183677,0.16183677 0 0 1 0.041452,0.041011 c 0.050712,0.082906 0.050712,0.250032 0.0119,0.3360213 -0.047184,0.1049484 0.047184,0.125676 0.1256767,0.1411119 0.078495,0.015884 0.1830029,-0.010105 0.2041694,-0.052032 0.020727,-0.041895 -0.067906,-0.1367014 -0.1045063,-0.3298475 -0.037043,-0.1935862 0.057327,-0.20902 0.057327,-0.20902 0,0 0.041895,0.010579 0.1045063,0.1098011 0.048506,0.077169 0.1000957,0.1380245 0.1481668,0.1821218 a 0.32058673,0.32058673 0 0 1 -0.088633,0.075843 c 0.052916,0.00221 0.1058326,-0.022495 0.134055,-0.038369 a 0.33954855,0.33954855 0 0 0 0.030864,0.019842 0.44758671,0.44758671 0 0 1 -0.022042,0.022053 0.22313191,0.22313191 0 0 0 0.048064,-0.00968 0.13008678,0.13008678 0 0 0 0.037043,0.00968 c 0.068348,0.00526 0.2513541,-0.1622785 0.2513541,-0.1935872 0,-0.00789 -0.00663,-0.017642 -0.016758,-0.027779 -0.01852,-0.019838 -0.052921,-0.044091 -0.091289,-0.078049 a 0.45420129,0.45420129 0 0 1 -0.048506,-0.051159 0.31882285,0.31882285 0 0 1 -0.06218,-0.1649227 v -0.00442 l -0.00137,-0.013663 c 0,0 0.00305,-0.00305 0.00705,-0.00884 v 0.00179 l 0.00179,-0.00442 C 9.1179461,7.7872652 9.1611676,7.6554113 8.8877638,7.3471717 A 1.3427602,1.3427602 0 0 0 8.4803323,7.0358572 C 8.4618163,6.8277184 8.5464804,6.6332496 8.7563814,6.5375586 l -0.00221,0.0022 0.00358,-0.00265 c 0.1000957,-0.044978 0.2279833,-0.06835 0.3867333,-0.059972 0.3042705,0.015883 0.5379855,0.15875 0.7011448,0.3726214 0.2266595,0.3139722 0.3254375,0.7849306 0.2535585,1.2594164 -0.02999,0.028664 -0.02425,0.033074 -0.0057,0.033958 a 2.0355274,2.0355274 0 0 1 -0.02426,0.1203928 l -0.01191,0.00663 c -0.05424,0.032632 -0.03131,0.03219 0,0.040569 l -0.0026,0.00884 a 1.7550692,1.7550692 0 0 1 -0.0291,0.085106 0.42156936,0.42156936 0 0 0 -0.03837,0.013232 c -0.05954,0.023369 -0.03527,0.026463 -0.0053,0.039685 l 0.0194,0.010105 a 2.4782634,2.4782634 0 0 1 -0.04454,0.1045064 0.32896522,0.32896522 0 0 0 -0.03527,0.00747 c -0.062622,0.015884 -0.0388,0.022053 -0.01058,0.039685 a 0.22930551,0.22930551 0 0 1 0.01764,0.011895 2.9911139,2.9911139 0 0 1 -0.04718,0.094369 0.33513882,0.33513882 0 0 0 -0.067464,0.011021 c -0.061738,0.015884 -0.038369,0.022053 -0.010105,0.039685 0.015,0.00884 0.026453,0.017642 0.035274,0.026021 a 3.5370375,3.5370375 0 0 1 -0.041453,0.072759 l -0.010105,0.015884 a 0.26017357,0.26017357 0 0 0 -0.090843,0.010579 c -0.062622,0.015884 -0.0388,0.022042 -0.010579,0.039685 a 0.29545132,0.29545132 0 0 1 0.045864,0.034832 3.79677,3.79677 0 0 1 -0.055558,0.079369 0.22665967,0.22665967 0 0 0 -0.1014221,-0.00221 c -0.063495,0.00884 -0.040569,0.017642 -0.014547,0.037927 0.02999,0.023369 0.044095,0.043653 0.052032,0.052032 L 9.585176,9.1802446 C 9.5657926,9.1546685 9.5190447,9.125563 9.4767127,9.0951416 A 0.37482631,0.37482631 0 0 0 9.3488304,9.0378147 c -0.021169,0 -0.08819,0.1181791 -0.4484688,0.086875 C 8.5392064,9.0933626 8.5167167,9.0585307 8.4849658,9.0585307 a 0.43127075,0.43127075 0 0 0 -0.100541,0.026021 l -0.015,-0.00884 A 4.8639227,4.8639227 0 0 1 7.9405828,8.7785794 c -0.2046112,-0.1631605 -0.3175,-0.2853092 -0.3175,-0.2853092 0,0 0.060413,-0.055116 -0.020725,-0.125237 A 1.4640275,1.4640275 0 0 0 7.4533085,8.2458846 0.95117689,0.95117689 0 0 0 7.3465932,8.1726839 1.5742705,1.5742705 0 0 1 7.3077875,8.1166833 5.064565,5.064565 0 0 1 7.1477145,7.8397521 4.6103636,4.6103636 0 0 1 7.0374715,7.6073602 C 6.9669163,7.4486071 6.9184093,7.3066142 6.8848955,7.18226 A 2.4782634,2.4782634 0 0 1 6.8196322,6.7752426 0.99527411,0.99527411 0 0 1 6.8213988,6.6685276 0.18123955,0.18123955 0 0 0 6.8910722,6.5260943 0.18123955,0.18123955 0 0 0 6.7332038,6.3466185 C 6.6432427,6.1583227 6.3001664,5.6953019 5.0217881,4.7238403 l -0.056004,-0.042775 0.0022,0.00177 -0.015883,-0.0119 C 6.2543048,5.7865846 6.5087458,6.222265 6.5753326,6.4043866 a 0.18123955,0.18123955 0 0 0 -0.0119,0.01455 8.2417693,8.2417693 0 0 0 -0.00794,-0.00574 c 0.00794,0 0.011017,-0.0022 0.011017,-0.0022 0,0 -0.2963333,-0.2407707 -0.7880173,-0.5423957 C 5.2854894,5.5656561 5.007677,5.4942186 4.9494687,5.4818713 l -0.011467,-0.00265 c 0,0 0.09084,0.083785 0.076728,0.1256767 -0.00442,0.014117 -0.074083,0.00969 -0.1856494,0.01235 A 1.740958,1.740958 0 0 0 4.5093786,5.648118 1.8079858,1.8079858 0 0 0 3.8183752,5.9259304 c -0.5754685,0.3836458 -0.68042,0.6552847 -0.68042,0.6552847 0,0 0.2425348,-0.3386665 0.696736,-0.5754687 -0.00617,0.1486083 -0.020724,0.8687152 0.1962327,1.8168057 0.2337152,1.0230545 0.6746873,1.9786417 0.711729,2.0571357 0.00177,0.0785 0.00705,0.119949 0.00705,0.119949 0,0 0.065264,-0.7893402 0.3333749,-1.6082253 0.07717,0.124795 0.3342568,0.492565 0.9150172,0.9242767 0.7179027,0.5335776 1.045104,0.6773346 1.0583331,0.6826256 4.41e-4,0.06923 0.0022,0.1058342 0.0022,0.1058342 0,0 0.0022,-0.04411 0.00794,-0.1159832 A 2.0681592,2.0681592 0 0 1 7.3099844,9.6927118 1.5786803,1.5786803 0 0 1 7.5481093,9.5008886 c 0.014117,0.04851 0.027781,0.08995 0.04101,0.1217002 -0.00882,-0.04278 -0.015883,-0.08378 -0.02293,-0.1243492 0.047184,0.0045 0.2372431,0.02909 0.5318124,0.1733012 0.1512534,0.07409 0.2685521,0.174185 0.3518954,0.26238 a 0.07364235,0.07364235 0 0 0 -0.00621,0.0026 c 0,0 0.054243,0.04938 0.1186212,0.1777122 a 1.0653887,1.0653887 0 0 0 -0.3219091,0.03705 1.2845518,1.2845518 0 0 0 -0.043215,-0.08378 0.2134305,0.2134305 0 0 0 -0.017198,-0.05908 c -0.0119,-0.02689 -0.041892,-0.0441 -0.07232,-0.06174 a 0.17506594,0.17506594 0 0 0 -0.045858,-0.0322 0.09921873,0.09921873 0 0 1 -0.024254,-0.0322 c -0.037041,-0.08113 -0.3518957,0.0054 -0.4153956,0.07938 -0.07717,0.08995 -0.092163,0.204609 -0.061736,0.26811 0.00926,0.01985 0.030869,0.03617 0.060853,0.0485 8.82e-4,0.09701 0.060413,0.33073 0.1781528,0.499622 a 2.1889857,2.1889857 0 0 1 -0.047618,-0.293687 c -0.00397,-0.07055 0,-0.120833 0.00662,-0.154333 0.020758,0.144676 0.076762,0.301667 0.2544741,0.495695 -0.1093633,-0.238124 -0.097015,-0.379676 -0.085991,-0.504031 l 0.00442,-0.0194 0.0022,-4.4e-4 c 0.015866,0.115983 0.062619,0.235478 0.2125484,0.424655 a 0.18168051,0.18168051 0 0 1 -0.00617,-0.01234 l 0.00617,0.0094 a 0.7170207,0.7170207 0 0 1 -0.073645,-0.454202 l 0.00354,-8.85e-4 c 0.020285,0.01317 0.040129,0.03086 0.05909,0.05557 0.056445,0.07585 0.082903,0.153901 0.093486,0.207259 a 0.23283329,0.23283329 0 0 0 0.029537,0.168858 8.0830192,8.0830192 0 0 1 -0.3174998,0.220926 c -0.1014294,0.06615 -0.2160821,0.138017 -0.3338215,0.207257 -0.061737,0.03529 -0.1230317,0.06966 -0.1825625,0.101422 l -0.059532,-0.03395 h 8.82e-4 l -0.00354,-0.0018 c -0.427737,-0.2465 -0.745237,-0.410983 -1.1103618,-0.477128 -0.4101042,-0.0732 -0.7875763,0.1248 -0.8740067,0.477131 a 0.56620823,0.56620823 0 0 0 0.2434166,0.608542 l 0.00528,0.0035 c 0.00574,0.0043 0.011466,0.0075 0.017638,0.0115 l 0.026458,0.01583 h 8.818e-4 a 0.92604148,0.92604148 0 0 0 0.3042708,0.104517 l 0.01235,0.0022 h 0.00265 a 1.5434024,1.5434024 0 0 0 0.1816805,0.0194 c 0.4299479,0.02072 0.9507359,-0.179917 1.4653504,-0.433035 0.044096,0.02382 0.089077,0.04763 0.1349383,0.0732 1.1231577,0.618674 1.8071056,0.698931 2.713742,0.321017 -0.221367,0.06658 -0.5326937,0.156984 -0.9233934,0.151701 a 0.02204861,0.02204861 0 0 0 -0.00884,-0.0026 v 0.0026 a 2.4077079,2.4077079 0 0 1 -0.285285,-0.0221 l -0.013226,-0.0018 v -0.0014 a 0.11773956,0.11773956 0 0 0 -4.368e-4,9.8e-4 A 2.7560758,2.7560758 0 0 1 8.5689704,11.855676 3.4360548,3.4360548 0 0 1 8.2404463,11.696044 25.164075,25.164075 0 0 1 7.7968282,11.445131 c 0.1534584,-0.0785 0.3051527,-0.160067 0.4524374,-0.24033 0.156545,-0.08335 0.296333,-0.159633 0.404812,-0.220485 l 0.004,-0.0018 h 0.00305 c 0,0 0.0366,-0.0083 0.070559,-0.01897 0.074969,-0.02294 0.1807986,-0.0657 0.3064757,-0.124801 0.012347,0.0516 0.041895,0.0948 0.08599,0.111567 0.1036327,0.04014 0.1794755,0.01183 0.2301876,-0.04498 l 0.00789,-0.0045 0.020727,-0.01634 c 0.022053,-0.01317 0.047179,-0.02955 0.06879,-0.03968 a 0.50270824,0.50270824 0 0 1 0.023379,-0.0097 c 0.017642,-0.0043 0.0344,-0.01021 0.051158,-0.01634 l 0.014548,-0.0045 c -0.063937,0.130966 -0.040127,0.256206 -0.040127,0.256206 0.018958,-0.163167 0.097012,-0.268113 0.1728607,-0.315296 0.028221,-0.01183 0.057327,-0.02205 0.0882,-0.02955 0.028221,0 0.051158,0.01021 0.063495,0.03086 0.030874,0.05292 0.095696,0.08555 0.1605127,0.09966 0.01058,0.06615 -0.01984,0.178151 -0.1763886,0.38188 l 0.039685,-0.02734 0.00179,-0.0014 0.031748,-0.02337 c 0.06305,-0.04763 0.111125,-0.0926 0.1472853,-0.1345 a 0.42774296,0.42774296 0 0 0 0.08378,-0.1345 c 0.0057,0.0882 -0.01853,0.223573 -0.1367013,0.456846 0,0 0.1397883,-0.1217 0.2266603,-0.277811 0.0026,0.08421 -0.0045,0.195349 -0.02778,0.346164 0.152133,-0.296776 0.143316,-0.478456 0.1054,-0.584731 l -0.0045,-0.01583 a 0.19094093,0.19094093 0 0 0 -0.0043,-0.02866 l 0.01852,-0.02514 c 0.05204,-0.0732 -0.02116,-0.151683 -0.0679,-0.182553 -0.02646,-0.01763 -0.08819,-0.06792 -0.200201,-0.06923 -0.09922,-0.119066 -0.2248947,-0.06615 -0.4224499,0.06395 a 0.57194085,0.57194085 0 0 1 -0.073201,0.04057 0.31970481,0.31970481 0 0 0 -0.024253,-0.05115 c 0.070559,-0.04234 0.1437573,-0.0882 0.2178412,-0.135817 0.1397872,-0.09129 0.2438564,-0.183445 0.3210257,-0.271197 0.224897,-0.2279822 0.304272,-0.4497922 0.533577,-0.6376464 h -0.0057 l 0.02645,-0.01366 c 0.376589,-0.2019693 0.57591,-0.241216 0.590021,-0.2438613 l -0.0014,0.056443 0.008,-0.055116 a 0.79154498,0.79154498 0 0 1 0.212109,0.1516953 0.93486093,0.93486093 0 0 1 0.159633,0.2147532 l 0.0194,0.1323 c 0,0 0,-0.05115 -0.0045,-0.145516 0.06749,-0.06658 0.449801,-0.4599346 0.760247,-1.0874378 0.306034,-0.6191252 0.416276,-1.112573 0.448467,-1.2894028 a 8.0204012,8.0204012 0 0 1 0.293247,1.0874376 c 0,0 -8.82e-4,-0.058653 -0.01317,-0.1649237 0.04234,-0.1481668 0.2271,-0.8254997 0.276048,-1.6562912 0.04411,-0.7408333 -0.02866,-1.2259026 -0.06174,-1.3992048 0.285755,0.236361 0.438772,0.5759096 0.438772,0.5759096 0,0 -0.01763,-0.071879 -0.0829,-0.1927048 l 0.0088,0.0119 c 0,0 -0.104064,-0.2006423 -0.283985,-0.3986388 A 2.8442703,2.8442703 0 0 0 13.29398,5.0527011 C 13.10361,4.8499528 12.91752,4.7807201 12.778172,4.7564666 a 0.69232625,0.69232625 0 0 0 -0.135817,-0.013233 h -0.0083 c -0.05512,-0.00133 -0.0882,8.82e-4 -0.09128,-0.011466 -0.0088,-0.041892 0.04851,-0.1256767 0.04851,-0.1256767 0,0 -0.07805,0.020285 -0.244298,0.14552 -0.101422,0.073642 -0.229306,0.1807986 -0.37615,0.3351389 a 6.0364675,6.0364675 0 0 0 -0.392476,0.438337 l -0.03306,0.041892 a 0.08951735,0.08951735 0 0 0 -0.01021,-0.00749 c 0.03349,-0.1455217 0.159604,-0.4925667 0.788438,-1.3718651 z M 8.394343,9.0899057 a 0.15478122,0.15478122 0 0 1 0.00529,0.00263 z M 8.278368,10.239079 c 0.038805,0.0194 0.083785,0.04675 0.133615,0.08555 h -0.0022 a 0.2134305,0.2134305 0 0 0 -0.06835,0.03086 0.42156936,0.42156936 0 0 1 -0.055564,-0.09878 z m -2.1409204,0.692327 c 0.058208,0 0.1217083,0.0057 0.1904999,0.02072 l 0.00882,0.0022 0.00749,0.0018 c 0.048507,0.01183 0.098337,0.02734 0.1486083,0.04498 l 0.025135,0.0094 c 0.084227,0.03263 0.1741841,0.06878 0.2694341,0.109366 0.1411116,0.06174 0.2734027,0.12215 0.3695346,0.165367 l 0.080699,0.0388 c -0.097009,0.0467 -0.1869679,0.0864 -0.2544366,0.115049 C 6.5360863,11.622532 6.1762529,11.675449 5.952239,11.611507 5.5359614,11.49289 5.6171002,10.934174 6.1374473,10.931529 Z"
       id="path1-5"
       style="display:inline;fill:#09637d;fill-opacity:1;stroke:none;stroke-width:0.440972" /></g></svg>
