<?xml version="1.0" encoding="UTF-8" standalone="no"?>
<!-- Created with Inkscape (http://www.inkscape.org/) -->

<svg
   width="63.720001"
   height="83.445999"
   viewBox="0 0 16.859251 22.078418"
   version="1.1"
   id="svg1"
   xml:space="preserve"
   inkscape:version="1.3.2 (091e20e, 2023-11-25)"
   sodipodi:docname="poweredby_musl.svg"
   xmlns:inkscape="http://www.inkscape.org/namespaces/inkscape"
   xmlns:sodipodi="http://sodipodi.sourceforge.net/DTD/sodipodi-0.dtd"
   xmlns:xlink="http://www.w3.org/1999/xlink"
   xmlns="http://www.w3.org/2000/svg"
   xmlns:svg="http://www.w3.org/2000/svg"><sodipodi:namedview
     id="namedview1"
     pagecolor="#ffffff"
     bordercolor="#000000"
     borderopacity="0.25"
     inkscape:showpageshadow="2"
     inkscape:pageopacity="0.0"
     inkscape:pagecheckerboard="0"
     inkscape:deskcolor="#d1d1d1"
     inkscape:document-units="mm"
     inkscape:zoom="4.580595"
     inkscape:cx="19.757259"
     inkscape:cy="38.532112"
     inkscape:window-width="1920"
     inkscape:window-height="993"
     inkscape:window-x="0"
     inkscape:window-y="0"
     inkscape:window-maximized="1"
     inkscape:current-layer="g3" /><defs
     id="defs1"><linearGradient
       id="linear-gradient-34"
       x1="155.32001"
       y1="560.59003"
       x2="155.32001"
       y2="560.42999"
       xlink:href="#linear-gradient-13" /><linearGradient
       id="linear-gradient-13"
       x1="155.32001"
       y1="562.58002"
       x2="155.32001"
       y2="562.41998"
       gradientTransform="matrix(45.2,0,0,-212.17,-6849.43,119709.31)"
       gradientUnits="userSpaceOnUse"><stop
         offset="0"
         stop-color="#16b0ed"
         stop-opacity="0.8"
         id="stop76" /><stop
         offset="1"
         stop-color="#0f59b2"
         stop-opacity="0.84"
         id="stop77" /></linearGradient><linearGradient
       id="linear-gradient-35"
       x1="158.05"
       y1="560.59003"
       x2="158.05"
       y2="560.42999"
       xlink:href="#linear-gradient-14" /><linearGradient
       id="linear-gradient-14"
       x1="158.05"
       y1="562.58002"
       x2="158.05"
       y2="562.41998"
       gradientTransform="matrix(-46.13,0,0,-212.15,7480.38,119695.47)"
       gradientUnits="userSpaceOnUse"><stop
         offset="0"
         stop-color="#7db643"
         id="stop78" /><stop
         offset="1"
         stop-color="#367533"
         id="stop79" /></linearGradient><linearGradient
       id="linear-gradient-36"
       x1="155.08"
       y1="560.59003"
       x2="155.08"
       y2="560.42999"
       xlink:href="#linear-gradient-15" /><linearGradient
       id="linear-gradient-15"
       x1="155.08"
       y1="562.58002"
       x2="155.08"
       y2="562.41998"
       gradientTransform="matrix(150.45,0,0,-212.19,-23151.41,119720.44)"
       gradientUnits="userSpaceOnUse"><stop
         offset="0"
         stop-color="#88c649"
         stop-opacity="0.8"
         id="stop80" /><stop
         offset="1"
         stop-color="#439240"
         stop-opacity="0.84"
         id="stop81" /></linearGradient></defs><g
     inkscape:label="图层 1"
     inkscape:groupmode="layer"
     id="layer1"><g
       id="g3"
       inkscape:label="layout"><path
         class="cls-162"
         d="m 0,0 v 18.575333 a 1.1165417,3.6123448 0 0 0 1.153583,3.501044 H 15.705667 A 1.1165417,3.6123448 0 0 0 16.85925,18.575333 V 0 Z"
         id="use1"
         style="display:inline;fill:#ffffff;fill-opacity:1;stroke-width:0.475904"
         inkscape:label="bg" /><path
         class="cls-162"
         d="m 0,15.254256 v 5.74146 a 1.1165417,1.1165417 0 0 0 1.153583,1.08214 h 14.552084 a 1.1165417,1.1165417 0 0 0 1.153583,-1.08214 v -5.74146 z"
         id="path1568"
         style="fill:#000000;fill-opacity:1;stroke-width:0.264583" /><path
         class="cls-28"
         d="M 14.626166,3.5173863 V 18.752197 c 0,1.870623 -12.3930823,1.870623 -12.3930823,0 V 3.5120943 c 0,-2.1193274 12.3930823,-2.1193274 12.3930823,0.0053 z"
         id="path1569"
         style="fill:none;fill-opacity:1;stroke:#aaaaaa;stroke-width:0.100542px;stroke-linecap:round;stroke-linejoin:bevel" /></g><g
       id="g2"
       inkscape:label="poweredby"><path
         class="cls-162"
         d="m 5.3789795,14.053046 h 0.103187 c 0.100542,0 0.195792,0 0.195792,0.11113 0,0.11112 -0.108479,0.11906 -0.227542,0.11906 h -0.07144 v -0.2249 m -0.137584,-0.127 v 0.79375 h 0.137584 v -0.3175 h 0.0635 c 0.169333,0 0.375708,-0.0238 0.375708,-0.2487 0,-0.2249 -0.219604,-0.23284 -0.322792,-0.23284 h -0.264583"
         id="path1561"
         style="fill:#444444;stroke-width:0.264583" /><path
         class="cls-162"
         d="m 6.1833125,14.725086 a 0.26458333,0.26458333 0 0 0 0.283104,-0.28575 0.28045833,0.28045833 0 1 0 -0.283104,0.28575 m 0,-0.46302 c 0.07673,0 0.140229,0.0609 0.140229,0.17992 0,0.11906 -0.06085,0.17462 -0.140229,0.17462 -0.07937,0 -0.140229,-0.0609 -0.140229,-0.17462 0,-0.11377 0.0635,-0.17992 0.140229,-0.17992"
         id="path1562"
         style="fill:#444444;stroke-width:0.264583" /><polyline
         class="cls-162"
         points="172.68 807.88 172.26 809.4 171.79 807.88 171.24 807.88 172.03 809.94 172.52 809.94 172.94 808.47 173.36 809.94 173.85 809.94 174.64 807.88 174.09 807.88 173.62 809.4 173.2 807.88 172.68 807.88"
         id="polyline1562"
         style="fill:#444444"
         transform="matrix(0.26458333,0,0,0.26458333,-38.774687,-199.58478)" /><path
         class="cls-162"
         d="m 7.7549375,14.262066 c 0.06615,0 0.116417,0.0476 0.116417,0.13494 h -0.232834 a 0.127,0.127 0 0 1 0.116417,-0.13494 m 0,-0.10583 a 0.26458333,0.26458333 0 0 0 -0.264583,0.28575 0.26458333,0.26458333 0 0 0 0.298979,0.2831 0.57414583,0.57414583 0 0 0 0.1905,-0.0318 v -0.0952 a 0.89164582,0.89164582 0 0 1 -0.171979,0.0212 c -0.100542,0 -0.164042,-0.0265 -0.17198,-0.127 h 0.370417 v -0.0503 c 0,-0.16933 -0.08202,-0.28575 -0.264583,-0.28575"
         id="path1563"
         style="fill:#444444;stroke-width:0.264583" /><path
         class="cls-162"
         d="m 8.2761665,14.195926 -0.01852,-0.037 h -0.09525 v 0.5662 h 0.134938 v -0.42068 a 0.48947916,0.48947916 0 0 1 0.1269999,-0.0212 0.24870833,0.24870833 0 0 1 0.103187,0.0212 v 0 -0.11377 a 0.21166666,0.21166666 0 0 0 -0.0979,-0.0212 0.31220833,0.31220833 0 0 0 -0.1613949,0.0476"
         id="path1564"
         style="fill:#444444;stroke-width:0.264583" /><path
         class="cls-162"
         d="m 8.8476664,14.262066 c 0.06615,0 0.116417,0.0476 0.116417,0.13494 h -0.232834 a 0.127,0.127 0 0 1 0.116417,-0.13494 m 0,-0.10583 a 0.26458333,0.26458333 0 0 0 -0.264583,0.28575 0.26458333,0.26458333 0 0 0 0.291041,0.2831 0.57414583,0.57414583 0 0 0 0.1905,-0.0318 v -0.0952 a 0.89429166,0.89429166 0 0 1 -0.174625,0.0212 c -0.0979,0 -0.161395,-0.0265 -0.169333,-0.127 h 0.391583 v -0.0503 c 0,-0.16933 -0.08467,-0.28575 -0.264583,-0.28575"
         id="path1565"
         style="fill:#444444;stroke-width:0.264583" /><path
         class="cls-162"
         d="m 9.5276454,14.262066 a 0.28839583,0.28839583 0 0 1 0.0979,0.0185 v 0.31221 a 0.19314583,0.19314583 0 0 1 -0.09525,0.0265 0.14816666,0.14816666 0 0 1 -0.153458,-0.15875 c 0,-0.14023 0.06879,-0.18521 0.15875,-0.18521 m 0.0979,-0.33602 v 0.26458 a 0.333375,0.333375 0 0 0 -0.129646,-0.0238 0.26458333,0.26458333 0 0 0 -0.264584,0.28311 0.26458333,0.26458333 0 0 0 0.269875,0.26193 0.3254375,0.3254375 0 0 0 0.145521,-0.0423 v 0.0291 h 0.0979 v -0.79375 h -0.137583"
         id="path1566"
         style="fill:#444444;stroke-width:0.264583" /><path
         class="cls-162"
         d="m 10.435166,14.262066 c 0.0926,0 0.161396,0.045 0.161396,0.18521 a 0.1508125,0.1508125 0 0 1 -0.164042,0.17198 0.20108333,0.20108333 0 0 1 -0.09525,-0.0265 v -0.31221 a 0.28839583,0.28839583 0 0 1 0.0979,-0.0185 m -0.232833,-0.33602 v 0.79375 h 0.0979 v -0.0291 a 0.3254375,0.3254375 0 0 0 0.14552,0.0423 0.28575,0.28575 0 0 0 0,-0.56885 0.333375,0.333375 0 0 0 -0.129645,0.0238 v -0.26458 h -0.134938"
         id="path1567"
         style="fill:#444444;stroke-width:0.264583" /><polyline
         class="cls-162"
         points="187.3 807.88 188.23 809.96 187.76 811.05 188.34 811.05 189.6 807.88 189.06 807.88 188.5 809.46 187.89 807.88 187.3 807.88"
         id="polyline1567"
         style="fill:#444444"
         transform="matrix(0.26458333,0,0,0.26458333,-38.774687,-199.58478)" /></g><g
       id="g10"
       inkscape:label="musllibc"
       transform="matrix(0.25565158,0,0,0.25565158,5.7566324,13.903174)"
       style="fill:#ffffff;fill-opacity:1"><path
         d="m 18.673009,10.267962 c 0.06429,-0.4339166 0.322792,-0.6826249 0.775229,-0.7434791 0.566208,-0.076994 0.664104,0.017119 0.584729,0.5609171 -0.06429,0.433916 -0.322791,0.682624 -0.775229,0.743479 -0.566208,0.07699 -0.664104,-0.01712 -0.584729,-0.560917 z"
         id="path10"
         style="fill:#ffffff;fill-opacity:1" /><path
         d="m 26.557592,16.32692 c -0.508,-0.341312 -0.648229,-0.711729 -0.648229,-1.706562 0,-1.074209 0.155046,-1.420813 0.992188,-2.2225 0.846666,-0.812271 1.19327,-0.9525 2.365375,-0.9525 1.132416,0 1.341437,0.07779 1.195916,0.441854 -0.09737,0.243417 -0.177006,0.494771 -0.177006,0.560917 0,0.06429 -0.359833,0.119062 -0.801687,0.121443 -0.441855,0.0024 -0.947209,0.09684 -1.12448,0.209815 -0.605895,0.386292 -1.042458,1.516062 -0.85725,2.219854 0.160073,0.611188 0.314855,0.687917 1.190625,0.590021 0.891646,-0.09975 1.008063,-0.03836 1.008063,0.531812 0,0.5715 -0.140494,0.642938 -1.248833,0.642938 -0.685271,0 -1.539875,-0.196056 -1.897063,-0.436563 z"
         id="path9"
         style="fill:#ffffff;fill-opacity:1" /><path
         d="m 20.525092,16.321629 c -0.579437,-0.555625 -0.579437,-0.513292 0.165629,-4.101042 0.592667,-2.8574999 0.661459,-3.0162499 1.34673,-3.0162499 0.68527,0 0.711729,0.061119 0.534458,1.2038539 l -0.188383,1.203854 1.042458,-0.116946 c 1.973792,-0.220927 2.751667,1.370542 1.706562,3.4925 -0.262466,0.529167 -0.846666,1.148292 -1.299104,1.370542 -1.0795,0.534458 -2.725208,0.518583 -3.307291,-0.03228 z m 2.804584,-1.169459 c 0.616479,-0.687916 0.862541,-1.4605 0.658812,-2.069041 -0.2032,-0.613834 -1.084792,-0.685271 -1.568979,-0.12753 -0.441854,0.510646 -0.926042,2.137834 -0.727604,2.44475 0.261408,0.404813 1.172104,0.26723 1.635125,-0.249766 z"
         id="path8"
         style="fill:#ffffff;fill-opacity:1" /><path
         d="m 17.429467,16.215531 c 0,-0.473605 0.259821,-1.910292 0.748771,-4.153959 0.100013,-0.457729 0.346604,-0.629708 0.894292,-0.629708 0.635,0 0.73025,0.1016 0.60325,0.629708 -0.08308,0.346604 -0.314854,1.542521 -0.515938,2.645834 -0.330729,1.8415 -0.428625,2.029354 -1.04775,2.029354 -0.481541,0 -0.682625,-0.160073 -0.682625,-0.545042 z"
         id="path7"
         style="fill:#ffffff;fill-opacity:1" /><path
         d="m 14.820676,16.271621 c 0.01016,-0.269875 0.309562,-1.939396 0.66675,-3.704166 0.632354,-3.1485418 0.66675,-3.2279168 1.465791,-3.3072918 0.677334,-0.075142 0.79375,-0.00143 0.66675,0.4206875 -0.08467,0.2804583 -0.439208,1.9896663 -0.788458,3.8100003 -0.600604,3.122083 -0.672042,3.280833 -1.330854,3.280833 -0.47625,0 -0.693209,-0.155046 -0.679979,-0.489479 z"
         id="path6"
         style="fill:#ffffff;fill-opacity:1" /><path
         d="m 9.8729668,16.271621 c 0.01016,-0.269875 0.3095632,-1.939396 0.6667502,-3.704166 0.632354,-3.1485418 0.66675,-3.2279168 1.465792,-3.3072918 0.677333,-0.075142 0.79375,-0.00143 0.66675,0.4206875 -0.08467,0.2804583 -0.439208,1.9896663 -0.788458,3.8100003 -0.600605,3.122083 -0.672042,3.280833 -1.330855,3.280833 -0.47625,0 -0.6932082,-0.155046 -0.6799792,-0.489479 z"
         id="path5"
         style="fill:#ffffff;fill-opacity:1" /><path
         d="m 5.3485918,16.506836 c -0.383646,-0.595313 0.161925,-1.029229 1.158875,-0.918104 1.296459,0.144991 1.357313,-0.439209 0.137584,-1.30175 -1.603375,-1.135063 -0.727605,-2.831042 1.457854,-2.831042 0.973666,0 1.166812,0.0934 1.166812,0.560917 0,0.433916 -0.194468,0.560916 -0.85725,0.560916 -1.217083,0 -1.3335,0.420688 -0.312208,1.116542 1.026583,0.701146 1.182687,1.889125 0.343958,2.616729 -0.5715,0.494771 -2.804583,0.645584 -3.095625,0.208492 z"
         id="path4"
         style="fill:#ffffff;fill-opacity:1" /><path
         d="m -0.10182416,16.160232 c -0.255059,-0.457729 -0.24765,-1.095375 0.03096,-2.645834 0.351896,-1.9685 0.402167,-2.055812 1.16416696,-2.055812 h 0.799041 l -0.402166,1.844146 c -0.41275,1.891771 -0.354542,2.354791 0.301625,2.354791 0.690562,0 1.336145,-1.008062 1.672166,-2.611437 0.296334,-1.415521 0.410104,-1.5875 1.055688,-1.5875 0.695854,0 0.714375,0.04895 0.518583,1.328208 -0.518583,3.386667 -0.743479,3.995209 -1.510771,3.995209 -0.407458,0 -0.642937,-0.121973 -0.542396,-0.280459 0.09922,-0.153987 0.04895,-0.280458 -0.111389,-0.280458 -0.160602,0 -0.373063,0.125942 -0.470959,0.280458 -0.09922,0.153988 -0.627062,0.280459 -1.17475,0.280459 -0.71701996,0 -1.08743696,-0.166953 -1.33085396,-0.600605 z"
         id="path3"
         style="fill:#ffffff;fill-opacity:1" /><path
         d="m -9.1241162,14.18644 c 0.415396,-2.301875 0.545042,-2.614083 1.113896,-2.69875 0.373062,-0.05212 0.642937,0.05927 0.642937,0.264583 0,0.275167 0.07779,0.280459 0.34925,0.01947 0.508,-0.486834 2.198688,-0.418042 2.502959,0.1016 0.23151,0.396875 0.291041,0.396875 0.635,0 0.208227,-0.240506 0.817562,-0.436563 1.354666,-0.436563 1.439334,0 1.69862504,0.661459 1.267354,3.227917 -0.328083,1.947333 -0.39952,2.084917 -1.0795,2.084917 -0.695854,0 -0.719666,-0.05689 -0.550333,-1.259417 0.09895,-0.693208 0.261938,-1.574271 0.362479,-1.955271 0.132292,-0.505354 0.04736,-0.746125 -0.309562,-0.878417 -0.759354,-0.280458 -1.357313,0.518584 -1.730375,2.31775 -0.301625,1.452563 -0.425979,1.645709 -1.100667,1.722438 l -0.759354,0.08546 0.407458,-1.860021 c 0.418042,-1.912937 0.359834,-2.370666 -0.306916,-2.370666 -0.645584,0 -1.108604,0.777875 -1.457854,2.455333 -0.291042,1.404938 -0.423334,1.611313 -1.071563,1.685396 l -0.738187,0.08361 z"
         id="path2"
         style="fill:#ffffff;fill-opacity:1" /></g><path
       d="M 7.4397587,12.904234 C 6.692604,12.141972 6.2723292,10.088668 6.2723292,7.2044301 c 0,-1.9640292 0.032413,-2.2387186 0.3323744,-2.774363 0.7183128,-1.2882934 1.9228258,-1.179791 3.4610864,0.3117725 0.936692,0.9064751 1.579465,1.9228262 1.579465,2.513408 0,0.380445 -2.925443,5.3427084 -3.3649467,5.7135394 -0.3886845,0.32688 -0.4532368,0.321386 -0.8419222,-0.07678 z M 8.7610156,11.764274 9.3831872,10.730068 9.1071239,10.275457 C 8.7486542,9.6835013 8.2789357,9.6120833 8.0413285,10.112017 c -0.2101368,0.440877 -0.2430992,2.691956 -0.040518,2.691956 0.076092,0 0.418901,-0.465598 0.7608891,-1.034206 z M 9.4326313,9.4980873 C 9.2664441,9.2852026 8.949178,8.9802976 8.726679,8.8209771 8.3352468,8.5407944 8.314645,8.539421 8.0166065,8.7981788 7.6663779,9.1017106 7.5922119,9.4395786 7.9351615,9.1662626 8.2565478,8.9108009 8.8388899,9.0944326 9.2509239,9.5810433 9.6890546,10.100206 9.8456271,10.028786 9.4322193,9.4978133 Z M 8.9972478,9.6004083 C 8.6758615,9.2597946 8.0825321,9.2172176 7.958922,9.5256883 c -0.071005,0.177174 -0.036124,0.185415 0.1964036,0.04601 0.225245,-0.1348727 0.3557222,-0.1211377 0.6386524,0.06716 0.4779597,0.31864 0.5301514,0.309026 0.2032698,-0.03846 z M 9.6798519,8.9480216 C 9.2582037,8.2928871 8.6717413,7.8575045 8.2102633,7.8575045 c -0.2746899,0 -0.4202752,0.1260825 -0.585089,0.5040551 -0.2856763,0.656507 -0.2719423,0.991629 0.018679,0.4765862 0.3131459,-0.5548733 0.9229569,-0.5356449 1.5382607,0.047381 0.2623284,0.2458478 0.5274041,0.5892085 0.5878362,0.7622635 0.095043,0.269196 0.1200394,0.27881 0.1689339,0.06002 0.031863,-0.14009 -0.08845,-0.4834517 -0.267822,-0.7608887 z m 0.6056891,0.238979 c 0,-0.388685 -0.7540216,-1.4009154 -1.3583382,-1.8404182 C 7.9369468,6.6461237 7.3202696,7.0045934 7.1829249,8.3698 L 7.1088956,9.0867396 7.2750828,8.5346137 C 7.4714861,7.8794797 7.9988899,7.4935411 8.4974513,7.6377531 8.9685432,7.7741365 9.769263,8.5222523 9.9945085,9.0386686 10.203273,9.5221213 10.289799,9.5646993 10.289799,9.1870006 Z M 10.519027,8.0676421 C 9.9806372,6.8329127 8.6099358,5.7327817 7.8408063,5.9250643 7.4809623,6.0154371 7.1623229,6.577452 7.0345926,7.3534494 L 6.9391377,7.9289237 7.1602626,7.4688191 C 7.4267118,6.91532 7.9019239,6.6420035 8.3592825,6.777975 c 0.5905818,0.175801 1.414651,0.9009809 1.7854805,1.5794644 0.267822,0.4834524 0.39418,0.6001952 0.483454,0.4477432 0.06936,-0.1189404 0.02321,-0.4326358 -0.108366,-0.7347937 z M 10.800585,7.1034815 C 9.8858693,5.4004075 8.0536899,4.3153843 7.3807009,5.0570457 6.9549323,5.5253912 6.8052265,5.9456661 6.7338074,6.8699961 6.6670578,7.7380146 6.6709037,7.7517486 6.809622,7.1309512 7.0870581,5.8907281 7.7902632,5.4278765 8.8011202,5.8316699 9.3381377,6.0445542 10.394318,7.15842 10.723947,7.8506375 10.962926,8.3574394 10.9643,8.3588128 11.016492,7.9693027 11.045062,7.7550449 10.951662,7.3622393 10.809101,7.0971641 Z M 11.215366,6.6365099 C 10.554738,5.2081249 8.9079744,3.7934744 7.9053578,3.7934744 c -0.7581427,0 -1.4283851,0.9655333 -1.4009159,2.0327017 0.00539,0.2952911 0.048343,0.2527143 0.2252455,-0.2170047 C 6.8497262,5.2891583 6.9494387,5.0130954 6.9508123,4.9952406 6.9520523,4.9772486 7.1691901,4.855149 7.4315183,4.7246715 7.8353119,4.5241482 8.0056193,4.5145341 8.5192881,4.6619045 9.2430955,4.8706685 10.565726,6.104024 10.991494,6.969296 11.385673,7.7768832 11.601305,7.4692309 11.22086,6.6437887 Z m -4.7658619,0.097515 c -0.038454,-0.1414652 -0.072381,-0.06084 -0.075403,0.1785477 -0.00312,0.2403541 0.028291,0.355723 0.069771,0.2568349 0.041476,-0.098339 0.043952,-0.2939175 0.00562,-0.4353826 z"
       id="path1"
       inkscape:label="logo"
       style="stroke-width:0.519098" /></g></svg>
