<?xml version="1.0" encoding="UTF-8" standalone="no"?>
<svg
   id="svg2"
   viewBox="0 0 478.35 478.35"
   version="1.1"
   sodipodi:docname="dvd.svg"
   inkscape:version="1.4 (e7c3feb100, 2024-10-09)"
   xml:space="preserve"
   xmlns:inkscape="http://www.inkscape.org/namespaces/inkscape"
   xmlns:sodipodi="http://sodipodi.sourceforge.net/DTD/sodipodi-0.dtd"
   xmlns="http://www.w3.org/2000/svg"
   xmlns:svg="http://www.w3.org/2000/svg"
   xmlns:rdf="http://www.w3.org/1999/02/22-rdf-syntax-ns#"
   xmlns:cc="http://creativecommons.org/ns#"
   xmlns:dc="http://purl.org/dc/elements/1.1/"><defs
     id="defs1"><rect
       x="152.0845"
       y="394.91753"
       width="186.16003"
       height="40.531954"
       id="rect6" /><rect
       x="172.46978"
       y="340.37418"
       width="198.95399"
       height="57.754069"
       id="rect5" /><rect
       x="216.28998"
       y="95.770191"
       width="120.87848"
       height="42.325403"
       id="rect1" /></defs><sodipodi:namedview
     id="namedview1"
     pagecolor="#ffffff"
     bordercolor="#000000"
     borderopacity="0.25"
     inkscape:showpageshadow="2"
     inkscape:pageopacity="0.0"
     inkscape:pagecheckerboard="0"
     inkscape:deskcolor="#d1d1d1"
     inkscape:zoom="0.98567993"
     inkscape:cx="6.5944327"
     inkscape:cy="139.49762"
     inkscape:window-width="2194"
     inkscape:window-height="1158"
     inkscape:window-x="0"
     inkscape:window-y="0"
     inkscape:window-maximized="1"
     inkscape:current-layer="svg2" /><title
     id="title3014">EtiquetaCD_CC0</title><g
     id="layer2"
     style="display:inline"><g
       id="g3794"
       transform="translate(-132.87,-287.01)"><rect
         id="rect3765"
         style="color:#000000"
         height="23.74"
         width="23.74"
         stroke="#000000"
         y="514.31"
         x="360.17999"
         stroke-width="1.063"
         fill="none" /><path
         id="path3767"
         d="m 110,27.346 a 11.5,11 0 1 1 -23,0 11.5,11 0 1 1 23,0 z"
         style="color:#000000"
         transform="matrix(0.77028,0,0,0.8053,296.17,504.16)" /><path
         id="path3773"
         style="color:#000000"
         d="m 372.05,508.99 v 34.38"
         stroke="#000000"
         stroke-width="1.063"
         fill="none" /><path
         id="path3792"
         style="color:#000000"
         d="M 389.24,526.18 H 354.86"
         stroke="#000000"
         stroke-width="1.063"
         fill="none" /></g><g
       id="g3800"
       transform="translate(-339.62,-493.76)"><rect
         id="rect3802"
         style="color:#000000"
         height="23.74"
         width="23.74"
         stroke="#000000"
         y="514.31"
         x="360.17999"
         stroke-width="1.063"
         fill="none" /><path
         id="path3804"
         d="m 110,27.346 a 11.5,11 0 1 1 -23,0 11.5,11 0 1 1 23,0 z"
         style="color:#000000"
         transform="matrix(0.77028,0,0,0.8053,296.17,504.16)" /><path
         id="path3806"
         style="color:#000000"
         d="m 372.05,508.99 v 34.38"
         stroke="#000000"
         stroke-width="1.063"
         fill="none" /><path
         id="path3808"
         style="color:#000000"
         d="M 389.24,526.18 H 354.86"
         stroke="#000000"
         stroke-width="1.063"
         fill="none" /></g><g
       id="g3810"
       transform="translate(-339.62,-80.261)"><rect
         id="rect3812"
         style="color:#000000"
         height="23.74"
         width="23.74"
         stroke="#000000"
         y="514.31"
         x="360.17999"
         stroke-width="1.063"
         fill="none" /><path
         id="path3814"
         d="m 110,27.346 a 11.5,11 0 1 1 -23,0 11.5,11 0 1 1 23,0 z"
         style="color:#000000"
         transform="matrix(0.77028,0,0,0.8053,296.17,504.16)" /><path
         id="path3816"
         style="color:#000000"
         d="m 372.05,508.99 v 34.38"
         stroke="#000000"
         stroke-width="1.063"
         fill="none" /><path
         id="path3818"
         style="color:#000000"
         d="M 389.24,526.18 H 354.86"
         stroke="#000000"
         stroke-width="1.063"
         fill="none" /></g><g
       id="g3820"
       transform="translate(73.883,-80.261)"><rect
         id="rect3822"
         style="color:#000000"
         height="23.74"
         width="23.74"
         stroke="#000000"
         y="514.31"
         x="360.17999"
         stroke-width="1.063"
         fill="none" /><path
         id="path3824"
         d="m 110,27.346 a 11.5,11 0 1 1 -23,0 11.5,11 0 1 1 23,0 z"
         style="color:#000000"
         transform="matrix(0.77028,0,0,0.8053,296.17,504.16)" /><path
         id="path3826"
         style="color:#000000"
         d="m 372.05,508.99 v 34.38"
         stroke="#000000"
         stroke-width="1.063"
         fill="none" /><path
         id="path3828"
         style="color:#000000"
         d="M 389.24,526.18 H 354.86"
         stroke="#000000"
         stroke-width="1.063"
         fill="none" /></g><g
       id="g3832"
       transform="translate(73.878,-493.76)"><rect
         id="rect3834"
         style="color:#000000"
         height="23.74"
         width="23.74"
         stroke="#000000"
         y="514.31"
         x="360.17999"
         stroke-width="1.063"
         fill="none" /><path
         id="path3836"
         d="m 110,27.346 a 11.5,11 0 1 1 -23,0 11.5,11 0 1 1 23,0 z"
         style="color:#000000"
         transform="matrix(0.77028,0,0,0.8053,296.17,504.16)" /><path
         id="path3838"
         style="color:#000000"
         d="m 372.05,508.99 v 34.38"
         stroke="#000000"
         stroke-width="1.063"
         fill="none" /><path
         id="path3840"
         style="color:#000000"
         d="M 389.24,526.18 H 354.86"
         stroke="#000000"
         stroke-width="1.063"
         fill="none" /></g></g><g
     id="layer1"
     transform="translate(-132.87,-287.01)"
     style="display:inline"><path
       id="path2985"
       style="color:#000000;fill:#ffffff;fill-opacity:1"
       d="m 239.19,32.406 c -114.19,0 -206.78,92.595 -206.78,206.78 0,114.19 92.595,206.75 206.78,206.75 114.19,0 206.75,-92.564 206.75,-206.75 C 445.94,125 353.376,32.406 239.19,32.406 Z m 0,127.56 c 43.737,0 79.188,35.482 79.188,79.219 0,43.737 -35.45,79.188 -79.188,79.188 -43.737,0 -79.219,-35.45 -79.219,-79.188 0,-43.737 35.482,-79.219 79.219,-79.219 z"
       transform="translate(132.87,287.01)"
       stroke="#000000"
       stroke-width="1.063"
       fill="#808080" /></g><g
     id="layer3"
     fill="none"
     style="display:inline"><path
       id="path3761"
       style="color:#000000"
       d="m 568.57,492.36 a 350,262.86 0 1 1 -700,0 350,262.86 0 1 1 700,0 z"
       transform="matrix(0.60591,0,0,0.80678,106.74,-158.05)"
       stroke="#ff0000"
       stroke-dasharray="12.163, 6.0815"
       stroke-width="1.5204" /><path
       id="path3763"
       style="color:#000000"
       d="m 568.57,492.36 a 350,262.86 0 1 1 -700,0 350,262.86 0 1 1 700,0 z"
       transform="matrix(0.57553,0,0,0.76634,113.38,-138.14)"
       stroke="#00ffff"
       stroke-dasharray="12.8049, 6.40243"
       stroke-width="1.6006" /><path
       id="path3769"
       style="color:#000000"
       d="m 568.57,492.36 a 350,262.86 0 1 1 -700,0 350,262.86 0 1 1 700,0 z"
       transform="matrix(0.21108,0,0,0.28106,193.04,100.79)"
       stroke="#ff0000"
       stroke-dasharray="34.914, 17.457"
       stroke-width="4.3642" /><path
       id="path3771"
       style="color:#000000"
       d="m 568.57,492.36 a 350,262.86 0 1 1 -700,0 350,262.86 0 1 1 700,0 z"
       transform="matrix(0.24145,0,0,0.3215,186.4,80.88)"
       stroke="#00ffff"
       stroke-dasharray="30.5223, 15.2611"
       stroke-width="3.8153" /></g><metadata
     id="metadata1"><rdf:RDF><cc:Work><dc:format>image/svg+xml</dc:format><dc:type
           rdf:resource="http://purl.org/dc/dcmitype/StillImage" /><cc:license
           rdf:resource="http://creativecommons.org/licenses/publicdomain/" /><dc:publisher><cc:Agent
             rdf:about="http://openclipart.org/"><dc:title>Openclipart</dc:title></cc:Agent></dc:publisher><dc:title>EtiquetaCD_CC0</dc:title><dc:date>2012-01-23T14:30:05</dc:date><dc:description>CD label template for printing, the top layers contain some print marks, and bleeding and security borders (bleed and security marks must be removed before printing)
\n//-//
\nPlantilla para etiqueta de CD, las capas superiores contienen algunas marcas de impresión, sangrado y márgenes de seguridad (las marcas de sangría y seguridad deben elimarse antes de imprimir)</dc:description><dc:source>http://openclipart.org/detail/167401/cd-label-template-by-mardigann</dc:source><dc:creator><cc:Agent><dc:title>Mardigann</dc:title></cc:Agent></dc:creator><dc:subject><rdf:Bag><rdf:li>CD</rdf:li><rdf:li>clip art</rdf:li><rdf:li>clipart</rdf:li><rdf:li>etiqueta</rdf:li><rdf:li>impresion</rdf:li><rdf:li>label</rdf:li><rdf:li>plantilla</rdf:li><rdf:li>printing</rdf:li><rdf:li>template</rdf:li></rdf:Bag></dc:subject></cc:Work><cc:License
         rdf:about="http://creativecommons.org/licenses/publicdomain/"><cc:permits
           rdf:resource="http://creativecommons.org/ns#Reproduction" /><cc:permits
           rdf:resource="http://creativecommons.org/ns#Distribution" /><cc:permits
           rdf:resource="http://creativecommons.org/ns#DerivativeWorks" /></cc:License></rdf:RDF></metadata><g
     id="g3"
     transform="matrix(1.2951386,0,0,1.2951386,-94.148268,-201.01937)"><g
       id="g1"
       transform="matrix(1.3653496,0,0,1.3653496,175.74871,212.1834)"><path
         class="path"
         fill="#ffac33"
         d="m 11.983,3.562 c 4.543,-0.262 7.824,1.597 8.089,6.826 0.215,4.19 -5.184,6.79 -8.046,6.879 -2.462,0.077 -1.353,-1.852 0.61,-2.334 1.576,-0.387 4.124,-2.413 3.602,-4.44 C 15.641,8.173 11.923,7.809 9.887,10.785 9.089,11.952 6.333,11.658 5.791,10.351 4.833,8.042 7.002,3.849 11.983,3.562 Z"
         id="path1" /><path
         class="path"
         fill="#e1e8ed"
         d="m 35.75,21.384 c 0,-7.783 -4.495,-11.407 -14.519,-11.407 -1.087,0 -2.083,0.051 -3.018,0.137 C 16.853,7.691 13.368,7.286 10,7.286 c -4.304,0 -10,6.145 -10,10.839 0,4.608 3.606,4.866 7.811,4.874 0.233,3.245 1.226,5.647 3.249,7.26 0.277,1.15 1.534,5.741 3.94,5.741 1.353,0 2.099,-1.695 2.51,-3.417 1.128,0.136 2.359,0.209 3.722,0.209 1.733,0 3.288,-0.116 4.695,-0.335 C 26.017,34.114 26.458,36 28,36 c 2.317,0 4.273,-4.956 4.834,-6.521 1.969,-1.87 2.916,-4.545 2.916,-8.095 z"
         id="path2" /><circle
         class="path"
         fill="#292f33"
         cx="4.5"
         cy="15.786"
         r="1.5"
         id="circle2" /><path
         class="path"
         fill="#ffcc4d"
         d="m 17.562,4.339 c 4.312,1.455 5.74,4.148 4.034,9.099 -1.367,3.967 -7.345,4.361 -10.034,3.375 C 9.25,15.964 11,14.589 13,14.875 c 1.606,0.23 4.727,-0.698 5,-2.773 C 18.312,9.727 15,8 12,10 10.823,10.785 6.226,10.43 6.5,9.042 7.138,5.816 12.835,2.744 17.562,4.339 Z"
         id="path3" /><path
         fill="#dd2e44"
         class="nopath"
         transform="matrix(0.3,0,0,0.3,9,3.9)"
         d="m 19.281,6.392 c 0,0.405 -2.37,0.405 -2.37,0 C 16.911,5.492 2,-3.507 2,3.692 v 13.499 c 0,2.487 3.476,1.947 7.193,0.361 -1.429,3.525 -4.498,9.68 -7.05,13.934 -0.229,0.382 -0.178,0.868 0.124,1.194 0.303,0.325 0.783,0.415 1.181,0.215 l 5.258,-2.629 c 0.441,0.726 0.931,1.868 1.376,2.906 0.333,0.778 0.678,1.582 1.024,2.275 0.144,0.287 0.417,0.488 0.734,0.54 C 11.893,35.996 11.947,36 12,36 c 0.263,0 0.518,-0.104 0.707,-0.293 1.42,-1.419 3.429,-8.395 4.793,-14.093 1.364,5.698 3.373,12.674 4.793,14.093 C 22.481,35.896 22.737,36 23,36 c 0.053,0 0.106,-0.004 0.16,-0.013 0.317,-0.052 0.591,-0.253 0.734,-0.54 0.347,-0.693 0.691,-1.497 1.024,-2.275 0.445,-1.038 0.935,-2.181 1.376,-2.906 l 5.258,2.629 c 0.398,0.198 0.879,0.111 1.181,-0.215 0.303,-0.326 0.352,-0.812 0.124,-1.194 C 30.122,26.928 26.796,20.19 25.529,16.843 29.652,18.933 34,20.02 34,17.19 V 3.691 C 34,-3.507 19.281,5.492 19.281,6.392 Z"
         id="path4" /><path
         fill="#a0041e"
         class="nopath"
         transform="matrix(0.3,0,0,0.3,9,3.9)"
         d="m 2.114,17.869 c 1.177,3.199 11.468,-1.787 14.86,-5.179 0.31,-0.31 0.549,-0.602 0.758,-0.885 C 7.286,12.057 3.19,15.662 2.114,17.869 Z m 16.482,-6.068 c 0.212,0.285 0.453,0.578 0.765,0.89 3.6,3.6 14.639,8.999 14.639,4.5 V 16.982 C 32.329,14.783 27.963,11.96 18.596,11.801 Z"
         id="path5" /><path
         fill="#ea596e"
         class="nopath"
         transform="matrix(0.3,0,0,0.3,9,3.9)"
         d="M 22,11.4 C 22,13.388 20.389,15 18.401,15 H 16.599 C 14.611,15 13,13.388 13,11.4 V 7.6 C 13,5.612 14.611,4 16.599,4 h 1.802 C 20.389,4 22,5.612 22,7.6 Z"
         id="path6" /></g><text
       xml:space="preserve"
       id="text1"
       style="font-weight:bold;font-size:32px;line-height:1.2;font-family:'Open Sans';-inkscape-font-specification:'Open Sans Bold';text-align:center;writing-mode:lr-tb;direction:ltr;white-space:pre;shape-inside:url(#rect1);display:inline;fill:#000000;fill-opacity:1;stroke-width:0.377953"
       transform="translate(4.8856793,127.2269)"><tspan
         x="227.36133"
         y="123.3231"
         id="tspan3"><tspan
           style="font-weight:500;font-family:Roboto;-inkscape-font-specification:'Roboto Medium'"
           id="tspan1">ewe</tspan><tspan
           style="font-weight:300;font-family:Roboto;-inkscape-font-specification:'Roboto Light'"
           id="tspan2">OS</tspan></tspan></text></g><text
     xml:space="preserve"
     transform="translate(107.73396,-118.69948)"
     id="text5"
     style="font-style:normal;font-variant:normal;font-weight:500;font-stretch:normal;font-size:16px;line-height:1.2;font-family:Roboto;-inkscape-font-specification:'Roboto Medium';text-align:center;writing-mode:lr-tb;direction:ltr;white-space:pre;shape-inside:url(#rect5);display:inline;fill:#000000;fill-opacity:1;stroke-width:0.377953"><tspan
       x="243.43555"
       y="353.975"
       id="tspan6"><tspan
         style="font-weight:350;-inkscape-font-specification:'Roboto Semi-Light'"
         id="tspan5">2024.11
</tspan></tspan><tspan
       x="219.33672"
       y="373.17501"
       id="tspan8"><tspan
         style="font-size:13.3333px"
         id="tspan7">LiveCD &amp; Installer</tspan></tspan></text><text
     xml:space="preserve"
     style="font-style:normal;font-variant:normal;font-weight:500;font-stretch:normal;font-size:17.3333px;line-height:1.2;font-family:Roboto;-inkscape-font-specification:'Roboto Medium';text-align:center;writing-mode:lr-tb;direction:ltr;text-anchor:middle;display:inline;fill:#000000;fill-opacity:1;stroke-width:0.377953"
     x="95.843849"
     y="244.99368"
     id="text4"><tspan
       sodipodi:role="line"
       id="tspan4"
       x="95.843849"
       y="244.99368"
       style="font-style:normal;font-variant:normal;font-weight:500;font-stretch:normal;font-size:17.3333px;font-family:Roboto;-inkscape-font-specification:'Roboto Medium'">x86_64</tspan></text><text
     xml:space="preserve"
     id="text6"
     style="font-style:normal;font-variant:normal;font-weight:350;font-stretch:normal;font-size:8px;line-height:1.2;font-family:Roboto;-inkscape-font-specification:'Roboto Semi-Light';text-align:center;writing-mode:lr-tb;direction:ltr;white-space:pre;shape-inside:url(#rect6);display:inline;fill:#000000;fill-opacity:1;stroke-width:0.377953"
     transform="translate(-6.1648407,2)"><tspan
       x="168.43555"
       y="401.71797"
       id="tspan9">Legally free to copy, modify and redistribute.
</tspan><tspan
       x="163.55273"
       y="411.31798"
       id="tspan10">eweOS has ABSOLUTLY NO WARRANTY, to the </tspan><tspan
       x="203.60742"
       y="420.91798"
       id="tspan11">extent permitted by law.
</tspan><tspan
       x="223.98828"
       y="430.51799"
       id="tspan12">os.ewe.moe</tspan></text><g
     id="g2"
     transform="matrix(0.03863923,0,0,0.03863923,218.72853,367.9688)"><path
       d="m 91.053,0 -13.719,57.707 102.28,0.03906 h 24 c 65.747,0 105.91,26.44 94.746,73.4 -12.147,51.133 -69.613,73.4 -130.67,73.4 H 144.743 L 174.53,79.096063 H 72.26 L 28.739,262.29606 h 145.05 c 109.07,0 212.76,-57.573 231.01,-131.15 3.3467,-13.507 2.8806,-47.252997 -5.3594,-67.358997 -0.21299,-0.787 -0.42594,-1.4 -1.1855,-3 -0.293,-0.653 -0.56012,-3.6412 1.1465,-4.2812 0.947,-0.36 2.7069,1.4944 2.9336,2.041 0.853,2.24 1.5059,3.9062 1.5059,3.9062 l 92.293,260.599997 234.97,-265.209997 99.535,-0.08984 h 24 c 65.76,0 106.25,26.44 95.092,73.399997 -12.147,51.133 -69.947,73.4 -131,73.4 h -22.959 l 29.799,-125.469997 h -102.27 l -43.533,183.209997 h 145.07 c 109.05,0 213.48,-57.4 231,-131.15 17.52,-73.749997 -59.107,-131.149997 -168.69,-131.149997 h -216.4 c 0,0 -57.319,67.88 -67.959,80.693 -57.12,68.786997 -67.241,87.225997 -68.961,91.985997 0.24,-4.8 -1.8138,-23.412 -26.174,-92.958997 -6.48,-18.52 -27.359,-79.721 -27.359,-79.721 h -389.25 z m 408.77,324.16 c -276.04,0 -499.83,31.72 -499.83,70.84 0,39.12 223.79,70.84 499.83,70.84 276.04,0 499.83,-31.72 499.83,-70.84 0,-39.12 -223.79,-70.84 -499.83,-70.84 z m -18.094,48.627 c 63.04,0 114.13,10.573 114.13,23.613 0,13.04 -51.095,23.613 -114.13,23.613 -63.027,0 -114.13,-10.573 -114.13,-23.613 0,-13.04 51.106,-23.613 114.13,-23.613 z"
       id="path1-2" /><path
       d="m 963.6,445.05 -0.73242,5.1738 h 13.08 l -5.1074,36.32 h 5.7207 l 5.1055,-36.32 h 11.68 l 0.72071,-5.1738 h -30.467 z m 41.215,0 -13.693,41.494 h 5.4785 l 10.215,-31.76 h 0.1328 l 7.1718,31.76 16.668,-31.453 h 0.1191 v 31.453 h 5.4805 V 445.05 h -5.4805 l -14.906,28.107 -6.4395,-28.107 h -4.746 z"
       display="none"
       id="path2-9" /></g></svg>
