<?xml version="1.0" encoding="UTF-8" standalone="no"?>
<!-- Created with Inkscape (http://www.inkscape.org/) -->

<svg
   width="63.720001"
   height="83.445999"
   viewBox="0 0 16.859251 22.078418"
   version="1.1"
   id="svg1"
   xml:space="preserve"
   inkscape:version="1.4 (e7c3feb100, 2024-10-09)"
   sodipodi:docname="poweredby_limine_clip.svg"
   inkscape:export-filename="../png/poweredby_limine_clip.png"
   inkscape:export-xdpi="2000"
   inkscape:export-ydpi="2000"
   xmlns:inkscape="http://www.inkscape.org/namespaces/inkscape"
   xmlns:sodipodi="http://sodipodi.sourceforge.net/DTD/sodipodi-0.dtd"
   xmlns:xlink="http://www.w3.org/1999/xlink"
   xmlns="http://www.w3.org/2000/svg"
   xmlns:svg="http://www.w3.org/2000/svg"><sodipodi:namedview
     id="namedview1"
     pagecolor="#ffffff"
     bordercolor="#000000"
     borderopacity="0.25"
     inkscape:showpageshadow="2"
     inkscape:pageopacity="0.0"
     inkscape:pagecheckerboard="0"
     inkscape:deskcolor="#d1d1d1"
     inkscape:document-units="mm"
     inkscape:zoom="12.955879"
     inkscape:cx="24.737804"
     inkscape:cy="53.296268"
     inkscape:window-width="2194"
     inkscape:window-height="1158"
     inkscape:window-x="0"
     inkscape:window-y="0"
     inkscape:window-maximized="1"
     inkscape:current-layer="layer1" /><defs
     id="defs1"><linearGradient
       id="linear-gradient-34"
       x1="155.32001"
       y1="560.59003"
       x2="155.32001"
       y2="560.42999"
       xlink:href="#linear-gradient-13" /><linearGradient
       id="linear-gradient-13"
       x1="155.32001"
       y1="562.58002"
       x2="155.32001"
       y2="562.41998"
       gradientTransform="matrix(45.2,0,0,-212.17,-6849.43,119709.31)"
       gradientUnits="userSpaceOnUse"><stop
         offset="0"
         stop-color="#16b0ed"
         stop-opacity="0.8"
         id="stop76" /><stop
         offset="1"
         stop-color="#0f59b2"
         stop-opacity="0.84"
         id="stop77" /></linearGradient><linearGradient
       id="linear-gradient-35"
       x1="158.05"
       y1="560.59003"
       x2="158.05"
       y2="560.42999"
       xlink:href="#linear-gradient-14" /><linearGradient
       id="linear-gradient-14"
       x1="158.05"
       y1="562.58002"
       x2="158.05"
       y2="562.41998"
       gradientTransform="matrix(-46.13,0,0,-212.15,7480.38,119695.47)"
       gradientUnits="userSpaceOnUse"><stop
         offset="0"
         stop-color="#7db643"
         id="stop78" /><stop
         offset="1"
         stop-color="#367533"
         id="stop79" /></linearGradient><linearGradient
       id="linear-gradient-36"
       x1="155.08"
       y1="560.59003"
       x2="155.08"
       y2="560.42999"
       xlink:href="#linear-gradient-15" /><linearGradient
       id="linear-gradient-15"
       x1="155.08"
       y1="562.58002"
       x2="155.08"
       y2="562.41998"
       gradientTransform="matrix(150.45,0,0,-212.19,-23151.41,119720.44)"
       gradientUnits="userSpaceOnUse"><stop
         offset="0"
         stop-color="#88c649"
         stop-opacity="0.8"
         id="stop80" /><stop
         offset="1"
         stop-color="#439240"
         stop-opacity="0.84"
         id="stop81" /></linearGradient></defs><g
     inkscape:label="图层 1"
     inkscape:groupmode="layer"
     id="layer1"><g
       id="g3"
       inkscape:label="layout"><path
         id="use1"
         style="display:inline;fill:#ffffff;fill-opacity:1;stroke-width:0.475904"
         class="cls-162"
         inkscape:label="bg"
         d="M 8.4294596 1.9233968 C 5.3311891 1.9227343 2.2329386 2.4522666 2.2329386 3.5119303 L 2.2329386 18.752344 C 2.2329386 20.622967 14.625981 20.622967 14.625981 18.752344 L 14.625981 3.5176147 C 14.625981 2.455301 11.52773 1.9240593 8.4294596 1.9233968 z " /><path
         id="path1568"
         style="fill:#6a4ad6;fill-opacity:1;stroke-width:0.265;stroke-dasharray:none"
         class="cls-162"
         d="M 2.2329386 15.254366 L 2.2329386 18.752344 C 2.2329386 20.622967 14.625981 20.622967 14.625981 18.752344 L 14.625981 15.254366 L 2.2329386 15.254366 z " /><path
         class="cls-28"
         d="M 14.626166,3.5173863 V 18.752197 c 0,1.870623 -12.3930823,1.870623 -12.3930823,0 V 3.5120943 c 0,-2.1193274 12.3930823,-2.1193274 12.3930823,0.0053 z"
         id="path1"
         style="fill:none;fill-opacity:1;stroke:#aaaaaa;stroke-width:0.100542px;stroke-linecap:round;stroke-linejoin:bevel" /></g><g
       id="g2"
       inkscape:label="poweredby"
       transform="translate(0.11906423)"><path
         class="cls-162"
         d="m 5.3789795,14.053046 h 0.103187 c 0.100542,0 0.195792,0 0.195792,0.11113 0,0.11112 -0.108479,0.11906 -0.227542,0.11906 h -0.07144 v -0.2249 m -0.137584,-0.127 v 0.79375 h 0.137584 v -0.3175 h 0.0635 c 0.169333,0 0.375708,-0.0238 0.375708,-0.2487 0,-0.2249 -0.219604,-0.23284 -0.322792,-0.23284 h -0.264583"
         id="path1561"
         style="fill:#444444;stroke-width:0.264583" /><path
         class="cls-162"
         d="m 6.1833125,14.725086 a 0.26458333,0.26458333 0 0 0 0.283104,-0.28575 0.28045833,0.28045833 0 1 0 -0.283104,0.28575 m 0,-0.46302 c 0.07673,0 0.140229,0.0609 0.140229,0.17992 0,0.11906 -0.06085,0.17462 -0.140229,0.17462 -0.07937,0 -0.140229,-0.0609 -0.140229,-0.17462 0,-0.11377 0.0635,-0.17992 0.140229,-0.17992"
         id="path1562"
         style="fill:#444444;stroke-width:0.264583" /><polyline
         class="cls-162"
         points="172.68 807.88 172.26 809.4 171.79 807.88 171.24 807.88 172.03 809.94 172.52 809.94 172.94 808.47 173.36 809.94 173.85 809.94 174.64 807.88 174.09 807.88 173.62 809.4 173.2 807.88 172.68 807.88"
         id="polyline1562"
         style="fill:#444444"
         transform="matrix(0.26458333,0,0,0.26458333,-38.774687,-199.58478)" /><path
         class="cls-162"
         d="m 7.7549375,14.262066 c 0.06615,0 0.116417,0.0476 0.116417,0.13494 h -0.232834 a 0.127,0.127 0 0 1 0.116417,-0.13494 m 0,-0.10583 a 0.26458333,0.26458333 0 0 0 -0.264583,0.28575 0.26458333,0.26458333 0 0 0 0.298979,0.2831 0.57414583,0.57414583 0 0 0 0.1905,-0.0318 v -0.0952 a 0.89164582,0.89164582 0 0 1 -0.171979,0.0212 c -0.100542,0 -0.164042,-0.0265 -0.17198,-0.127 h 0.370417 v -0.0503 c 0,-0.16933 -0.08202,-0.28575 -0.264583,-0.28575"
         id="path1563"
         style="fill:#444444;stroke-width:0.264583" /><path
         class="cls-162"
         d="m 8.2761665,14.195926 -0.01852,-0.037 h -0.09525 v 0.5662 h 0.134938 v -0.42068 a 0.48947916,0.48947916 0 0 1 0.1269999,-0.0212 0.24870833,0.24870833 0 0 1 0.103187,0.0212 v 0 -0.11377 a 0.21166666,0.21166666 0 0 0 -0.0979,-0.0212 0.31220833,0.31220833 0 0 0 -0.1613949,0.0476"
         id="path1564"
         style="fill:#444444;stroke-width:0.264583" /><path
         class="cls-162"
         d="m 8.8476664,14.262066 c 0.06615,0 0.116417,0.0476 0.116417,0.13494 h -0.232834 a 0.127,0.127 0 0 1 0.116417,-0.13494 m 0,-0.10583 a 0.26458333,0.26458333 0 0 0 -0.264583,0.28575 0.26458333,0.26458333 0 0 0 0.291041,0.2831 0.57414583,0.57414583 0 0 0 0.1905,-0.0318 v -0.0952 a 0.89429166,0.89429166 0 0 1 -0.174625,0.0212 c -0.0979,0 -0.161395,-0.0265 -0.169333,-0.127 h 0.391583 v -0.0503 c 0,-0.16933 -0.08467,-0.28575 -0.264583,-0.28575"
         id="path1565"
         style="fill:#444444;stroke-width:0.264583" /><path
         class="cls-162"
         d="m 9.5276454,14.262066 a 0.28839583,0.28839583 0 0 1 0.0979,0.0185 v 0.31221 a 0.19314583,0.19314583 0 0 1 -0.09525,0.0265 0.14816666,0.14816666 0 0 1 -0.153458,-0.15875 c 0,-0.14023 0.06879,-0.18521 0.15875,-0.18521 m 0.0979,-0.33602 v 0.26458 a 0.333375,0.333375 0 0 0 -0.129646,-0.0238 0.26458333,0.26458333 0 0 0 -0.264584,0.28311 0.26458333,0.26458333 0 0 0 0.269875,0.26193 0.3254375,0.3254375 0 0 0 0.145521,-0.0423 v 0.0291 h 0.0979 v -0.79375 h -0.137583"
         id="path1566"
         style="fill:#444444;stroke-width:0.264583" /><path
         class="cls-162"
         d="m 10.435166,14.262066 c 0.0926,0 0.161396,0.045 0.161396,0.18521 a 0.1508125,0.1508125 0 0 1 -0.164042,0.17198 0.20108333,0.20108333 0 0 1 -0.09525,-0.0265 v -0.31221 a 0.28839583,0.28839583 0 0 1 0.0979,-0.0185 m -0.232833,-0.33602 v 0.79375 h 0.0979 v -0.0291 a 0.3254375,0.3254375 0 0 0 0.14552,0.0423 0.28575,0.28575 0 0 0 0,-0.56885 0.333375,0.333375 0 0 0 -0.129645,0.0238 v -0.26458 h -0.134938"
         id="path1567"
         style="fill:#444444;stroke-width:0.264583" /><polyline
         class="cls-162"
         points="187.3 807.88 188.23 809.96 187.76 811.05 188.34 811.05 189.6 807.88 189.06 807.88 188.5 809.46 187.89 807.88 187.3 807.88"
         id="polyline1567"
         style="fill:#444444"
         transform="matrix(0.26458333,0,0,0.26458333,-38.774687,-199.58478)" /></g><g
       id="g1"
       transform="matrix(0.09704413,0,0,0.09704413,0.72910421,-0.76756653)"
       inkscape:label="limine"><path
         d="m 53.177116,54.048897 v 1.090373 1.090373 h -1.090373 -1.090889 v 34.898128 34.898649 h 1.090889 1.090373 v 1.09037 1.09037 h 1.090373 1.090889 v 1.09089 1.09037 h 1.090373 1.090373 v 1.09089 1.09038 h 25.083223 25.083223 v -1.09038 -1.09089 h 1.09037 1.09089 v -8.72453 -8.72453 h -1.09089 -1.09037 v -1.09037 -1.09089 h -1.09037 -1.09089 v -1.09038 -1.09037 h -1.09037 -1.09089 v -1.09089 -1.09037 H 90.256506 77.16945 V 83.494128 60.592167 H 76.079077 74.988188 V 59.501278 58.410905 H 73.897815 72.807442 V 57.320532 56.229643 H 71.716553 70.62618 V 55.13927 54.048897 h -8.724532 z"
         style="display:inline;fill:#aaaaaa;fill-opacity:1"
         id="path11" /><path
         d="M 24.822257,40.961841 V 95.490295 150.01875 H 79.350712 133.87917 V 95.490295 40.961841 H 79.350712 Z m 28.354859,13.087056 h 8.724532 8.724532 v 1.090373 1.090373 h 1.090373 1.090889 v 1.090889 1.090373 h 1.090373 1.090373 v 1.090373 1.090889 h 1.090889 1.090373 v 22.901961 22.901962 h 13.087056 13.086544 v 1.09037 1.09089 h 1.09089 1.09037 v 1.09037 1.09038 h 1.09089 1.09037 v 1.09089 1.09037 h 1.09037 1.09089 v 8.72453 8.72453 h -1.09089 -1.09037 v 1.09089 1.09038 H 82.622347 57.539124 v -1.09038 -1.09089 h -1.090373 -1.090373 v -1.09037 -1.09089 h -1.090889 -1.090373 v -1.09037 -1.09037 H 52.086743 50.995854 V 91.127771 56.229643 h 1.090889 1.090373 V 55.13927 Z"
         style="display:inline;fill:none"
         id="path10" /><path
         d="m 70.62618,56.229643 h -8.724532 -8.724532 v 34.898128 34.898649 h 25.083223 25.082711 v -8.72454 -8.72453 H 88.075244 72.807442 v -1.09089 -1.09037 H 71.716553 70.62618 V 81.312866 Z"
         style="display:inline;fill:#9076de;fill-opacity:1"
         id="path5" /><g
         id="g9"><path
           d="M 53.177116,126.02642 V 91.127771 56.229643 h -1.090373 -1.090889 v 34.898128 34.898649 h 1.090889 z"
           style="display:inline"
           id="path9" /><path
           d="M 103.34305,126.02642 H 78.260339 53.177116 v 1.09037 1.09037 h 25.083223 25.082711 v -1.09037 z"
           style="display:inline"
           id="path8" /><path
           d="m 103.34305,108.57735 v 8.72453 8.72454 h 1.09089 1.09037 v -8.72454 -8.72453 h -1.09037 z"
           style="display:inline"
           id="path7" /><path
           d="m 72.807442,106.39609 v 1.09037 1.09089 h 15.267802 15.267806 v -1.09089 -1.09037 H 88.075244 Z"
           style="display:inline"
           id="path6" /><path
           d="m 70.62618,56.229643 v 25.083223 25.083224 h 1.090373 1.090889 V 81.312866 56.229643 h -1.090889 z"
           style="display:inline"
           id="path4" /><path
           d="m 53.177116,54.048897 v 1.090373 1.090373 h 8.724532 8.724532 V 55.13927 54.048897 h -8.724532 z"
           style="display:inline"
           id="path3" /></g></g><path
       style="font-weight:500;font-size:2.82222px;font-family:Roboto;-inkscape-font-specification:'Roboto Semi-Light';text-align:center;text-anchor:middle;fill:#ffffff;stroke-width:0.265"
       d="m 4.6703392,18.183301 h 0.9108826 v 0.278363 h -1.259526 v -2.006422 h 0.3486434 z m 1.5020605,0.278363 h -0.334863 v -1.491036 h 0.334863 z M 5.8168661,16.5834 q 0,-0.07717 0.048231,-0.128158 0.049609,-0.05099 0.1405598,-0.05099 0.09095,0 0.1405598,0.05099 0.049609,0.05099 0.049609,0.128158 0,0.07579 -0.049609,0.126779 -0.049609,0.04961 -0.1405598,0.04961 -0.09095,0 -0.1405598,-0.04961 -0.048231,-0.05099 -0.048231,-0.126779 z m 1.034906,0.387228 0.00965,0.155718 q 0.1570963,-0.183279 0.4299476,-0.183279 0.2990341,0 0.4092771,0.228754 0.1626083,-0.228754 0.4575083,-0.228754 0.2466686,0 0.3665579,0.136426 0.1212672,0.136426 0.1240233,0.402387 v 0.979784 h -0.334863 v -0.970138 q 0,-0.141938 -0.062012,-0.208084 -0.062012,-0.06615 -0.2053275,-0.06615 -0.1143771,0 -0.1874131,0.06201 -0.071658,0.06063 -0.1005967,0.159853 l 0.00138,1.022503 h -0.334863 v -0.981162 q -0.00689,-0.263205 -0.2687172,-0.263205 -0.2011934,0 -0.2852537,0.163986 v 1.080381 h -0.334863 v -1.491036 z m 2.4970033,1.491036 h -0.334863 v -1.491036 h 0.334863 z M 8.9932418,16.5834 q 0,-0.07717 0.048231,-0.128158 0.049609,-0.05099 0.1405598,-0.05099 0.09095,0 0.1405598,0.05099 0.049609,0.05099 0.049609,0.128158 0,0.07579 -0.049609,0.126779 -0.049609,0.04961 -0.1405598,0.04961 -0.09095,0 -0.1405598,-0.04961 -0.048231,-0.05099 -0.048231,-0.126779 z m 1.0307712,0.387228 0.0096,0.172255 q 0.165364,-0.199816 0.434081,-0.199816 0.465777,0 0.474045,0.533301 v 0.985296 H 10.606923 V 17.49566 q 0,-0.141938 -0.06201,-0.209461 -0.06063,-0.0689 -0.199815,-0.0689 -0.202571,0 -0.30179,0.183279 v 1.061088 H 9.7084428 v -1.491036 z m 1.915473,1.518597 q -0.318327,0 -0.516764,-0.199815 -0.19706,-0.201194 -0.19706,-0.534679 v -0.04134 q 0,-0.223242 0.08544,-0.398253 0.08682,-0.176388 0.242534,-0.274229 0.155718,-0.09784 0.347265,-0.09784 0.304547,0 0.469911,0.194303 0.166743,0.194304 0.166743,0.549837 v 0.135048 h -0.974273 q 0.01516,0.184657 0.122646,0.292144 0.108865,0.107487 0.272851,0.107487 0.230132,0 0.374826,-0.186035 l 0.180523,0.172254 q -0.08957,0.13367 -0.239778,0.208084 -0.148828,0.07304 -0.334863,0.07304 z m -0.03996,-1.27744 q -0.137803,0 -0.223242,0.09646 -0.08406,0.09646 -0.107486,0.268717 h 0.638031 v -0.0248 q -0.01103,-0.168121 -0.08957,-0.253559 -0.07855,-0.08682 -0.21773,-0.08682 z"
       id="text2"
       inkscape:label="limine-text"
       aria-label="Limine" /></g></svg>
