<?xml version="1.0" encoding="UTF-8" standalone="no"?>
<svg
   width="400px"
   height="400px"
   viewBox="-2 0 40 40"
   version="1.1"
   id="svg6"
   sodipodi:docname="build-logo.svg"
   inkscape:export-filename="../../build-logo/build-logo.png"
   inkscape:export-xdpi="500"
   inkscape:export-ydpi="500"
   inkscape:version="1.3.2 (091e20e, 2023-11-25)"
   xmlns:inkscape="http://www.inkscape.org/namespaces/inkscape"
   xmlns:sodipodi="http://sodipodi.sourceforge.net/DTD/sodipodi-0.dtd"
   xmlns="http://www.w3.org/2000/svg"
   xmlns:svg="http://www.w3.org/2000/svg">
  <defs
     id="defs6" />
  <sodipodi:namedview
     id="namedview6"
     pagecolor="#505050"
     bordercolor="#eeeeee"
     borderopacity="1"
     inkscape:showpageshadow="0"
     inkscape:pageopacity="0"
     inkscape:pagecheckerboard="0"
     inkscape:deskcolor="#505050"
     inkscape:zoom="0.9725"
     inkscape:cx="188.68895"
     inkscape:cy="181.491"
     inkscape:window-width="1280"
     inkscape:window-height="653"
     inkscape:window-x="611"
     inkscape:window-y="286"
     inkscape:window-maximized="0"
     inkscape:current-layer="svg6" />
  <path
     class="path"
     fill="#FFAC33"
     d="M11.983 3.562c4.543-.262 7.824 1.597 8.089 6.826.215 4.19-5.184 6.79-8.046 6.879-2.462.077-1.353-1.852.61-2.334 1.576-.387 4.124-2.413 3.602-4.44-.597-2.32-4.315-2.684-6.351.292-.798 1.167-3.554.873-4.096-.434-.958-2.309 1.211-6.502 6.192-6.789z"
     id="path1" />
  <path
     class="path"
     fill="#E1E8ED"
     d="M35.75 21.384c0-7.783-4.495-11.407-14.519-11.407-1.087 0-2.083.051-3.018.137-1.36-2.423-4.845-2.828-8.213-2.828-4.304 0-10 6.145-10 10.839 0 4.608 3.606 4.866 7.811 4.874.233 3.245 1.226 5.647 3.249 7.26C11.337 31.409 12.594 36 15 36c1.353 0 2.099-1.695 2.51-3.417 1.128.136 2.359.209 3.722.209 1.733 0 3.288-.116 4.695-.335C26.017 34.114 26.458 36 28 36c2.317 0 4.273-4.956 4.834-6.521 1.969-1.87 2.916-4.545 2.916-8.095z"
     id="path2" />
  <circle
     class="path"
     fill="#292F33"
     cx="4.5"
     cy="15.786"
     r="1.5"
     id="circle2" />
  <path
     class="path"
     fill="#FFCC4D"
     d="M17.562 4.339c4.312 1.455 5.74 4.148 4.034 9.099-1.367 3.967-7.345 4.361-10.034 3.375C9.25 15.964 11 14.589 13 14.875c1.606.23 4.727-.698 5-2.773C18.312 9.727 15 8 12 10c-1.177.785-5.774.43-5.5-.958.638-3.226 6.335-6.298 11.062-4.703z"
     id="path3" />
  <path
     fill="#DD2E44"
     class="nopath"
     transform="scale(0.3) translate(30 13) "
     d="M19.281 6.392c0 .405-2.37.405-2.37 0 0-.9-14.911-9.899-14.911-2.7v13.499c0 2.487 3.476 1.947 7.193.361-1.429 3.525-4.498 9.68-7.05 13.934-.229.382-.178.868.124 1.194.303.325.783.415 1.181.215l5.258-2.629c.441.726.931 1.868 1.376 2.906.333.778.678 1.582 1.024 2.275.144.287.417.488.734.54.053.009.107.013.16.013.263 0 .518-.104.707-.293 1.42-1.419 3.429-8.395 4.793-14.093 1.364 5.698 3.373 12.674 4.793 14.093.188.189.444.293.707.293.053 0 .106-.004.16-.013.317-.052.591-.253.734-.54.347-.693.691-1.497 1.024-2.275.445-1.038.935-2.181 1.376-2.906l5.258 2.629c.398.198.879.111 1.181-.215.303-.326.352-.812.124-1.194-2.735-4.558-6.061-11.296-7.328-14.643C29.652 18.933 34 20.02 34 17.19V3.691c0-7.198-14.719 1.801-14.719 2.701z"
     id="path4" />
  <path
     fill="#A0041E"
     class="nopath"
     transform="scale(0.3) translate(30 13) "
     d="M2.114 17.869c1.177 3.199 11.468-1.787 14.86-5.179.31-.31.549-.602.758-.885-10.446.252-14.542 3.857-15.618 6.064zm16.482-6.068c.212.285.453.578.765.89 3.6 3.6 14.639 8.999 14.639 4.5v-.209c-1.671-2.199-6.037-5.022-15.404-5.181z"
     id="path5" />
  <path
     fill="#EA596E"
     class="nopath"
     transform="scale(0.3) translate(30 13) "
     d="M22 11.4c0 1.988-1.611 3.6-3.599 3.6h-1.802C14.611 15 13 13.388 13 11.4V7.6C13 5.612 14.611 4 16.599 4h1.802C20.389 4 22 5.612 22 7.6v3.8z"
     id="path6" />
  <g
     id="g6"
     transform="matrix(1.3578097,0,0,1.3578097,-0.85844383,-11.738017)">
    <path
       fill="#8899a6"
       d="m 13.309483,25.141578 -0.941916,0.94226 c 0,0 -0.628287,0.313972 -1.256231,-0.314316 C 10.483049,25.141578 10.79702,24.51329 10.79702,24.51329 l 0.94226,-0.942259 c 0.314315,-0.313972 -0.06321,-0.601836 -0.346607,-0.601836 a 2.5189896,2.5189896 0 0 0 -2.5193313,2.518989 c 0,0.19546 0.024732,0.38508 0.066647,0.567829 l -2.1294445,2.129445 1.884176,1.884175 2.1294448,-2.129101 a 2.5385698,2.5385698 0 0 0 0.568171,0.06665 2.5189896,2.5189896 0 0 0 2.51899,-2.51899 c 3.43e-4,-0.285116 -0.287865,-0.660577 -0.601838,-0.346605 M 6.7734444,28.246955 2.58635,32.433706 a 1.3163464,1.3163464 0 0 0 0,1.860816 1.3163464,1.3163464 0 0 0 1.8608172,0 l 4.1864065,-4.186751 z m -3.2486128,5.659053 a 0.50908803,0.50908803 0 1 1 0,-1.018176 0.50908803,0.50908803 0 0 1 0,1.018176"
       id="path1-3"
       style="stroke-width:0.343514" />
    <path
       fill="#f4900c"
       d="m 12.135695,34.401003 c 0.400538,0.400538 1.0381,0.419431 1.415622,0.04156 0.377866,-0.377865 0.358973,-1.015084 -0.04156,-1.415622 L 5.5178984,25.035086 C 5.1170169,24.634204 4.4801413,24.615654 4.1022763,24.993526 3.7244102,25.371391 3.7433035,26.00861 4.1438383,26.409148 Z"
       id="path2-6"
       style="stroke-width:0.343514" />
    <path
       fill="#66757f"
       d="m 8.9114717,23.275952 c 0,0 -2.0610852,-1.030542 -3.7786567,0.687029 l -2.4045988,2.4046 c 0,0 -0.3435148,-0.343515 -0.6870284,0 L 1.697673,26.711094 c 0,0 -0.3435136,0.343515 0,0.687029 l 1.3740568,1.374056 c 0,0 0.3435147,0.343515 0.6870284,0 l 0.3435147,-0.343513 c 0,0 0.3435137,-0.343515 0,-0.687029 l -0.026791,-0.02679 C 4.3399871,27.459616 4.7360597,27.199575 5.132818,27.398126 l 1.3740567,-1.374057 c 0,0 -0.3435136,-1.030542 0.3435148,-1.71757 0.6870284,-0.687029 1.030542,-0.687029 1.7175704,-0.687029 0.6870284,0 0.3435148,-0.343514 0.3435148,-0.343514"
       id="path3-7"
       style="stroke-width:0.343514" />
  </g>
</svg>
