<?xml version="1.0" encoding="UTF-8" standalone="no"?>
<svg
   width="400px"
   height="400px"
   viewBox="-2 0 40 40"
   version="1.1"
   id="svg6"
   sodipodi:docname="package-logo.svg"
   inkscape:export-filename="../png/package-logo.png"
   inkscape:export-xdpi="400"
   inkscape:export-ydpi="400"
   inkscape:version="1.3.2 (091e20e, 2023-11-25)"
   xmlns:inkscape="http://www.inkscape.org/namespaces/inkscape"
   xmlns:sodipodi="http://sodipodi.sourceforge.net/DTD/sodipodi-0.dtd"
   xmlns="http://www.w3.org/2000/svg"
   xmlns:svg="http://www.w3.org/2000/svg">
  <defs
     id="defs6" />
  <sodipodi:namedview
     id="namedview6"
     pagecolor="#505050"
     bordercolor="#eeeeee"
     borderopacity="1"
     inkscape:showpageshadow="0"
     inkscape:pageopacity="0"
     inkscape:pagecheckerboard="0"
     inkscape:deskcolor="#505050"
     inkscape:zoom="0.9725"
     inkscape:cx="189.71722"
     inkscape:cy="181.491"
     inkscape:window-width="1280"
     inkscape:window-height="653"
     inkscape:window-x="322"
     inkscape:window-y="301"
     inkscape:window-maximized="0"
     inkscape:current-layer="svg6" />
  <path
     class="path"
     fill="#FFAC33"
     d="M11.983 3.562c4.543-.262 7.824 1.597 8.089 6.826.215 4.19-5.184 6.79-8.046 6.879-2.462.077-1.353-1.852.61-2.334 1.576-.387 4.124-2.413 3.602-4.44-.597-2.32-4.315-2.684-6.351.292-.798 1.167-3.554.873-4.096-.434-.958-2.309 1.211-6.502 6.192-6.789z"
     id="path1" />
  <path
     class="path"
     fill="#E1E8ED"
     d="M35.75 21.384c0-7.783-4.495-11.407-14.519-11.407-1.087 0-2.083.051-3.018.137-1.36-2.423-4.845-2.828-8.213-2.828-4.304 0-10 6.145-10 10.839 0 4.608 3.606 4.866 7.811 4.874.233 3.245 1.226 5.647 3.249 7.26C11.337 31.409 12.594 36 15 36c1.353 0 2.099-1.695 2.51-3.417 1.128.136 2.359.209 3.722.209 1.733 0 3.288-.116 4.695-.335C26.017 34.114 26.458 36 28 36c2.317 0 4.273-4.956 4.834-6.521 1.969-1.87 2.916-4.545 2.916-8.095z"
     id="path2" />
  <circle
     class="path"
     fill="#292F33"
     cx="4.5"
     cy="15.786"
     r="1.5"
     id="circle2" />
  <path
     class="path"
     fill="#FFCC4D"
     d="M17.562 4.339c4.312 1.455 5.74 4.148 4.034 9.099-1.367 3.967-7.345 4.361-10.034 3.375C9.25 15.964 11 14.589 13 14.875c1.606.23 4.727-.698 5-2.773C18.312 9.727 15 8 12 10c-1.177.785-5.774.43-5.5-.958.638-3.226 6.335-6.298 11.062-4.703z"
     id="path3" />
  <path
     fill="#DD2E44"
     class="nopath"
     transform="scale(0.3) translate(30 13) "
     d="M19.281 6.392c0 .405-2.37.405-2.37 0 0-.9-14.911-9.899-14.911-2.7v13.499c0 2.487 3.476 1.947 7.193.361-1.429 3.525-4.498 9.68-7.05 13.934-.229.382-.178.868.124 1.194.303.325.783.415 1.181.215l5.258-2.629c.441.726.931 1.868 1.376 2.906.333.778.678 1.582 1.024 2.275.144.287.417.488.734.54.053.009.107.013.16.013.263 0 .518-.104.707-.293 1.42-1.419 3.429-8.395 4.793-14.093 1.364 5.698 3.373 12.674 4.793 14.093.188.189.444.293.707.293.053 0 .106-.004.16-.013.317-.052.591-.253.734-.54.347-.693.691-1.497 1.024-2.275.445-1.038.935-2.181 1.376-2.906l5.258 2.629c.398.198.879.111 1.181-.215.303-.326.352-.812.124-1.194-2.735-4.558-6.061-11.296-7.328-14.643C29.652 18.933 34 20.02 34 17.19V3.691c0-7.198-14.719 1.801-14.719 2.701z"
     id="path4" />
  <path
     fill="#A0041E"
     class="nopath"
     transform="scale(0.3) translate(30 13) "
     d="M2.114 17.869c1.177 3.199 11.468-1.787 14.86-5.179.31-.31.549-.602.758-.885-10.446.252-14.542 3.857-15.618 6.064zm16.482-6.068c.212.285.453.578.765.89 3.6 3.6 14.639 8.999 14.639 4.5v-.209c-1.671-2.199-6.037-5.022-15.404-5.181z"
     id="path5" />
  <path
     fill="#EA596E"
     class="nopath"
     transform="scale(0.3) translate(30 13) "
     d="M22 11.4c0 1.988-1.611 3.6-3.599 3.6h-1.802C14.611 15 13 13.388 13 11.4V7.6C13 5.612 14.611 4 16.599 4h1.802C20.389 4 22 5.612 22 7.6v3.8z"
     id="path6" />
  <g
     id="g1"
     transform="matrix(5.9966073,0,0,5.2650004,-92.107371,-65.318581)">
    <path
       fill="#662113"
       d="m 15.6,17.5 v 1.2375 c 0,0.2042 0.1093,0.2484 0.1093,0.2484 l 1.1574,0.9099 C 17.0489,20.039 17,19.7375 17,19.7375 V 18.6 Z"
       id="path1-36"
       style="stroke-width:0.1" />
    <path
       fill="#c1694f"
       d="m 18.4,17.5 v 1.2375 c 0,0.2042 -0.1063,0.2484 -0.1063,0.2484 0,0 -0.9767,0.7667 -1.1588,0.9099 C 16.9526,20.039 17,19.7375 17,19.7375 V 18.6 Z"
       id="path2-7"
       style="stroke-width:0.1" />
    <path
       fill="#d99e82"
       d="m 17.1289,16.45 c -0.0753,-0.061 -0.1988,-0.061 -0.2742,0 l -1.1982,0.9529 c -0.0754,0.061 -0.0754,0.1607 0,0.2216 l 1.2023,0.9646 c 0.0754,0.0609 0.1989,0.0609 0.2743,0 l 1.2104,-0.973 c 0.0754,-0.0609 0.0754,-0.1606 0,-0.2216 z"
       id="path3-5"
       style="stroke-width:0.1" />
    <path
       fill="#d99e82"
       d="m 17,19.975 c -0.0552,0 -0.1,-0.0482 -0.1,-0.1078 v -1.2927 c 0,-0.0596 0.0448,-0.1078 0.1,-0.1078 0.0553,0 0.1,0.0482 0.1,0.1078 v 1.2927 c 0,0.0596 -0.0447,0.1078 -0.1,0.1078"
       id="path4-3"
       style="stroke-width:0.1" />
    <path
       fill="#99aab5"
       d="m 18,18.2836 c 0,0.1104 0.0104,0.1646 -0.1,0.2442 l -0.2469,0.1878 C 17.5427,18.7953 17.5,18.7269 17.5,18.6164 v -0.2961 c 0,-0.0193 -0.0026,-0.04 -0.0278,-0.0608 -0.2578,-0.2125 -1.2588,-1.0076 -1.4412,-1.1544 l 0.4625,-0.3678 c 0.1266,0.0926 1.0753,0.8252 1.4722,1.1377 C 17.9854,17.8906 18,17.9078 18,17.9266 Z"
       id="path5-5"
       style="stroke-width:0.1" />
    <path
       fill="#ccd6dd"
       d="m 17.9656,17.875 c -0.3968,-0.3125 -1.3455,-1.0451 -1.4721,-1.1377 l -0.1721,0.1368 -0.2904,0.231 c 0.1825,0.1468 1.1834,0.9419 1.4412,1.1544 a 0.069,0.069 0 0 1 0.0248,0.0371 L 17.9903,17.9 a 0.1187,0.1187 0 0 0 -0.0247,-0.025"
       id="path6-6"
       style="stroke-width:0.1" />
    <path
       fill="#ccd6dd"
       d="m 18,18.2836 v -0.357 c 0,-0.0188 -0.0146,-0.0359 -0.0344,-0.0516 -0.3968,-0.3125 -1.3455,-1.0451 -1.4721,-1.1377 l -0.2073,0.1649 c 0.3393,0.2669 1.2481,0.9681 1.486,1.1573 0.0256,0.0204 0.0278,0.0415 0.0278,0.0608 v 0.4836 l 0.1,-0.0761 C 18.0104,18.4481 18,18.394 18,18.2836"
       id="path7"
       style="stroke-width:0.1" />
    <path
       fill="#e1e8ed"
       d="m 17.9656,17.875 c -0.3968,-0.3125 -1.3455,-1.0451 -1.4721,-1.1377 l -0.2073,0.1649 c 0.3393,0.2669 1.2481,0.9681 1.486,1.1573 0.0037,0.0029 0.006,0.0059 0.0087,0.0088 L 17.9903,17.9 a 0.1187,0.1187 0 0 0 -0.0247,-0.025"
       id="path8"
       style="stroke-width:0.1" />
  </g>
</svg>
