<?xml version="1.0" encoding="UTF-8" standalone="no"?>
<!-- Created with Inkscape (http://www.inkscape.org/) -->

<svg
   width="210mm"
   height="100mm"
   viewBox="0 0 210 100"
   version="1.1"
   id="svg1"
   xml:space="preserve"
   inkscape:version="1.4 (e7c3feb100, 2024-10-09)"
   sodipodi:docname="chuang-blank.svg"
   xmlns:inkscape="http://www.inkscape.org/namespaces/inkscape"
   xmlns:sodipodi="http://sodipodi.sourceforge.net/DTD/sodipodi-0.dtd"
   xmlns:xlink="http://www.w3.org/1999/xlink"
   xmlns="http://www.w3.org/2000/svg"
   xmlns:svg="http://www.w3.org/2000/svg"><sodipodi:namedview
     id="namedview1"
     pagecolor="#ffffff"
     bordercolor="#000000"
     borderopacity="0.25"
     inkscape:showpageshadow="2"
     inkscape:pageopacity="0.0"
     inkscape:pagecheckerboard="0"
     inkscape:deskcolor="#d1d1d1"
     inkscape:document-units="mm"
     showguides="true"
     inkscape:zoom="0.50856281"
     inkscape:cx="229.07692"
     inkscape:cy="-89.467809"
     inkscape:window-width="2194"
     inkscape:window-height="1158"
     inkscape:window-x="0"
     inkscape:window-y="0"
     inkscape:window-maximized="1"
     inkscape:current-layer="layer1" /><defs
     id="defs1"><inkscape:path-effect
       effect="fillet_chamfer"
       id="path-effect10"
       is_visible="true"
       lpeversion="1"
       nodesatellites_param="F,0,0,1,0,0,0,1 @ F,0,0,1,0,1.2796986,0,1 @ F,0,0,1,0,1.0537164,0,1 @ F,0,0,1,0,0.86643805,0,1 @ F,0,0,1,0,0,0,1"
       radius="0"
       unit="px"
       method="auto"
       mode="F"
       chamfer_steps="1"
       flexible="false"
       use_knot_distance="true"
       apply_no_radius="true"
       apply_with_radius="true"
       only_selected="false"
       hide_knots="false" /><inkscape:path-effect
       effect="fillet_chamfer"
       id="path-effect8"
       is_visible="true"
       lpeversion="1"
       nodesatellites_param="F,0,0,1,0,0,0,1 @ F,0,0,1,0,1.6941228,0,1 @ F,0,0,1,0,1.6913259,0,1 @ F,0,0,1,0,1.308424,0,1"
       radius="0"
       unit="px"
       method="auto"
       mode="F"
       chamfer_steps="1"
       flexible="false"
       use_knot_distance="true"
       apply_no_radius="true"
       apply_with_radius="true"
       only_selected="false"
       hide_knots="false" /><inkscape:path-effect
       effect="fillet_chamfer"
       id="path-effect36"
       is_visible="true"
       lpeversion="1"
       nodesatellites_param="F,0,0,1,0,0,0,1 @ F,0,0,1,0,0.52385417,0,1 @ F,0,0,1,0,0.71098228,0,1 @ F,0,0,1,0,0,0,1"
       radius="0"
       unit="px"
       method="auto"
       mode="F"
       chamfer_steps="1"
       flexible="false"
       use_knot_distance="true"
       apply_no_radius="true"
       apply_with_radius="true"
       only_selected="false"
       hide_knots="false" /><inkscape:path-effect
       effect="fillet_chamfer"
       id="path-effect35"
       is_visible="true"
       lpeversion="1"
       nodesatellites_param="F,0,0,1,0,0,0,1 @ F,0,0,1,0,0,0,1 @ F,0,0,1,0,0,0,1 @ F,0,0,1,0,0,0,1"
       radius="0"
       unit="px"
       method="auto"
       mode="F"
       chamfer_steps="1"
       flexible="false"
       use_knot_distance="true"
       apply_no_radius="true"
       apply_with_radius="true"
       only_selected="false"
       hide_knots="false" /><inkscape:path-effect
       effect="fillet_chamfer"
       id="path-effect34"
       is_visible="true"
       lpeversion="1"
       nodesatellites_param="F,0,0,1,0,0.66965323,0,1 @ F,0,0,1,0,0.73995061,0,1 @ F,0,0,1,0,0,0,1 @ F,0,0,1,0,0,0,1"
       radius="0"
       unit="px"
       method="auto"
       mode="F"
       chamfer_steps="1"
       flexible="false"
       use_knot_distance="true"
       apply_no_radius="true"
       apply_with_radius="true"
       only_selected="false"
       hide_knots="false" /><inkscape:path-effect
       effect="fillet_chamfer"
       id="path-effect33"
       is_visible="true"
       lpeversion="1"
       nodesatellites_param="F,0,0,1,0,0,0,1 @ F,0,0,1,0,0,0,1 @ F,0,0,1,0,0,0,1 @ F,0,0,1,0,0,0,1"
       radius="0"
       unit="px"
       method="auto"
       mode="F"
       chamfer_steps="1"
       flexible="false"
       use_knot_distance="true"
       apply_no_radius="true"
       apply_with_radius="true"
       only_selected="false"
       hide_knots="false" /><inkscape:path-effect
       effect="fillet_chamfer"
       id="path-effect29"
       is_visible="true"
       lpeversion="1"
       nodesatellites_param="F,0,0,1,0,2.6342989,0,1 @ F,0,0,1,0,0,0,1 @ F,0,0,1,0,0,0,1 @ F,0,0,1,0,2.3432496,0,1"
       radius="0"
       unit="px"
       method="auto"
       mode="F"
       chamfer_steps="1"
       flexible="false"
       use_knot_distance="true"
       apply_no_radius="true"
       apply_with_radius="true"
       only_selected="false"
       hide_knots="false" /><inkscape:path-effect
       effect="fillet_chamfer"
       id="path-effect28"
       is_visible="true"
       lpeversion="1"
       nodesatellites_param="F,0,0,1,0,2.4976134,0,1 @ F,0,0,1,0,0,0,1 @ F,0,0,1,0,0,0,1 @ F,0,0,1,0,2.34935,0,1"
       radius="0"
       unit="px"
       method="auto"
       mode="F"
       chamfer_steps="1"
       flexible="false"
       use_knot_distance="true"
       apply_no_radius="true"
       apply_with_radius="true"
       only_selected="false"
       hide_knots="false" /><inkscape:path-effect
       effect="fillet_chamfer"
       id="path-effect27"
       is_visible="true"
       lpeversion="1"
       nodesatellites_param="F,0,0,1,0,2.3420315,0,1 @ F,0,0,1,0,0,0,1 @ F,0,0,1,0,0,0,1 @ F,0,0,1,0,2.4480849,0,1"
       radius="0"
       unit="px"
       method="auto"
       mode="F"
       chamfer_steps="1"
       flexible="false"
       use_knot_distance="true"
       apply_no_radius="true"
       apply_with_radius="true"
       only_selected="false"
       hide_knots="false" /><inkscape:path-effect
       effect="fillet_chamfer"
       id="path-effect22"
       is_visible="true"
       lpeversion="1"
       nodesatellites_param="F,0,0,1,0,0,0,1 @ F,0,0,1,0,2.3292017,0,1 @ F,0,0,1,0,1.0946691,0,1 @ F,0,0,1,0,0,0,1 @ F,0,0,1,0,0,0,1 @ F,0,0,1,0,0,0,1"
       radius="0"
       unit="px"
       method="auto"
       mode="F"
       chamfer_steps="1"
       flexible="false"
       use_knot_distance="true"
       apply_no_radius="true"
       apply_with_radius="true"
       only_selected="false"
       hide_knots="false" /><inkscape:path-effect
       effect="fillet_chamfer"
       id="path-effect21"
       is_visible="true"
       lpeversion="1"
       nodesatellites_param="F,0,0,1,0,0,0,1 @ F,0,0,1,0,0,0,1 @ F,0,0,1,0,0,0,1 @ F,0,0,1,0,0,0,1"
       radius="0"
       unit="px"
       method="auto"
       mode="F"
       chamfer_steps="1"
       flexible="false"
       use_knot_distance="true"
       apply_no_radius="true"
       apply_with_radius="true"
       only_selected="false"
       hide_knots="false" /><inkscape:path-effect
       effect="fillet_chamfer"
       id="path-effect20"
       is_visible="true"
       lpeversion="1"
       nodesatellites_param="F,0,0,1,0,0.71151706,0,1 @ F,0,0,1,0,0,0,1 @ F,0,0,1,0,0,0,1 @ F,0,0,1,0,1.0098298,0,1"
       radius="0"
       unit="px"
       method="auto"
       mode="F"
       chamfer_steps="1"
       flexible="false"
       use_knot_distance="true"
       apply_no_radius="true"
       apply_with_radius="true"
       only_selected="false"
       hide_knots="false" /><inkscape:path-effect
       effect="fillet_chamfer"
       id="path-effect18"
       is_visible="true"
       lpeversion="1"
       nodesatellites_param="F,0,0,1,0,0,0,1 @ F,0,0,1,0,0,0,1 @ F,0,0,1,0,0,0,1 @ F,0,0,1,0,0,0,1 @ F,0,0,1,0,0,0,1 @ F,0,0,1,0,0,0,1 @ F,0,0,1,0,0,0,1 @ F,0,0,1,0,0,0,1 @ F,0,0,1,0,0,0,1 @ F,0,0,1,0,0,0,1 @ F,0,0,1,0,0,0,1 @ F,0,0,1,0,3.4049612,0,1 @ F,0,0,1,0,3.071374,0,1"
       radius="0"
       unit="px"
       method="auto"
       mode="F"
       chamfer_steps="1"
       flexible="false"
       use_knot_distance="true"
       apply_no_radius="true"
       apply_with_radius="true"
       only_selected="false"
       hide_knots="false" /><inkscape:path-effect
       effect="fillet_chamfer"
       id="path-effect9"
       is_visible="true"
       lpeversion="1"
       nodesatellites_param="F,0,0,1,0,2.0578031,0,1 @ F,0,0,1,0,0,0,1 @ F,0,0,1,0,5.658451,0,1 @ F,0,0,1,0,1.5262756,0,1"
       radius="0"
       unit="px"
       method="auto"
       mode="F"
       chamfer_steps="1"
       flexible="false"
       use_knot_distance="true"
       apply_no_radius="true"
       apply_with_radius="true"
       only_selected="false"
       hide_knots="false" /><inkscape:path-effect
       effect="fillet_chamfer"
       id="path-effect7"
       is_visible="true"
       lpeversion="1"
       nodesatellites_param="F,0,0,1,0,2.0578031,0,1 @ F,0,0,1,0,0,0,1 @ F,0,0,1,0,5.658451,0,1 @ F,0,0,1,0,1.5262756,0,1"
       radius="0"
       unit="px"
       method="auto"
       mode="F"
       chamfer_steps="1"
       flexible="false"
       use_knot_distance="true"
       apply_no_radius="true"
       apply_with_radius="true"
       only_selected="false"
       hide_knots="false" /><inkscape:path-effect
       effect="fillet_chamfer"
       id="path-effect6"
       is_visible="true"
       lpeversion="1"
       nodesatellites_param="F,0,0,1,0,0,0,1 @ F,0,0,1,0,0,0,1 @ F,0,0,1,0,0.84766163,0,1 @ F,0,0,1,0,0,0,1 @ F,0,0,1,0,0,0,1 @ F,0,0,1,0,0,0,1 @ F,0,0,1,0,1.1890755,0,1 @ F,0,0,1,0,0,0,1 @ F,0,0,1,0,4.1830454,0,1"
       radius="0"
       unit="px"
       method="auto"
       mode="F"
       chamfer_steps="1"
       flexible="false"
       use_knot_distance="true"
       apply_no_radius="true"
       apply_with_radius="true"
       only_selected="false"
       hide_knots="false" /></defs><g
     inkscape:label="图层 1"
     inkscape:groupmode="layer"
     id="layer1"
     transform="translate(-49.994364,-70.035612)"><rect
       style="fill:#e1e8ed;stroke-width:0.1;fill-opacity:1"
       id="rect2"
       width="210"
       height="100"
       x="49.994366"
       y="70.035614"
       transform="translate(-9.1666666e-7)" /><g
       id="g3"
       transform="translate(7.624034,3.8259215)"><g
         id="g45"
         transform="matrix(0.48714952,0,0,0.48714952,140.99174,80.728475)"><path
           id="path53"
           d="m 101.35352,76.667969 c -2.767081,0.09057 -5.587056,-0.234483 -8.308598,0.384765 -1.726282,0.740129 -2.680699,2.477597 -3.95317,3.767013 -2.760893,3.194286 -5.617891,6.314616 -8.246049,9.617753 -0.883755,1.493623 0.09084,3.656697 1.835682,3.897708 1.060676,0.280253 2.138523,-0.244352 2.756633,-1.110642 3.161032,-3.276243 5.859299,-6.972712 9.035019,-10.230652 0.949445,-0.878231 2.290292,-0.844866 3.493357,-0.778342 1.058724,0.0058 2.117456,0.01007 3.176186,0.0149 -2.375266,3.252389 -5.001123,6.30499 -7.652639,9.332182 -4.511268,5.247453 -9.04437,10.481636 -13.525097,15.757656 -4.98196,0.0791 -9.978874,-0.15099 -14.948501,0.27462 -1.233335,0.14247 -2.833851,0.54625 -3.104362,1.97193 -0.314657,1.19355 -0.595811,2.68205 0.205797,3.7398 1.343532,1.26352 3.446796,1.13502 5.08248,1.29778 4.490149,0.23024 8.98868,0.0596 13.481816,0.037 2.147346,-0.0141 4.559219,-0.20748 6.117292,-1.8787 1.845929,-1.7669 3.391484,-3.81339 5.123397,-5.68664 0.792732,-0.94188 1.681459,-1.97935 2.791485,-2.46606 1.665327,0.24155 2.650969,1.74185 3.830266,2.77295 2.067796,2.04436 4.138536,4.0582 6.221106,6.0936 -1.25409,5.87513 -2.74839,11.70403 -3.77056,17.62594 -0.20383,1.14922 -0.0157,2.43703 0.91478,3.23062 1.54779,1.61866 4.58626,1.18732 5.563,-0.853 0.90478,-1.83869 1.05882,-3.9288 1.59998,-5.88496 1.19501,-5.23497 2.53698,-10.34898 3.34797,-15.66725 0.27474,-1.98932 0.21828,-4.2939 -1.33392,-5.78091 -1.82128,-1.96165 -3.87019,-3.69761 -5.66625,-5.68626 -0.6364,-0.664478 -1.24571,-1.353544 -1.86398,-2.034956 3.01347,-3.759309 6.15026,-7.417255 9.38867,-10.984375 2.40915,1.998603 4.34348,4.512648 6.83676,6.410422 1.03182,0.675251 2.37688,0.326301 3.23615,-0.467449 2.34835,-1.781236 4.26012,-4.050462 6.36738,-6.095711 1.59015,-1.636732 3.32705,-3.220212 4.4894,-5.241793 0.44992,-0.981172 -0.25782,-1.924608 -0.98469,-2.525282 -0.66352,-0.701734 -1.77601,-1.100806 -2.62051,-0.451822 -1.89836,1.089882 -3.29161,2.83482 -4.88996,4.294493 -1.13117,1.112267 -2.22995,2.521233 -3.67281,3.323236 -1.17691,0.44371 -2.12031,-0.627487 -2.89627,-1.341231 -2.39949,-2.30609 -4.56965,-4.79565 -7.02835,-6.95615 -1.77254,-1.784345 -4.45433,-1.735701 -6.78827,-1.731916 -1.21356,-0.0024 -2.42708,0.0054 -3.64062,0.0098 z" /><path
           id="path51"
           style="fill:#000000"
           d="m 116.03711,66.146484 c -3.41046,0.177535 -6.20651,3.853075 -5.23047,7.185547 0.68495,2.824012 3.72484,5.076301 6.64842,4.277137 2.93205,-0.695342 5.35078,-3.868302 4.56838,-6.911902 -0.65417,-2.642785 -3.23204,-4.709106 -5.98633,-4.550782 z" /></g><use
         x="0"
         y="0"
         xlink:href="#g45"
         id="use57"
         transform="translate(20.833048,15.73386)" /><use
         x="0"
         y="0"
         xlink:href="#use57"
         id="use58"
         transform="translate(17.635681,-25.335925)" /><g
         id="g70"
         transform="matrix(1.1909383,0,0,1.1909383,-46.161518,33.380448)"><path
           d="m 155.25719,49.708594 c -2.20625,0.170996 -3.2328,2.653035 -1.7539,4.240568 1.62575,1.745168 4.64173,0.36891 4.35684,-1.987993 -0.16121,-1.3336 -1.33658,-2.350724 -2.60294,-2.252575 z"
           id="path70" /><path
           d="m 165.7935,30.781584 c 0.21499,0.01524 0.45252,0.08404 0.7307,0.185001 1.56096,0.566532 1.55448,1.232378 -0.0486,5.032768 -0.72581,1.720706 -1.26997,3.148199 -1.23145,3.230811 0.10331,0.22154 2.58943,4.186865 2.61689,4.173905 0.013,-0.0062 0.17941,-0.589763 0.37001,-1.296562 0.57053,-2.115658 0.39611,-2.02378 5.05137,-2.661336 2.75273,-0.376999 3.56195,-0.436204 3.96358,-0.289905 1.2661,0.461197 1.5858,2.013709 0.62322,3.027206 -0.40883,0.430463 -0.76602,0.519068 -3.5972,0.892452 -2.81344,0.371044 -2.48289,0.08119 -3.28197,2.87631 -0.96868,3.388393 -0.96223,3.383083 -5.27513,4.18269 l -2.71715,0.503846 1.33532,1.029394 c 1.65093,1.272087 1.56578,0.981444 1.26194,4.307747 -0.34733,3.802515 -0.32379,3.713186 -1.06247,4.057634 -1.65446,0.771488 -2.12509,-0.106536 -1.80195,-3.362069 0.29318,-2.953619 0.59072,-2.318571 -1.94769,-4.156852 -1.16993,-0.847249 -2.37976,-1.730497 -2.68821,-1.962671 -0.41468,-0.312138 -0.89469,-0.981505 -1.8433,-2.568835 -0.70558,-1.180682 -2.02624,-3.382397 -2.9347,-4.892725 -1.84588,-3.068816 -1.93733,-3.389583 -1.17667,-4.137215 1.13692,-1.117441 1.69071,-0.680607 4.02921,3.180684 1.93909,3.201778 1.9392,3.202055 2.56315,3.095935 5.59969,-0.952378 5.33301,-0.878227 5.01313,-1.398881 -0.16226,-0.264092 -0.76337,-1.23297 -1.33584,-2.15284 -1.51078,-2.427633 -1.53747,-1.946721 0.35192,-6.333463 1.5889,-3.689075 2.10022,-4.629082 3.03186,-4.563029 z"
           id="path65" /></g></g><g
       id="g36"
       style="display:inline"
       transform="translate(7.624034,3.8259215)"><path
         d="m 88.963045,137.69185 c -3.196583,2.6e-4 -5.787786,2.5917 -5.78776,5.78828 -2.6e-5,3.19658 2.591177,5.78802 5.78776,5.78828 3.196785,2e-5 5.788303,-2.59149 5.788277,-5.78828 2.6e-5,-3.19678 -2.591492,-5.7883 -5.788277,-5.78828 z m 0,3.64319 c 1.184881,-2.3e-4 2.145557,0.96021 2.145606,2.14509 -4.9e-5,1.18488 -0.960725,2.14533 -2.145606,2.14509 -1.184678,-5e-5 -2.14504,-0.96041 -2.145088,-2.14509 4.8e-5,-1.18468 0.96041,-2.14504 2.145088,-2.14509 z"
         style="stroke:none;stroke-width:0.225633;fill:#000000;fill-opacity:1"
         id="path40" /><path
         d="m 139.0618,137.69185 c -3.19679,-2e-5 -5.78831,2.5915 -5.78828,5.78828 -3e-5,3.19679 2.59149,5.7883 5.78828,5.78828 3.19658,-2.6e-4 5.78778,-2.5917 5.78776,-5.78828 2e-5,-3.19658 -2.59118,-5.78802 -5.78776,-5.78828 z m 0,3.64319 c 1.18467,5e-5 2.14504,0.96041 2.14508,2.14509 -4e-5,1.18468 -0.96041,2.14504 -2.14508,2.14509 -1.18488,2.4e-4 -2.14556,-0.96021 -2.14561,-2.14509 5e-5,-1.18488 0.96073,-2.14532 2.14561,-2.14509 z"
         style="stroke-width:0.225633;fill:#000000;fill-opacity:1"
         id="path42" /><path
         id="path16"
         style="display:inline;fill:#000000;stroke:none;stroke-width:0.106927;fill-opacity:1"
         d="m 92.272921,101.36332 a 14.869912,14.869912 0 0 1 -14.864726,14.81667 14.869912,14.869912 0 0 1 -3.96875,-0.60978 v 0.03 a 14.7767,14.7767 0 0 1 -1.496033,-0.51573 h -8.082194 a 2.3420315,2.3420315 0 0 0 -2.341976,2.34197 v 0.17674 a 2.4480849,2.4480849 0 0 0 2.44843,2.44843 h 9.471773 v 3.29334 H 59.587577 a 2.4976134,2.4976134 0 0 0 -2.497522,2.49752 v 0.094 a 2.34935,2.34935 0 0 0 2.349211,2.34921 h 14.000179 v 16.6672 h 6.322611 c 0.468151,0 0.767653,-0.37206 0.720887,-0.83768 -0.02119,-0.21098 -0.0344,-0.42292 -0.03979,-0.6351 4.9e-5,-4.70536 3.814522,-8.51985 8.519893,-8.51989 4.705576,-2.4e-4 8.520362,3.81433 8.52041,8.51989 -0.0025,0.0983 -0.0065,0.19644 -0.0124,0.29456 -0.03937,0.65499 0.378373,1.17822 1.035079,1.17822 h 25.066685 v -39.40638 a 4.1830454,4.1830454 0 0 0 -4.18321,-4.18321 z" /><path
         d="m 128.53169,113.47628 c -1.13646,2e-5 -2.05773,0.9213 -2.05776,2.05775 v 27.9461 c 1.5e-4,0.84293 0.6836,1.52615 1.52653,1.52601 h 2.6913 c -0.0959,-0.50312 -0.14622,-1.01385 -0.15037,-1.52601 5e-5,-4.70558 3.81483,-8.52013 8.52041,-8.51989 4.70538,5e-5 8.51984,3.81451 8.51989,8.51989 -0.004,0.51216 -0.0545,1.02289 -0.15038,1.52601 h 0.19689 c 3.12476,-2.2e-4 5.65783,-2.53329 5.65805,-5.65806 l 0.004,-8.43411 c 0.001,-2.22269 -0.64013,-4.39836 -1.8464,-6.26525 l -5.55108,-8.59017 c -1.03926,-1.60836 -2.82331,-2.57987 -4.73822,-2.58021 z m 3.47059,4.12688 h 8.1411 c 1.42257,-1e-5 2.71801,0.81909 3.32797,2.10426 l 3.15381,6.64456 c 0.21813,0.45928 -0.11684,0.98913 -0.62529,0.98908 h -13.69942 c -0.55771,0 -1.00976,-0.45204 -1.00976,-1.00975 v -8.01657 c 0,-0.39296 0.31863,-0.71158 0.71159,-0.71158 z"
         style="display:inline;stroke-width:0.1;fill:#000000;fill-opacity:1"
         id="path44" /><path
         d="M 77.408195,88.049923 C 70.08477,88.049822 64.147922,93.98667 64.148022,101.3101 c 1.85e-4,7.32322 5.936949,13.25975 13.260173,13.25965 7.323224,1e-4 13.259988,-5.93643 13.260173,-13.25965 1e-4,-7.32343 -5.936748,-13.260278 -13.260173,-13.260177 z m 0,2.706294 c 5.828777,-8.9e-5 10.553967,4.725101 10.553878,10.553883 -1.97e-4,5.82857 -4.725303,10.55345 -10.553878,10.55336 -5.828575,9e-5 -10.553681,-4.72479 -10.553878,-10.55336 -8.9e-5,-5.828782 4.725101,-10.553972 10.553878,-10.553883 z"
         style="display:inline;fill-rule:evenodd;stroke:none;stroke-width:0.174378;fill:#000000;fill-opacity:1"
         id="path38" /><path
         id="path17"
         style="display:inline;fill:#000000;stroke:none;stroke-width:0.113223;fill-opacity:1"
         d="m 77.408195,92.55094 a 0.67392135,0.71566624 0 0 0 -0.671277,0.669727 l -0.355017,5.857006 c -0.844282,0.388865 -1.43092,1.241927 -1.43092,2.232427 0,1.35703 1.10018,2.45669 2.457214,2.45669 0.0038,0 0.0076,-5e-4 0.01137,-5.1e-4 l 3.692798,2.40967 a 0.86396368,0.86396368 0 0 0 1.085205,-0.10387 0.66494056,0.66494056 0 0 0 0.09508,-0.81752 l -2.427242,-3.94446 c 0,-0.99068 -0.586386,-1.844179 -1.43092,-2.232943 L 78.081022,93.288363 A 0.70638884,0.75014487 0 0 0 77.408195,92.55094 Z" /><path
         d="m 66.634692,111.47175 a 14.7767,14.7767 0 0 1 -3.031339,-4.90151 H 52.628312 a 2.6232578,2.6232578 0 0 0 -2.633948,2.61224 2.3432496,2.3432496 0 0 0 2.34301,2.34353 h 14.297318 z"
         style="display:inline;fill:#000000;stroke:none;stroke-width:0.181987;fill-opacity:1"
         id="path32" /><circle
         style="fill:#000000;fill-opacity:1;stroke-width:0.207935"
         id="path7"
         cx="139.839"
         cy="121.40788"
         r="3" /><path
         style="fill:#000000;fill-opacity:1;stroke-width:0.1"
         d="m 141.02098,131.16698 0.8548,-1.0658 a 5.7851439,5.7851439 141.20367 0 1 1.94765,-1.56575 l 0.0928,-0.0459 a 2.4052336,2.4052336 177.33479 0 1 1.92823,-0.0898 l 0.18463,0.0708 a 1.5599332,1.5599332 50.041911 0 1 0.9729,1.16118 l 0.29588,1.5352 z"
         id="path8"
         inkscape:path-effect="#path-effect10"
         inkscape:original-d="m 141.02098,131.16698 1.65545,-2.06409 2.18427,-1.08063 1.97734,0.75874 0.45985,2.38598 z"
         sodipodi:nodetypes="cccccc"
         transform="translate(-7.6240349,-3.8259226)" /></g><g
       id="g1"
       transform="matrix(0.743097,0,0,0.743097,96.175735,111.09801)"><path
         class="path"
         fill="#ffac33"
         d="m 11.983,3.562 c 4.543,-0.262 7.824,1.597 8.089,6.826 0.215,4.19 -5.184,6.79 -8.046,6.879 -2.462,0.077 -1.353,-1.852 0.61,-2.334 1.576,-0.387 4.124,-2.413 3.602,-4.44 C 15.641,8.173 11.923,7.809 9.887,10.785 9.089,11.952 6.333,11.658 5.791,10.351 4.833,8.042 7.002,3.849 11.983,3.562 Z"
         id="path1" /><path
         class="path"
         fill="#e1e8ed"
         d="m 35.75,21.384 c 0,-7.783 -4.495,-11.407 -14.519,-11.407 -1.087,0 -2.083,0.051 -3.018,0.137 C 16.853,7.691 13.368,7.286 10,7.286 c -4.304,0 -10,6.145 -10,10.839 0,4.608 3.606,4.866 7.811,4.874 0.233,3.245 1.226,5.647 3.249,7.26 0.277,1.15 1.534,5.741 3.94,5.741 1.353,0 2.099,-1.695 2.51,-3.417 1.128,0.136 2.359,0.209 3.722,0.209 1.733,0 3.288,-0.116 4.695,-0.335 C 26.017,34.114 26.458,36 28,36 c 2.317,0 4.273,-4.956 4.834,-6.521 1.969,-1.87 2.916,-4.545 2.916,-8.095 z"
         id="path2" /><circle
         class="path"
         fill="#292f33"
         cx="4.5"
         cy="15.786"
         r="1.5"
         id="circle2" /><path
         class="path"
         fill="#ffcc4d"
         d="m 17.562,4.339 c 4.312,1.455 5.74,4.148 4.034,9.099 -1.367,3.967 -7.345,4.361 -10.034,3.375 C 9.25,15.964 11,14.589 13,14.875 c 1.606,0.23 4.727,-0.698 5,-2.773 C 18.312,9.727 15,8 12,10 10.823,10.785 6.226,10.43 6.5,9.042 7.138,5.816 12.835,2.744 17.562,4.339 Z"
         id="path3" /><path
         fill="#dd2e44"
         class="nopath"
         transform="matrix(0.3,0,0,0.3,9,3.9)"
         d="m 19.281,6.392 c 0,0.405 -2.37,0.405 -2.37,0 C 16.911,5.492 2,-3.507 2,3.692 v 13.499 c 0,2.487 3.476,1.947 7.193,0.361 -1.429,3.525 -4.498,9.68 -7.05,13.934 -0.229,0.382 -0.178,0.868 0.124,1.194 0.303,0.325 0.783,0.415 1.181,0.215 l 5.258,-2.629 c 0.441,0.726 0.931,1.868 1.376,2.906 0.333,0.778 0.678,1.582 1.024,2.275 0.144,0.287 0.417,0.488 0.734,0.54 C 11.893,35.996 11.947,36 12,36 c 0.263,0 0.518,-0.104 0.707,-0.293 1.42,-1.419 3.429,-8.395 4.793,-14.093 1.364,5.698 3.373,12.674 4.793,14.093 C 22.481,35.896 22.737,36 23,36 c 0.053,0 0.106,-0.004 0.16,-0.013 0.317,-0.052 0.591,-0.253 0.734,-0.54 0.347,-0.693 0.691,-1.497 1.024,-2.275 0.445,-1.038 0.935,-2.181 1.376,-2.906 l 5.258,2.629 c 0.398,0.198 0.879,0.111 1.181,-0.215 0.303,-0.326 0.352,-0.812 0.124,-1.194 C 30.122,26.928 26.796,20.19 25.529,16.843 29.652,18.933 34,20.02 34,17.19 V 3.691 C 34,-3.507 19.281,5.492 19.281,6.392 Z"
         id="path4" /><path
         fill="#a0041e"
         class="nopath"
         transform="matrix(0.3,0,0,0.3,9,3.9)"
         d="m 2.114,17.869 c 1.177,3.199 11.468,-1.787 14.86,-5.179 0.31,-0.31 0.549,-0.602 0.758,-0.885 C 7.286,12.057 3.19,15.662 2.114,17.869 Z m 16.482,-6.068 c 0.212,0.285 0.453,0.578 0.765,0.89 3.6,3.6 14.639,8.999 14.639,4.5 V 16.982 C 32.329,14.783 27.963,11.96 18.596,11.801 Z"
         id="path5" /><path
         fill="#ea596e"
         class="nopath"
         transform="matrix(0.3,0,0,0.3,9,3.9)"
         d="M 22,11.4 C 22,13.388 20.389,15 18.401,15 H 16.599 C 14.611,15 13,13.388 13,11.4 V 7.6 C 13,5.612 14.611,4 16.599,4 h 1.802 C 20.389,4 22,5.612 22,7.6 Z"
         id="path6" /></g></g></svg>
