<?xml version="1.0" encoding="UTF-8" standalone="no"?>
<svg
   xml:space="preserve"
   width="248.87"
   height="254.6"
   viewBox="0 0 248.87321 254.60156"
   version="1.1"
   id="svg3"
   sodipodi:docname="ciallo-star.svg"
   inkscape:version="1.4 (e7c3feb100, 2024-10-09)"
   xmlns:inkscape="http://www.inkscape.org/namespaces/inkscape"
   xmlns:sodipodi="http://sodipodi.sourceforge.net/DTD/sodipodi-0.dtd"
   xmlns="http://www.w3.org/2000/svg"
   xmlns:svg="http://www.w3.org/2000/svg"><defs
   id="defs3"><rect
     x="17.009332"
     y="193.04434"
     width="214.37159"
     height="52.636338"
     id="rect36" /><rect
     x="8.8104846"
     y="104.75589"
     width="154.47776"
     height="51.536871"
     id="rect34" /></defs><sodipodi:namedview
   id="namedview3"
   pagecolor="#ffffff"
   bordercolor="#000000"
   borderopacity="0.25"
   inkscape:showpageshadow="2"
   inkscape:pageopacity="0.0"
   inkscape:pagecheckerboard="0"
   inkscape:deskcolor="#d1d1d1"
   inkscape:zoom="2.6190168"
   inkscape:cx="99.846629"
   inkscape:cy="114.73771"
   inkscape:window-width="2194"
   inkscape:window-height="1158"
   inkscape:window-x="0"
   inkscape:window-y="0"
   inkscape:window-maximized="1"
   inkscape:current-layer="svg3" />
  <g
   transform="matrix(4.38,0,0,-4.38,-1839.9271,2181.4253)"
   id="g3">
    <path
   fill="#ffffff"
   d="m 420.07469,498.0425 v -44.3936 h 56.428 v 44.3936 z m 0.002,-44.3952 v -13.34184 h 56.42688 v 13.3424 h -1.32496 v -12.0184 h -53.78 v 12.0184 h -1.32184 z"
   id="path1" />
    <path
   fill="#20bbed"
   d="m 421.39968,496.71752 v -18.7576 c 6.02272,8.344 15.8296,13.7872 26.8856,13.7872 11.0576,0 20.8656,-5.44528 26.8936,-13.7952 v 18.7656 h -53.78 z m 26.8856,-6.29528 c -11.196,0 -21.0808,-5.72176 -26.8856,-14.3936 v -21.0544 h 53.78 v 21.0472 c -5.8056,8.6752 -15.6944,14.4008 -26.8944,14.4008 z m -26.8872,-36.7752 v -12.0184 h 53.78 v 12.0184 z"
   id="path2" />
    <path
   style="display:inline;fill:#ffffff;fill-opacity:1"
   d="m 464.8909,450.99992 -2.1328,-6.72496 h 0.8656 l 0.50312,1.60312 h 2.6 l 0.48282,-1.60312 h 0.96096 l -2.18904,6.72496 h -1.09064 z m 0.50152,-0.79222 h 0.0203 l 1.07968,-3.58592 h -2.1516 l 1.0516,3.58592 z"
   id="path34" /><path
   style="display:inline;fill:#ffffff;fill-opacity:1"
   d="m 468.82994,451.00192 v -6.72656 h 0.85784 v 3.09216 h 1.00624 c 0.289,0 0.9496,-0.0378 1.0156,-0.85784 0.074,-0.894 0.0179,-1.7704 0.26093,-2.2344 h 0.89376 c -0.13,0.417 -0.22225,1.47136 -0.23125,1.75936 -0.047,1.352 -0.327,1.6124 -1.1,1.7344 v 0.0188 c 0.79,0.139 1.22816,0.74393 1.22816,1.53592 0,0.83896 -0.41893,1.67816 -1.61096,1.67816 z m 0.85776,-0.74732 h 1.29528 c 0.661,0 0.90312,-0.53944 0.90312,-1.02344 0,-0.588 -0.2985,-1.11872 -0.91248,-1.11872 h -1.28592 z"
   id="path33" /><path
   style="display:inline;fill:#ffffff;fill-opacity:1"
   d="m 459.07234,451.00192 v -0.74688 h 1.77032 v -5.97968 h 0.85624 v 5.97968 h 1.77032 v 0.74688 z"
   id="path32" /><path
   style="display:inline;fill:#ffffff;fill-opacity:1"
   d="m 456.76866,451.14098 c -1.12896,0 -1.97656,-0.63456 -1.97656,-1.82656 0,-2.02304 3.01872,-1.85272 3.01872,-3.34376 0,-0.80096 -0.52156,-1.09064 -1.2016,-1.09064 -0.549,0 -1.12816,0.28913 -1.12816,1.20312 v 0.19531 h -0.84688 c -0.019,-0.643 -0.0199,-2.16232 1.96408,-2.14528 1.11,0 2.08904,0.459 2.08904,1.87504 0,2.132 -3.01872,1.91904 -3.01872,3.4 0,0.727 0.52137,0.98752 1.0344,0.98752 0.81,0 1.04184,-0.48487 1.0328,-1.22184 h 0.89376 c 0.058,1.37 -0.63194,1.9672 -1.86096,1.9672 z"
   id="path26" /><path
   style="display:inline;fill:#ffffff;fill-opacity:1"
   d="m 463.4184,482.6768 c -0.263,0 -0.49518,-0.15813 -0.59219,-0.40313 0,0 -2.32832,-5.97112 -2.59528,-6.65312 -0.731,-0.04 -7.0984,-0.375 -7.0984,-0.375 -0.337,-0.018 -0.60156,-0.29937 -0.60156,-0.63437 0,-0.01 0.002,-0.0224 0.002,-0.0344 0.018,-0.349 0.31731,-0.617 0.67031,-0.6 l 7.50472,0.39687 c 0.247,0.012 0.46838,0.17113 0.55938,0.40313 0,0 1.4216,3.65176 2.1516,5.51872 0.725,-1.864 2.14064,-5.49688 2.14064,-5.49688 0.09,-0.232 0.30712,-0.38813 0.55312,-0.40313 0,0 3.87528,-0.22093 5.85624,-0.33593 -1.528,-1.268 -4.52344,-3.75936 -4.52344,-3.75936 -0.149,-0.122 -0.23124,-0.3005 -0.23124,-0.48751 0,-0.054 0.006,-0.10581 0.0187,-0.15781 0,0 0.9628,-3.75896 1.45784,-5.68592 -1.668,1.07504 -4.91872,3.17184 -4.91872,3.17184 -0.207,0.135 -0.47694,0.13568 -0.68594,0.005 0,0 -3.28552,-2.094 -4.98752,-3.17504 0.519,1.872 1.4516,5.24216 1.4516,5.24216 0.012,0.055 0.0219,0.11375 0.0219,0.16875 0,0.279 -0.18418,0.53193 -0.46718,0.61093 -0.337,0.093 -0.68925,-0.10475 -0.78125,-0.44375 l -1.88752,-6.8328 c -0.07,-0.251 0.0218,-0.52213 0.23282,-0.67813 0.212,-0.156 0.49831,-0.164 0.72031,-0.025 0,0 5.41992,3.45016 6.03592,3.84216 0.61,-0.395 5.93904,-3.83128 5.93904,-3.83128 0.221,-0.142 0.50162,-0.13481 0.71562,0.0172 0.167,0.122 0.26563,0.31306 0.26563,0.51406 0,0.052 -0.009,0.10782 -0.0219,0.15782 0,0 -1.5824,6.17176 -1.75936,6.86872 0.551,0.459 5.45472,4.53128 5.45472,4.53128 0.147,0.123 0.22968,0.30406 0.22968,0.48906 0,0.068 -0.0108,0.13187 -0.0328,0.19687 -0.08,0.248 -0.30563,0.42094 -0.56563,0.43594 0,0 -6.32728,0.36325 -7.05624,0.40625 -0.267,0.679 -2.5844,6.6328 -2.5844,6.6328 -0.094,0.244 -0.33062,0.40313 -0.59062,0.40313 z"
   id="path3" />
  </g>
<text
   xml:space="preserve"
   transform="matrix(1.0000129,0,0,1.0000129,0,-8.6750308e-4)"
   id="text34"
   style="font-size:13.3333px;line-height:0.8;font-family:Roboto;-inkscape-font-specification:Roboto;text-align:start;writing-mode:lr-tb;direction:ltr;white-space:pre;shape-inside:url(#rect34);display:inline;fill:#ffffff;fill-opacity:1;stroke-width:0.377953" /><text
   xml:space="preserve"
   style="font-size:32.0004px;line-height:0.8;font-family:Roboto;-inkscape-font-specification:Roboto;text-align:start;writing-mode:lr-tb;direction:ltr;text-anchor:start;fill:#ffffff;fill-opacity:1;stroke-width:0.377958"
   x="18.338722"
   y="135.70587"
   id="text35"><tspan
     sodipodi:role="line"
     id="tspan35"
     style="font-style:normal;font-variant:normal;font-weight:900;font-stretch:normal;font-size:32.0004px;font-family:Roboto;-inkscape-font-specification:'Roboto Heavy';stroke-width:0.377958"
     x="18.338722"
     y="135.70587">(∠・ω&lt; )⌒</tspan></text><path
   style="font-size:42.6672px;line-height:0.8;font-family:Carlito;-inkscape-font-specification:Carlito;fill:#ffffff;stroke-width:0.382108"
   d="m 33.278448,229.1811 q 0.283105,0 0.525767,0.26326 l 1.455971,1.71114 q -1.435749,2.06215 -3.538818,3.20291 -2.10307,1.14076 -5.035234,1.14076 -2.588392,0 -4.691461,-1.07495 -2.082847,-1.07495 -3.579262,-3.00547 -1.476193,-1.95246 -2.285065,-4.6508 -0.788651,-2.72028 -0.788651,-5.989 0,-3.26872 0.849316,-5.96706 0.849318,-2.72028 2.386174,-4.67274 1.536859,-1.95245 3.680371,-3.02741 2.143514,-1.07495 4.731906,-1.07495 2.568172,0 4.509466,0.98721 1.961516,0.98719 3.417487,2.67639 l -1.213309,1.84278 q -0.121331,0.19744 -0.303329,0.32906 -0.181994,0.13163 -0.465099,0.13163 -0.343771,0 -0.76843,-0.39488 -0.404438,-0.39488 -1.071756,-0.85557 -0.66732,-0.48263 -1.658191,-0.87752 -0.990868,-0.39487 -2.46706,-0.39487 -1.739076,0 -3.195048,0.76781 -1.435749,0.76783 -2.487284,2.23766 -1.031312,1.44789 -1.617745,3.55391 -0.566211,2.08408 -0.566211,4.73855 0,2.67641 0.606654,4.78242 0.606656,2.10603 1.65819,3.55392 1.051534,1.44789 2.467062,2.21571 1.435748,0.76782 3.073715,0.76782 1.011092,0 1.799743,-0.15356 0.808872,-0.15357 1.476192,-0.4607 0.687542,-0.32906 1.273974,-0.81169 0.606656,-0.50457 1.193088,-1.18464 0.323549,-0.30713 0.626877,-0.30713 z m 9.848026,6.01094 h -3.680372 v -28.82618 h 3.680372 z m 27.198346,0 h -2.851276 q -0.485324,0 -0.788651,-0.26325 -0.283105,-0.26326 -0.44488,-0.65813 l -2.264844,-6.93233 H 53.014945 l -2.244622,6.91038 q -0.121331,0.37296 -0.465102,0.65814 -0.323549,0.28519 -0.788652,0.28519 h -2.851276 l 9.969356,-28.82618 h 3.741036 z M 53.945148,224.48643 h 9.099818 l -3.761259,-11.60507 q -0.202217,-0.5265 -0.404435,-1.22851 -0.202218,-0.702 -0.384215,-1.5137 -0.202218,0.83363 -0.404437,1.53564 -0.202218,0.70201 -0.384215,1.22852 z m 22.992205,7.34914 h 10.252461 v 3.35647 H 73.256982 v -28.82618 h 3.680371 z m 17.410977,0 h 10.25246 v 3.35647 H 90.667965 v -28.82618 h 3.680365 z m 35.99485,-11.05662 q 0,3.24679 -0.88978,5.94512 -0.86952,2.69834 -2.48728,4.6508 -1.59752,1.95246 -3.86237,3.04935 -2.24462,1.07495 -4.99478,1.07495 -2.72994,0 -4.99479,-1.07495 -2.26485,-1.09689 -3.88259,-3.04935 -1.61775,-1.95246 -2.50751,-4.6508 -0.88976,-2.69833 -0.88976,-5.94512 0,-3.22485 0.88976,-5.92319 0.88976,-2.72028 2.50751,-4.67274 1.61774,-1.97439 3.88259,-3.04934 2.26485,-1.09689 4.99479,-1.09689 2.75016,0 4.99478,1.09689 2.26485,1.07495 3.86237,3.04934 1.61776,1.95246 2.48728,4.67274 0.88978,2.69834 0.88978,5.92319 z m -3.76127,0 q 0,-2.63252 -0.60666,-4.71661 -0.58643,-2.10603 -1.69863,-3.55392 -1.09197,-1.46983 -2.66928,-2.23764 -1.55708,-0.78976 -3.49837,-0.78976 -1.94131,0 -3.51859,0.78976 -1.5571,0.76781 -2.66929,2.23764 -1.1122,1.44789 -1.71886,3.55392 -0.58642,2.08409 -0.58642,4.71661 0,2.63253 0.58642,4.73855 0.60666,2.08409 1.71886,3.55392 1.11219,1.44788 2.66929,2.21571 1.57728,0.76781 3.51859,0.76781 1.94129,0 3.49837,-0.76781 1.57731,-0.76783 2.66928,-2.21571 1.1122,-1.46983 1.69863,-3.55392 0.60666,-2.10602 0.60666,-4.73855 z"
   id="text37"
   aria-label="CIALLO" /></svg>
