<?xml version="1.0" encoding="UTF-8" standalone="no"?>
<!-- Created with Inkscape (http://www.inkscape.org/) -->

<svg
   width="600"
   height="150"
   viewBox="0 0 158.75 39.687499"
   version="1.1"
   id="svg1"
   inkscape:version="1.4 (e7c3feb100, 2024-10-09)"
   sodipodi:docname="code-apple.svg"
   xmlns:inkscape="http://www.inkscape.org/namespaces/inkscape"
   xmlns:sodipodi="http://sodipodi.sourceforge.net/DTD/sodipodi-0.dtd"
   xmlns="http://www.w3.org/2000/svg"
   xmlns:svg="http://www.w3.org/2000/svg">
  <sodipodi:namedview
     id="namedview1"
     pagecolor="#ffffff"
     bordercolor="#000000"
     borderopacity="0.25"
     inkscape:showpageshadow="2"
     inkscape:pageopacity="0.0"
     inkscape:pagecheckerboard="0"
     inkscape:deskcolor="#d1d1d1"
     inkscape:document-units="mm"
     inkscape:zoom="0.84007435"
     inkscape:cx="245.81157"
     inkscape:cy="138.6782"
     inkscape:window-width="2194"
     inkscape:window-height="1158"
     inkscape:window-x="0"
     inkscape:window-y="0"
     inkscape:window-maximized="1"
     inkscape:current-layer="text1" />
  <defs
     id="defs1">
    <rect
       x="104.75263"
       y="302.35419"
       width="263.07196"
       height="149.98672"
       id="rect2" />
    <rect
       x="179.74599"
       y="376.15717"
       width="540.42834"
       height="166.65192"
       id="rect1" />
  </defs>
  <g
     inkscape:label="图层 1"
     inkscape:groupmode="layer"
     id="layer1"
     transform="translate(-39.948702,-111.91294)">
    <g
       id="text1"
       style="font-weight:500;font-size:48px;line-height:1.2;font-family:'FiraCode Nerd Font';-inkscape-font-specification:'FiraCode Nerd Font Medium';text-align:center;letter-spacing:0px;word-spacing:0px;text-anchor:middle;white-space:pre;fill:#1d2252;stroke-width:0.377953"
       transform="matrix(0.26458333,0,0,0.26458333,1.4631941,19.004475)"
       aria-label="- #ifdef __APPLE__&#10;+ #if 1">
      <path
         id="rect6"
         style="fill:#ffffff;stroke-width:0.1"
         transform="matrix(3.7795276,0,0,3.7795276,-5.5301833,-71.827937)"
         d="M 39.948704,111.91294 H 198.6987 v 39.6875 H 39.948704 Z" />
      <path
         style="font-weight:600;-inkscape-font-specification:'FiraCode Nerd Font Semi-Bold';text-align:start;text-anchor:start;fill:#aa0000"
         d="m 184.12763,404.13164 v -5.16924 h 20.77539 v 5.16924 z m 78.30158,-9.32924 -1.30461,10.16616 h 3.39692 v 4.43077 h -4.01231 l -0.96,7.55692 h -5.41538 l 0.98461,-7.55692 h -5.53846 l -0.98461,7.55692 h -5.41539 l 0.96,-7.55692 h -3.27384 v -4.43077 h 3.86461 l 1.35385,-10.16616 h -3.39693 v -4.45538 h 3.9877 l 0.96,-7.43385 h 5.44 l -1.03385,7.43385 h 5.58769 l 1.00923,-7.43385 h 5.39077 l -1.00923,7.43385 h 3.32308 v 4.45538 z m -12.28307,10.16616 h 5.53846 l 1.35384,-10.16616 h -5.56307 z m 32.96002,-27.22462 q 1.7723,0 2.90461,1.1077 1.13231,1.10769 1.13231,2.75692 0,1.64923 -1.13231,2.78154 -1.13231,1.10769 -2.90461,1.10769 -1.79693,0 -2.92923,-1.10769 -1.13231,-1.13231 -1.13231,-2.78154 0,-1.64923 1.13231,-2.75692 1.1323,-1.1077 2.92923,-1.1077 z m 4.20923,13.14462 v 21.46461 h 6.86769 v 4.60308 h -20.99692 v -4.60308 h 7.63077 v -16.86153 h -7.38462 v -4.60308 z m 30.72002,-11.10154 q 2.60923,0 4.60308,0.41846 2.01846,0.41846 3.6923,1.13231 l -1.87077,4.38154 q -1.30461,-0.54154 -2.7323,-0.78769 -1.4277,-0.24616 -2.85539,-0.24616 -2.43692,0 -3.56923,0.93539 -1.13231,0.91077 -1.13231,2.92923 v 4.11077 h 8.61539 l -0.71385,4.6523 h -7.90154 v 19.64308 h -6.47384 v -19.64308 h -5.73539 v -4.6523 h 5.73539 v -4.25847 q 0,-3.76615 2.73231,-6.17846 2.75692,-2.43692 7.60615,-2.43692 z m 28.48002,0 6.49846,0.68923 v 36.48 h -5.76 l -0.39384,-3.07692 q -1.20616,1.72307 -3.0277,2.78154 -1.82154,1.03384 -4.23384,1.03384 -3.29846,0 -5.46462,-1.72307 -2.14154,-1.72308 -3.2,-4.82462 -1.03384,-3.12615 -1.03384,-7.26154 0,-3.96308 1.23076,-7.06461 1.25539,-3.12616 3.56924,-4.89847 2.31384,-1.7723 5.51384,-1.7723 3.81539,0 6.30154,2.63384 z m -4.55385,15.21231 q -2.46153,0 -3.88923,2.14154 -1.40307,2.11692 -1.40307,6.76923 0,4.92307 1.30461,6.91692 1.30462,1.99385 3.52,1.99385 1.62462,0 2.85539,-0.96 1.23077,-0.98462 2.16615,-2.43693 v -11.86461 q -0.91077,-1.20616 -2.04308,-1.87077 -1.10769,-0.68923 -2.51077,-0.68923 z m 24.51695,10.90461 q 0.29538,3.6677 2.16615,5.29231 1.87077,1.62462 4.55385,1.62462 1.87077,0 3.52,-0.59077 1.64923,-0.59077 3.24923,-1.64923 l 2.70769,3.71692 q -1.82154,1.52615 -4.35692,2.46154 -2.51077,0.93538 -5.53846,0.93538 -4.23385,0 -7.13846,-1.74769 -2.88,-1.74769 -4.35693,-4.84923 -1.47692,-3.10154 -1.47692,-7.13846 0,-3.88923 1.42769,-7.01539 1.45231,-3.12615 4.18462,-4.94769 2.75692,-1.84615 6.62154,-1.84615 5.36615,0 8.51692,3.49538 3.15077,3.49539 3.15077,9.67385 0,1.42769 -0.12308,2.58461 z m 5.58769,-11.17538 q -2.36308,0 -3.88923,1.69846 -1.50154,1.69846 -1.77231,5.31692 h 10.97846 q -0.0492,-3.29846 -1.35384,-5.14461 -1.30462,-1.87077 -3.96308,-1.87077 z m 34.58464,-14.94154 q 2.60923,0 4.60307,0.41846 2.01847,0.41846 3.69231,1.13231 l -1.87077,4.38154 q -1.30461,-0.54154 -2.73231,-0.78769 -1.42769,-0.24616 -2.85538,-0.24616 -2.43692,0 -3.56923,0.93539 -1.13231,0.91077 -1.13231,2.92923 v 4.11077 h 8.61539 l -0.71385,4.6523 h -7.90154 v 19.64308 h -6.47384 v -19.64308 h -5.73539 v -4.6523 h 5.73539 v -4.25847 q 0,-3.76615 2.7323,-6.17846 2.75693,-2.43692 7.60616,-2.43692 z m 41.40312,46.25231 v -5.24308 h 27.56923 v 5.24308 z m 26.58463,0 v -5.24308 h 27.56923 v 5.24308 z m 50.31387,-16.88616 h -11.2 l -2.11692,7.80308 h -6.96616 l 10.65846,-34.04308 h 8.27077 l 10.63385,34.04308 h -7.16308 z m -9.99385,-5.04615 h 8.73847 l -4.35693,-16.14769 z m 47.28618,-10.33846 q 0,3.96308 -1.69846,6.49846 -1.69846,2.51077 -4.72616,3.71692 -3.00307,1.18154 -6.96615,1.18154 h -3.91385 v 11.79077 h -6.74461 v -34.04308 h 10.01846 q 6.62154,0 10.31385,2.68308 3.71692,2.68308 3.71692,8.17231 z m -6.99077,0.0492 q 0,-3.15077 -1.79692,-4.55385 -1.79693,-1.42769 -4.99693,-1.42769 h -3.52 v 12.33231 h 3.71693 q 3.00307,0 4.8,-1.42769 1.79692,-1.45231 1.79692,-4.92308 z m 36.52925,-0.0492 q 0,3.96308 -1.69846,6.49846 -1.69846,2.51077 -4.72615,3.71692 -3.00308,1.18154 -6.96616,1.18154 h -3.91384 v 11.79077 h -6.74462 v -34.04308 h 10.01846 q 6.62154,0 10.31385,2.68308 3.71692,2.68308 3.71692,8.17231 z m -6.99077,0.0492 q 0,-3.15077 -1.79692,-4.55385 -1.79692,-1.42769 -4.99692,-1.42769 h -3.52 v 12.33231 h 3.71692 q 3.00308,0 4.8,-1.42769 1.79692,-1.45231 1.79692,-4.92308 z m 13.80925,23.13846 v -34.04308 h 6.74462 v 28.57847 h 15.01538 l -0.71384,5.46461 z m 36.11079,-29.07077 v 9.32923 h 12.06154 v 4.89846 h -12.06154 v 9.89539 h 14.64616 v 4.94769 h -21.39077 v -34.04308 h 21.21846 l -0.68923,4.97231 z m 20.11079,38.15385 v -5.24308 h 27.56924 v 5.24308 z m 26.58464,0 v -5.24308 h 27.56923 v 5.24308 z"
         id="path5" />
      <path
         style="font-weight:600;-inkscape-font-specification:'FiraCode Nerd Font Semi-Bold';text-align:start;text-anchor:start;fill:#44aa00"
         d="m 197.27225,446.64241 v 9.99385 h 9.82154 v 5.12 h -9.82154 v 9.99384 h -5.58769 v -9.99384 h -9.7477 v -5.12 h 9.7477 v -9.99385 z m 65.15696,5.76 -1.30461,10.16615 h 3.39692 v 4.43077 h -4.01231 l -0.96,7.55693 h -5.41538 l 0.98461,-7.55693 h -5.53846 l -0.98461,7.55693 h -5.41539 l 0.96,-7.55693 h -3.27384 v -4.43077 h 3.86461 l 1.35385,-10.16615 h -3.39693 v -4.45538 h 3.9877 l 0.96,-7.43385 h 5.44 l -1.03385,7.43385 h 5.58769 l 1.00923,-7.43385 h 5.39077 l -1.00923,7.43385 h 3.32308 v 4.45538 z m -12.28307,10.16615 h 5.53846 l 1.35384,-10.16615 h -5.56307 z m 32.96002,-27.22461 q 1.7723,0 2.90461,1.10769 1.13231,1.10769 1.13231,2.75692 0,1.64924 -1.13231,2.78154 -1.13231,1.1077 -2.90461,1.1077 -1.79693,0 -2.92923,-1.1077 -1.13231,-1.1323 -1.13231,-2.78154 0,-1.64923 1.13231,-2.75692 1.1323,-1.10769 2.92923,-1.10769 z m 4.20923,13.14461 v 21.46462 h 6.86769 v 4.60308 h -20.99692 v -4.60308 h 7.63077 v -16.86154 h -7.38462 v -4.60308 z m 30.72002,-11.10153 q 2.60923,0 4.60308,0.41846 2.01846,0.41846 3.6923,1.13231 l -1.87077,4.38153 q -1.30461,-0.54153 -2.7323,-0.78769 -1.4277,-0.24615 -2.85539,-0.24615 -2.43692,0 -3.56923,0.93538 -1.13231,0.91077 -1.13231,2.92923 v 4.11077 h 8.61539 l -0.71385,4.65231 h -7.90154 v 19.64308 h -6.47384 v -19.64308 h -5.73539 v -4.65231 h 5.73539 v -4.25846 q 0,-3.76615 2.73231,-6.17846 2.75692,-2.43692 7.60615,-2.43692 z m 65.47696,32.1723 v 4.99693 H 362.2693 v -4.99693 h 8.24615 v -22.49846 l -7.26154,4.50462 -2.78154,-4.50462 10.68308,-6.54769 h 5.73539 v 29.04615 z"
         id="path6" />
    </g>
  </g>
</svg>
