<?xml version="1.0" encoding="UTF-8" standalone="no"?>
<!-- Created with Inkscape (http://www.inkscape.org/) -->

<svg
   width="165.20166mm"
   height="232.81804mm"
   viewBox="0 0 165.20166 232.81804"
   version="1.1"
   id="svg1"
   inkscape:version="1.3.2 (091e20ef0f, 2023-11-25, custom)"
   sodipodi:docname="fire.svg"
   xmlns:inkscape="http://www.inkscape.org/namespaces/inkscape"
   xmlns:sodipodi="http://sodipodi.sourceforge.net/DTD/sodipodi-0.dtd"
   xmlns="http://www.w3.org/2000/svg"
   xmlns:svg="http://www.w3.org/2000/svg">
  <sodipodi:namedview
     id="namedview1"
     pagecolor="#ffffff"
     bordercolor="#000000"
     borderopacity="0.25"
     inkscape:showpageshadow="2"
     inkscape:pageopacity="0.0"
     inkscape:pagecheckerboard="0"
     inkscape:deskcolor="#d1d1d1"
     inkscape:document-units="mm"
     inkscape:zoom="0.59717191"
     inkscape:cx="-302.25802"
     inkscape:cy="293.04794"
     inkscape:window-width="2194"
     inkscape:window-height="1158"
     inkscape:window-x="0"
     inkscape:window-y="0"
     inkscape:window-maximized="1"
     inkscape:current-layer="layer1" />
  <defs
     id="defs1">
    <rect
       x="124.24646"
       y="86.623764"
       width="579.58087"
       height="225.48174"
       id="rect32" />
  </defs>
  <g
     inkscape:label="图层 1"
     inkscape:groupmode="layer"
     id="layer1"
     transform="translate(-22.39917,-29.225232)">
    <g
       id="g2"
       style="display:inline"
       transform="translate(0.24193335)">
      <path
         d="m 60.712922,160.36118 a 53.57288,12.053899 0 0 0 44.045378,5.25084 53.57288,12.053899 0 0 0 44.11617,-5.26014 57.144402,14.136097 0 0 0 -44.11617,-5.15421 57.144402,14.136097 0 0 0 -44.045378,5.16351 z"
         style="display:inline;fill:#dd2e44;fill-opacity:1;stroke-width:3.57152"
         id="path29" />
      <path
         fill="#88c9f9"
         d="m 51.185175,169.1836 17.093322,82.79511 c 0,0 7.907364,10.06456 36.479563,10.06456 28.57221,0 36.47957,-10.06456 36.47957,-10.06456 l 17.09331,-82.79511 z"
         id="path1"
         style="display:inline;fill:#b5c4d3;fill-opacity:1;stroke-width:3.57152" />
      <path
         d="m 51.575496,154.89743 a 53.57288,12.053899 0 0 0 53.182804,10.71459 53.57288,12.053899 0 0 0 53.22828,-10.71459 z"
         style="display:inline;fill:#dd2e44;fill-opacity:1;stroke-width:3.57152"
         id="path27" />
      <path
         d="M 51.575496,154.89743 H 157.98658 a 53.57288,12.053899 0 0 0 0.34416,-1.33945 53.57288,12.053899 0 0 0 -53.57244,-12.05353 53.57288,12.053899 0 0 0 -53.572961,12.05353 53.57288,12.053899 0 0 0 0.390157,1.33945 z"
         style="display:inline;fill:#dd2e44;fill-opacity:1;stroke-width:3.57152"
         id="path26" />
      <path
         d="M 104.7583,169.18338 A 57.144402,14.2861 0 0 1 47.613464,154.89743 v 14.28595 z"
         style="display:inline;fill:#dd2e44;fill-opacity:1;stroke-width:3.57152"
         id="path25" />
      <path
         d="m 161.90262,154.89743 a 57.144402,14.2861 0 0 1 -57.14432,14.28595 h 57.14432 z"
         style="display:inline;fill:#dd2e44;fill-opacity:1;stroke-width:3.57152"
         id="path23" />
      <path
         d="M 104.7583,141.50445 A 53.57288,12.053899 0 0 0 51.185339,153.55798 53.57288,12.053899 0 0 0 104.7583,165.61202 53.57288,12.053899 0 0 0 158.33074,153.55798 53.57288,12.053899 0 0 0 104.7583,141.50445 Z"
         style="display:inline;fill:#a0041e;fill-opacity:1;stroke-width:3.57152"
         id="path21" />
      <path
         fill="#99aab5"
         d="m 104.75806,231.37458 c -34.265212,0 -62.137392,-28.30076 -62.137392,-63.08385 a 3.5715253,3.5715253 0 0 1 7.143042,0 c 0,30.84727 24.672102,55.9408 54.99435,55.9408 30.32582,0 54.99436,-25.09353 54.99436,-55.9408 a 3.5715253,3.5715253 0 1 1 7.14304,0 c 0,34.78309 -27.87218,63.08385 -62.1374,63.08385"
         id="path4"
         style="display:inline;fill:#ffcc4d;fill-opacity:1;stroke-width:3.57152" />
      <path
         fill="#292f33"
         d="m 131.20879,222.13505 c 0,6.26087 -11.84319,11.33601 -26.45073,11.33601 -14.607532,0 -26.450719,-5.07514 -26.450719,-11.33601 0,-6.26089 7.557356,0 26.450719,0 18.89337,0 26.45073,-6.26089 26.45073,0"
         id="path5"
         style="display:inline;stroke-width:3.57152"
         inkscape:label="path5" />
      <path
         d="m 104.7583,140.61148 a 57.144402,14.2861 0 0 0 -57.144836,14.28595 h 3.962032 a 53.57288,12.053899 0 0 1 -0.390157,-1.33945 53.57288,12.053899 0 0 1 53.572961,-12.05353 53.57288,12.053899 0 0 1 53.57244,12.05353 53.57288,12.053899 0 0 1 -0.34416,1.33945 h 3.91604 A 57.144402,14.2861 0 0 0 104.7583,140.61148 Z"
         style="display:inline;fill:#ea596e;fill-opacity:1;stroke-width:3.57152"
         id="path22" />
      <path
         fill="#f4900c"
         d="m 159.19713,127.4554 a 53.834105,53.834105 0 0 0 -3.30115,-18.62615 c -1.46012,17.10566 -10.57955,25.89183 -20.10843,21.80028 -8.92579,-3.83432 -2.91073,-18.78162 -2.46634,-25.91402 0.74909,-12.090365 -0.0384,-25.929875 -22.00024,-37.436225 9.12577,17.45801 1.05704,28.30417 -7.40537,28.96436 -9.38923,0.73302 -17.988083,-8.06875 -14.813906,-22.35251 -10.277999,7.57353 -10.576362,20.32108 -7.405365,28.567635 3.307499,8.59566 -0.133285,15.73754 -8.1989,16.53113 -9.014677,0.88897 -14.02354,-9.65271 -9.405104,-26.450535 A 53.757925,53.757925 0 0 0 51.274989,127.4554 c 0,29.80234 24.158681,53.9611 53.961061,53.9611 29.80239,0 53.96108,-24.15876 53.96108,-53.9611"
         id="path1-3"
         style="stroke-width:3.17418"
         inkscape:label="path1-3" />
      <path
         fill="#ffcc4d"
         d="m 138.2285,143.32309 c 0.4698,9.78924 -8.12908,13.62681 -12.75704,11.77304 -6.68482,-2.67578 -4.89141,-7.27204 -6.61182,-16.79458 -1.7204,-9.52253 -8.33222,-16.13439 -18.11823,-19.04509 7.14192,20.10214 -3.958195,27.51058 -9.776465,28.83432 -5.942066,1.35217 -11.912709,-0.003 -12.595153,-12.71899 a 37.975898,37.975898 0 0 0 -11.223907,26.99963 c 0,1.1685 0.07318,2.31708 0.174555,3.45978 9.744737,9.63052 23.130258,15.5853 37.91559,15.5853 14.78534,0 28.17085,-5.95478 37.91559,-15.5853 0.10197,-1.1421 0.17455,-2.29176 0.17455,-3.45978 0,-6.94201 -1.85371,-13.44589 -5.09772,-19.04833"
         id="path2-5"
         style="stroke-width:3.17418"
         inkscape:label="path2-5" />
      <path
         d="m 153.91654,162.13213 a 57.144402,14.2861 0 0 1 -49.15824,7.05125 57.144402,14.2861 0 0 1 -49.106567,-7.03006 57.144402,14.136097 0 0 0 -8.038269,7.18044 57.144402,14.136097 0 0 0 57.144836,14.13609 57.144402,14.136097 0 0 0 57.14432,-14.13609 57.144402,14.136097 0 0 0 -7.98608,-7.20163 z"
         style="display:inline;fill:#dd2e44;fill-opacity:1;stroke-width:3.57152"
         id="path32"
         inkscape:label="path32" />
      <path
         d="m 148.87447,160.35188 a 57.144402,14.136097 0 0 1 5.04207,1.78025 57.144402,14.2861 0 0 0 7.98608,-7.2347 h -3.91604 a 53.57288,12.053899 0 0 1 -9.11211,5.45445 z"
         style="display:inline;fill:#ea596e;fill-opacity:1;stroke-width:3.57152"
         id="path31" />
      <path
         d="m 60.712922,160.36118 a 57.144402,14.136097 0 0 0 -5.061189,1.79214 57.144402,14.2861 0 0 0 49.106567,7.03006 57.144402,14.2861 0 0 0 49.15824,-7.05125 57.144402,14.136097 0 0 0 -5.04207,-1.78025 53.57288,12.053899 0 0 1 -44.11617,5.26014 53.57288,12.053899 0 0 1 -44.045378,-5.25084 z"
         style="display:inline;fill:#ea596e;fill-opacity:1;stroke-width:3.57152"
         id="path30" />
      <path
         d="m 47.613464,154.89743 a 57.144402,14.2861 0 0 0 8.038269,7.25589 57.144402,14.136097 0 0 1 5.061189,-1.79214 53.57288,12.053899 0 0 1 -9.137426,-5.46375 z"
         style="display:inline;fill:#ea596e;fill-opacity:1;stroke-width:3.57152"
         id="path28" />
    </g>
    <g
       id="text33"
       style="font-weight:300;font-size:17.6389px;font-family:Roboto;-inkscape-font-specification:'Roboto Light';fill:#ffcc4d;stroke-width:0.264583"
       aria-label="全部 CPU 核心 100℃&#10;8小时 高温烘烤"
       transform="translate(-5.0000001e-7,13.257203)">
      <path
         style="font-weight:bold;-inkscape-font-specification:'Roboto Bold';text-align:center;text-anchor:middle;fill:#ff4d4d"
         d="m 30.565982,15.968029 c -1.76389,2.769307 -4.991809,5.044725 -8.166811,6.367643 0.529167,0.493889 1.146528,1.217084 1.44639,1.76389 0.564445,-0.282222 1.128889,-0.582084 1.693334,-0.917223 v 1.199445 h 4.286253 v 2.046113 H 25.78584 v 1.834446 h 4.039308 v 2.134307 h -6.367643 v 1.887362 h 15.08126 V 30.39665 H 32.04765 v -2.134307 h 4.198058 V 26.427897 H 32.04765 v -2.046113 h 4.356808 v -1.128889 c 0.546806,0.3175 1.111251,0.635 1.693334,0.934861 0.282223,-0.617361 0.899584,-1.340556 1.411113,-1.816806 -2.804586,-1.234723 -5.274032,-2.804586 -7.373061,-5.044726 l 0.3175,-0.47625 z m -3.951114,6.544032 c 1.569862,-1.040695 3.05153,-2.275418 4.303892,-3.668891 1.358195,1.464028 2.769307,2.645835 4.321531,3.668891 z M 50.49794,16.973446 v 15.628066 h 1.869723 V 18.878447 h 1.957918 c -0.388056,1.358196 -0.9525,3.157364 -1.44639,4.445003 1.340557,1.411112 1.710974,2.681113 1.710974,3.651253 0,0.599722 -0.105834,1.040695 -0.405695,1.217084 -0.176389,0.105833 -0.405695,0.15875 -0.635,0.176389 -0.282223,0 -0.617362,0 -1.005418,-0.05292 0.3175,0.564445 0.476251,1.428751 0.511528,1.975557 0.476251,0.01764 0.97014,0 1.358196,-0.05292 0.458611,-0.05292 0.864306,-0.176389 1.181806,-0.423333 0.652639,-0.458612 0.934862,-1.322918 0.934862,-2.592919 0,-1.146528 -0.264584,-2.55764 -1.693335,-4.145141 0.670279,-1.534585 1.411112,-3.563058 2.010835,-5.274032 l -1.481668,-0.917222 -0.299861,0.08819 z m -6.773338,2.998613 h 3.033891 c -0.229306,0.881945 -0.617362,2.010835 -1.005418,2.857502 h -2.187223 l 1.128889,-0.3175 c -0.15875,-0.705556 -0.529167,-1.728612 -0.970139,-2.540002 z m 0,-3.439585 c 0.194028,0.458611 0.405695,1.040695 0.564445,1.552223 h -3.351391 v 1.887362 h 2.381251 l -1.464029,0.370417 c 0.388056,0.758473 0.758473,1.76389 0.917223,2.487085 h -2.275418 v 1.905001 h 9.383895 V 22.829561 H 47.76391 c 0.352778,-0.758473 0.723195,-1.675695 1.093612,-2.540002 l -1.428751,-0.3175 h 2.046112 v -1.887362 h -2.980974 c -0.194028,-0.617362 -0.529167,-1.44639 -0.846667,-2.099029 z m -2.41653,9.472089 v 6.667505 h 1.975557 v -0.793751 h 3.810003 v 0.705556 h 2.099029 v -6.57931 z m 1.975557,4.039308 v -2.151945 h 3.810003 v 2.151945 z m 29.079162,-3.101208 q -0.146417,2.023995 -1.498618,3.186716 -1.343588,1.16272 -3.548451,1.16272 -2.411568,0 -3.79822,-1.619196 -1.378039,-1.627808 -1.378039,-4.461401 v -0.766535 q 0,-1.808676 0.637343,-3.186715 0.637343,-1.378039 1.817289,-2.110122 1.188559,-0.740696 2.756078,-0.740696 2.170412,0 3.496775,1.16272 1.326362,1.162721 1.533068,3.26423 h -2.583823 q -0.09474,-1.214397 -0.680407,-1.757 -0.577054,-0.551215 -1.765613,-0.551215 -1.291911,0 -1.937867,0.930176 -0.637343,0.921564 -0.654569,2.868044 v 0.947402 q 0,2.032608 0.611505,2.971397 0.620118,0.938789 1.94648,0.938789 1.197172,0 1.782838,-0.542603 0.59428,-0.551216 0.680407,-1.696711 z m 4.280536,-0.241156 v 4.418337 H 74.059504 V 18.579688 h 4.892039 q 1.41249,0 2.48047,0.516765 1.076593,0.516765 1.653647,1.472779 0.577054,0.947402 0.577054,2.161799 0,1.843128 -1.266073,2.911108 -1.257461,1.059368 -3.488162,1.059368 z m 0,-2.092897 h 2.308216 q 1.024917,0 1.558907,-0.482314 0.542603,-0.482314 0.542603,-1.378039 0,-0.921564 -0.542603,-1.490005 -0.542603,-0.568441 -1.498618,-0.585667 h -2.368505 z m 18.284855,-6.028922 v 8.259622 q 0,2.058446 -1.291911,3.255618 -1.283299,1.197171 -3.514,1.197171 -2.19625,0 -3.488162,-1.16272 -1.291911,-1.162721 -1.31775,-3.195328 v -8.354363 h 2.583824 v 8.276848 q 0,1.231622 0.585666,1.800064 0.59428,0.559828 1.636422,0.559828 2.179024,0 2.213475,-2.29099 v -8.34575 z m 20.190618,5.960846 c -1.44639,2.804586 -4.7625,5.238754 -8.92529,6.402921 0.38806,0.440973 0.97014,1.270001 1.23473,1.763891 2.1343,-0.670279 4.05694,-1.640418 5.69736,-2.857502 1.05834,0.899584 2.2225,1.957918 2.82223,2.698751 l 1.62278,-1.375834 c -0.65264,-0.723195 -1.85209,-1.746251 -2.92806,-2.575279 1.05833,-0.987779 1.95792,-2.09903 2.66347,-3.280836 z m -4.30389,-7.972783 c 0.24694,0.49389 0.45861,1.111251 0.61736,1.658057 h -4.14514 v 1.92264 h 2.94569 c -0.5468,0.881945 -1.23472,1.940279 -1.51694,2.257779 -0.33514,0.352778 -0.97014,0.49389 -1.39348,0.582084 0.15875,0.440973 0.42334,1.428751 0.49389,1.92264 0.38806,-0.141111 0.97014,-0.264583 3.61598,-0.458611 -1.23472,1.093612 -2.73403,2.063751 -4.35681,2.716391 0.37042,0.388055 0.91722,1.146528 1.18181,1.60514 3.36903,-1.481668 6.15597,-4.074586 7.81403,-6.949727 l -1.9932,-0.670278 c -0.26458,0.493889 -0.58208,1.005417 -0.9525,1.499306 l -2.34597,0.105833 c 0.5468,-0.811389 1.14653,-1.781528 1.65806,-2.610557 h 4.90361 v -1.92264 h -3.63361 c -0.14111,-0.652639 -0.54681,-1.569862 -0.91723,-2.257779 z m -7.58473,-0.440972 v 3.298474 h -2.15195 v 1.957918 h 2.11667 c -0.51153,2.134307 -1.44639,4.621392 -2.52236,5.997226 0.35278,0.564445 0.81139,1.534585 1.00542,2.134307 0.56444,-0.846667 1.09361,-2.046112 1.55222,-3.36903 v 6.544033 h 2.01083 v -8.060978 c 0.33514,0.705556 0.65264,1.411112 0.82903,1.905001 l 1.21709,-1.428751 c -0.28223,-0.493889 -1.56987,-2.522363 -2.04612,-3.139724 v -0.582084 h 1.78153 v -1.957918 h -1.78153 v -3.298474 z m 19.91432,5.062364 v 8.202089 c 0,2.257779 0.65264,2.963335 2.94569,2.963335 0.45862,0 2.46945,0 2.96334,0 2.16958,0 2.75167,-1.058334 2.99861,-4.409725 -0.58208,-0.141111 -1.4993,-0.529167 -1.99319,-0.899584 -0.12348,2.769308 -0.28223,3.333753 -1.18181,3.333753 -0.45861,0 -2.11667,0 -2.52236,0 -0.84667,0 -0.98778,-0.123473 -0.98778,-0.987779 v -8.202089 z m -3.19264,1.023057 c -0.21167,2.381251 -0.7232,5.027086 -1.3582,6.89681 l 2.15195,0.881945 c 0.59972,-2.010835 1.04069,-5.080004 1.28764,-7.373061 z m 11.00667,0.246944 c 0.93486,2.08139 1.83445,4.885976 2.11667,6.685144 l 2.15195,-0.881945 c -0.37042,-1.834446 -1.28764,-4.515559 -2.29306,-6.614588 z m -7.19667,-4.621392 c 1.64042,1.111251 3.82764,2.804585 4.79778,3.898197 l 1.55222,-1.658056 c -1.05833,-1.093612 -3.29847,-2.663474 -4.92125,-3.668892 z m 23.12701,13.282092 h -2.48908 v -9.594597 l -2.9714,0.921564 v -2.023995 l 5.19349,-1.860353 h 0.26699 z m 12.51432,-5.184872 q 0,2.601049 -1.0766,3.979088 -1.07659,1.378039 -3.15226,1.378039 -2.04983,0 -3.13504,-1.352201 -1.0852,-1.3522 -1.11104,-3.875735 v -2.308215 q 0,-2.626887 1.0852,-3.987701 1.09382,-1.360813 3.14365,-1.360813 2.04984,0 3.13504,1.3522 1.08521,1.343589 1.11105,3.867123 z m -2.48909,-2.532147 q 0,-1.558906 -0.43063,-2.265151 -0.42203,-0.714858 -1.32637,-0.714858 -0.8785,0 -1.30052,0.680407 -0.41341,0.671794 -0.43925,2.110122 v 3.048912 q 0,1.533068 0.41341,2.282377 0.42203,0.740696 1.34359,0.740696 0.91295,0 1.31775,-0.714858 0.4048,-0.714858 0.42202,-2.187637 z m 12.60907,2.532147 q 0,2.601049 -1.0766,3.979088 -1.07659,1.378039 -3.15226,1.378039 -2.04983,0 -3.13504,-1.352201 -1.08521,-1.3522 -1.11104,-3.875735 v -2.308215 q 0,-2.626887 1.0852,-3.987701 1.09382,-1.360813 3.14365,-1.360813 2.04984,0 3.13504,1.3522 1.08521,1.343589 1.11105,3.867123 z m -2.48909,-2.532147 q 0,-1.558906 -0.43063,-2.265151 -0.42203,-0.714858 -1.32637,-0.714858 -0.8785,0 -1.30052,0.680407 -0.41341,0.671794 -0.43925,2.110122 v 3.048912 q 0,1.533068 0.41341,2.282377 0.42203,0.740696 1.34359,0.740696 0.91295,0 1.31775,-0.714858 0.4048,-0.714858 0.42202,-2.187637 z m 6.61438,-0.432153 c 1.53458,0 2.78694,-1.164167 2.78694,-2.804585 0,-1.640418 -1.25236,-2.804585 -2.78694,-2.804585 -1.55223,0 -2.80459,1.164167 -2.80459,2.804585 0,1.640418 1.25236,2.804585 2.80459,2.804585 z m 0,-1.287639 c -0.82903,0 -1.39348,-0.617362 -1.39348,-1.516946 0,-0.881945 0.56445,-1.516945 1.39348,-1.516945 0.82902,0 1.39347,0.635 1.39347,1.516945 0,0.899584 -0.56445,1.516946 -1.39347,1.516946 z m 9.8425,9.683756 c 1.64042,0 3.03389,-0.652639 4.10987,-1.92264 l -1.46403,-1.587501 c -0.68792,0.740834 -1.48167,1.234723 -2.61056,1.234723 -2.06375,0 -3.40431,-1.710974 -3.40431,-4.550837 0,-2.786946 1.46403,-4.48028 3.47487,-4.48028 0.97013,0 1.67569,0.370417 2.32833,1.023056 l 1.44639,-1.622779 c -0.84667,-0.881945 -2.18722,-1.675696 -3.79236,-1.675696 -3.38667,0 -6.13834,2.522363 -6.13834,6.861533 0,4.356808 2.66347,6.720421 6.05014,6.720421 z"
         id="path33" />
      <path
         style="font-weight:bold;-inkscape-font-specification:'Roboto Bold';text-align:center;text-anchor:middle;fill:#ff4d4d"
         d="m 54.100375,46.254504 q 0,0.912951 -0.456475,1.619196 -0.456476,0.706245 -1.257461,1.128269 0.912951,0.43925 1.446941,1.214397 0.53399,0.766534 0.53399,1.808676 0,1.670873 -1.136882,2.644113 -1.136882,0.964627 -3.091975,0.964627 -1.955093,0 -3.100588,-0.97324 -1.145495,-0.97324 -1.145495,-2.6355 0,-1.042142 0.53399,-1.817289 0.53399,-0.775147 1.438328,-1.205784 -0.800985,-0.422024 -1.257461,-1.128269 -0.447862,-0.706245 -0.447862,-1.619196 0,-1.601971 1.06798,-2.549373 1.06798,-0.956014 2.902495,-0.956014 1.825902,0 2.893882,0.947401 1.076593,0.93879 1.076593,2.557986 z m -2.230701,5.589671 q 0,-0.818211 -0.473701,-1.309137 -0.473701,-0.490927 -1.274686,-0.490927 -0.792372,0 -1.266073,0.490927 -0.473701,0.482313 -0.473701,1.309137 0,0.800985 0.465088,1.291911 0.465088,0.490927 1.291912,0.490927 0.809598,0 1.266073,-0.473701 0.465088,-0.473701 0.465088,-1.309137 z m -0.258382,-5.469093 q 0,-0.732083 -0.387574,-1.171333 -0.387573,-0.447863 -1.093818,-0.447863 -0.697632,0 -1.085206,0.430637 -0.387573,0.430638 -0.387573,1.188559 0,0.749309 0.387573,1.205784 0.387574,0.456476 1.093819,0.456476 0.706245,0 1.085205,-0.456476 0.387574,-0.456475 0.387574,-1.205784 z m 11.308741,-5.659676 v 13.670149 c 0,0.352778 -0.141112,0.47625 -0.529168,0.47625 -0.388055,0.01764 -1.693334,0.01764 -2.857501,-0.03528 0.335139,0.582084 0.723195,1.587501 0.846667,2.187224 1.710973,0.01764 2.928057,-0.05292 3.757086,-0.388056 0.79375,-0.352778 1.093612,-0.934862 1.093612,-2.24014 V 40.715406 Z m 4.233336,4.639031 c 1.411112,2.592919 2.751668,5.926671 3.104446,8.078617 L 72.58615,52.515831 C 72.127539,50.29333 70.681149,47.08305 69.234759,44.578326 Z m -8.854728,-0.582083 c -0.370417,2.310696 -1.28764,5.397503 -2.716391,7.196671 0.582084,0.246945 1.552223,0.740834 2.08139,1.111251 1.481668,-1.957918 2.434168,-5.256393 3.033891,-7.902228 z m 22.63071,3.139724 c 0.846667,1.28764 1.993196,3.033891 2.504724,4.056947 l 1.887362,-1.093612 c -0.582083,-1.005417 -1.781529,-2.663474 -2.645835,-3.880558 z m -2.822224,0.758473 v 3.21028 H 75.97282 v -3.21028 z m 0,-1.852085 H 75.97282 v -3.069169 h 2.134307 z m -4.109864,-4.956531 v 13.31737 h 1.975557 v -1.411112 h 4.109864 V 41.861935 Z m 12.012092,-1.270001 v 3.139724 h -5.274032 v 2.09903 h 5.274032 v 8.378478 c 0,0.352778 -0.141112,0.47625 -0.529167,0.47625 -0.388056,0 -1.693335,0 -2.928058,-0.05292 0.3175,0.599723 0.652639,1.552223 0.740834,2.134307 1.76389,0.01764 3.016252,-0.03528 3.792364,-0.370417 0.79375,-0.335139 1.075972,-0.899584 1.075972,-2.169585 v -8.396116 h 1.799168 v -2.09903 H 88.1613 v -3.139724 z m 13.89944,5.397504 h 6.861535 v 0.970139 h -6.861535 z m -2.116668,-1.411112 v 3.792363 h 11.200703 v -3.792363 z m 4.039303,-3.704169 0.42334,1.252362 h -6.808617 v 1.781528 h 15.645707 v -1.781528 h -6.36765 l -0.70555,-1.781529 z m -2.504719,10.58334 v 4.674309 h 1.957919 v -0.723195 h 5.06236 c 0.24695,0.423333 0.51153,1.040695 0.59973,1.499306 1.25236,0 2.18722,0 2.83986,-0.229305 0.67028,-0.264584 0.89958,-0.65264 0.89958,-1.569863 V 49.076245 H 95.922403 v 7.955145 h 2.063752 v -6.226532 h 10.565705 v 4.286253 c 0,0.229305 -0.10584,0.299861 -0.35278,0.299861 h -1.16417 v -3.933475 z m 1.957919,1.464029 h 3.8982 v 1.023056 h -3.8982 z m 19.50862,-7.3907 h 4.76251 v 1.040695 h -4.76251 z m 0,-2.628196 h 4.76251 v 1.023056 h -4.76251 z m -1.99319,-1.710973 v 7.090838 h 8.83709 v -7.090838 z m -5.09764,1.005417 c 1.11125,0.529167 2.55764,1.358195 3.24555,1.957918 l 1.21709,-1.693334 c -0.74084,-0.582084 -2.24014,-1.322918 -3.31612,-1.781529 z m -1.09362,4.797781 c 1.12889,0.511528 2.59292,1.340557 3.29848,1.92264 l 1.14653,-1.710973 c -0.75848,-0.564445 -2.25778,-1.305279 -3.36903,-1.728612 z m 0.33514,8.413756 1.81681,1.270001 c 0.93486,-1.710974 1.94028,-3.721808 2.75167,-5.573893 l -1.5875,-1.270001 c -0.91723,2.028474 -2.13431,4.233336 -2.98098,5.573893 z m 3.95112,-0.705556 v 1.816807 h 12.36487 v -1.816807 h -1.02306 v -5.362226 h -10.00126 v 5.362226 z m 3.22792,0 v -3.580697 h 0.98777 v 3.580697 z m 2.55764,0 v -3.580697 h 0.98777 v 3.580697 z m 2.55764,0 v -3.580697 h 1.00541 v 3.580697 z m 5.69736,-10.548063 c -0.0705,1.44639 -0.3175,3.333752 -0.72319,4.462642 l 1.41111,0.529167 c 0.44097,-1.305279 0.68792,-3.316113 0.68792,-4.81542 z m 7.91987,8.131533 c -0.65264,1.270001 -1.79917,2.557641 -2.96334,3.36903 0.47625,0.317501 1.30528,0.987779 1.69334,1.358196 1.19944,-0.97014 2.50472,-2.57528 3.33375,-4.109864 z m 3.15736,0.881945 c 1.09361,1.181807 2.34597,2.822225 2.89278,3.86292 l 1.85209,-1.164168 c -0.61737,-1.040695 -1.85209,-2.540002 -2.98098,-3.668891 z m 0.51153,-12.558897 v 3.316113 h -2.08139 v -3.316113 h -2.04611 v 3.316113 h -1.55223 v 0.05292 l -1.35819,-0.493889 c -0.15875,0.864306 -0.44097,2.010835 -0.74084,2.963335 V 40.66249 h -1.88736 v 6.050143 c 0,3.05153 -0.26458,6.367643 -2.50472,8.81945 0.44097,0.3175 1.11125,1.040695 1.41111,1.499307 1.25236,-1.340557 1.9932,-2.89278 2.41653,-4.533198 0.51153,0.81139 1.05833,1.693335 1.35819,2.310696 l 1.39348,-1.44639 c -0.33514,-0.47625 -1.76389,-2.434168 -2.34598,-3.139724 0.10584,-0.97014 0.14111,-1.940279 0.15875,-2.910419 l 0.84667,0.352778 c 0.37042,-0.829028 0.82903,-2.099029 1.25236,-3.227918 v 1.516945 h 1.55223 v 3.510141 h -2.11667 v 2.081391 h 10.51278 v -2.081391 h -2.20486 V 45.95416 h 1.97556 v -2.028474 h -1.97556 v -3.316113 z m -2.08139,5.344587 h 2.08139 v 3.510141 h -2.08139 z m 8.07862,-1.799168 c -0.0529,1.44639 -0.28223,3.333752 -0.68792,4.462642 l 1.48167,0.529167 c 0.40569,-1.305279 0.635,-3.316113 0.635,-4.81542 z m 14.02292,-3.069169 c -0.35278,0.758473 -0.75847,1.499307 -1.21708,2.204863 v -0.97014 h -2.16959 v -1.852084 h -2.04611 v 1.852084 h -2.41653 v 1.675696 l -1.53458,-0.564445 c -0.17639,1.040695 -0.52917,2.451807 -0.86431,3.474864 V 46.677355 40.66249 h -1.88736 v 6.014865 c 0,3.033891 -0.24695,6.297087 -2.45181,8.748895 0.42333,0.3175 1.09361,1.040695 1.37583,1.481667 1.21709,-1.287639 1.94028,-2.769307 2.36362,-4.339169 0.5468,0.899584 1.14653,1.940279 1.46403,2.645835 l 1.48166,-1.481668 c -0.35277,-0.529167 -1.95791,-2.910418 -2.50472,-3.580697 0.10583,-0.934861 0.14111,-1.905001 0.15875,-2.839863 l 1.02306,0.440973 c 0.24694,-0.546806 0.51152,-1.270001 0.79375,-2.028474 v 1.675696 h 3.56305 c -1.44639,1.199445 -3.06916,2.204862 -4.83305,2.963335 0.38805,0.388056 1.02305,1.252362 1.27,1.658057 0.74083,-0.352778 1.44639,-0.758473 2.15194,-1.199445 -0.2293,0.864306 -0.45861,1.693334 -0.67028,2.363612 h 5.76793 c -0.15876,1.146529 -0.35278,1.728613 -0.59973,1.940279 -0.21166,0.141112 -0.44097,0.15875 -0.79375,0.15875 -0.47625,0 -1.71097,-0.01764 -2.82222,-0.123472 0.37041,0.511528 0.635,1.28764 0.68791,1.852085 1.14653,0.03528 2.24015,0.03528 2.85751,-0.01764 0.74083,-0.03528 1.23472,-0.15875 1.69333,-0.599723 0.52917,-0.529167 0.81139,-1.710973 1.05834,-4.180419 0.0529,-0.246945 0.0882,-0.776112 0.0882,-0.776112 h -5.46806 l 0.33514,-1.340556 h 5.64445 v -1.693335 h -4.62139 c 0.35277,-0.3175 0.68791,-0.652639 1.02305,-1.005417 h 4.09223 v -1.905001 h -2.46945 c 0.88195,-1.164168 1.65806,-2.41653 2.3107,-3.774725 z m -7.83167,3.033891 h 2.39889 v 1.375835 h -2.91042 z m 4.445,0 h 1.5875 c -0.33514,0.476251 -0.70555,0.934862 -1.11125,1.375835 h -0.47625 z"
         id="path34" />
    </g>
    <path
       style="font-weight:500;font-size:11.2889px;font-family:Roboto;-inkscape-font-specification:'Roboto Medium';text-align:center;text-anchor:middle;fill:#181eff;stroke-width:0.264583"
       d="m 68.598942,196.02663 h 4.888094 v 1.02729 h -4.888094 z m -0.846668,-0.62089 v 2.26907 h 6.615296 v -2.26907 z m 2.596447,-2.39324 0.327379,1.016 h -4.639738 v 0.74506 h 9.911654 v -0.74506 h -4.334938 c -0.124178,-0.36125 -0.293511,-0.83538 -0.451556,-1.20792 z m -3.89467,5.29449 v 4.92196 h 0.812801 v -4.21076 h 7.473252 v 3.33023 c 0,0.12417 -0.05644,0.16933 -0.191912,0.16933 -0.135466,0 -0.666045,0.0113 -1.151467,-0.0113 0.1016,0.18062 0.225778,0.44027 0.270933,0.64347 0.72249,0 1.207913,0 1.512713,-0.1016 0.3048,-0.11289 0.4064,-0.29351 0.4064,-0.7112 v -4.03014 z m 2.088446,1.37725 v 2.88995 h 0.801512 v -0.56444 h 3.996271 v -2.32551 z m 0.801512,0.63217 h 3.228626 v 1.06116 h -3.228626 z m 7.947386,-6.66045 v 0.84667 h 7.80063 v 7.50712 c 0,0.23707 -0.07902,0.3048 -0.327378,0.32738 -0.270933,0 -1.196623,0.0113 -2.099735,-0.0339 0.135467,0.24836 0.293511,0.66605 0.349956,0.9144 1.117601,0 1.907824,0 2.35938,-0.14675 0.440267,-0.14676 0.598312,-0.44027 0.598312,-1.04987 v -7.51841 h 1.388534 v -0.84667 z m 1.975558,3.31894 h 2.968981 v 2.59645 h -2.968981 z m -0.82409,-0.8128 v 5.12516 h 0.82409 v -0.90311 h 3.804359 v -4.22205 z m 12.259746,0.48542 h 5.937961 v 0.85796 h -5.937961 z m -0.82409,-0.57573 v 2.00942 h 7.620008 v -2.00942 z m 3.296359,-3.21734 v 0.73378 h -2.111024 l 0.270933,-0.55316 -0.790223,-0.11289 c -0.225778,0.55316 -0.654756,1.19663 -1.264357,1.70463 0.135467,0.0452 0.304801,0.14675 0.440268,0.24835 h -1.016002 v 0.62089 h 9.787477 v -0.62089 h -4.447827 v -0.68862 h 3.612448 v -0.59831 h -3.612448 v -0.73378 z m -3.036714,2.02071 c 0.214489,-0.21448 0.395111,-0.45155 0.564445,-0.68862 h 2.472269 v 0.68862 z m 4.255915,3.42054 v 4.94454 h 0.846668 v -1.06116 h 3.522137 v -0.63218 h -3.522137 v -0.73377 h 2.957692 v -0.57574 h -2.957692 v -0.7112 h 3.194759 v -0.59831 h -3.194759 v -0.63218 z m -5.904095,3.2512 v 0.58703 h 3.488271 v 1.10631 h 0.846667 v -4.96712 h -0.846667 v 0.66605 h -3.206048 v 0.59831 h 3.206048 v 0.69991 h -2.946403 v 0.58703 h 2.946403 v 0.72248 z m 12.993526,-8.69245 v 2.28036 h -1.704627 v 0.8128 h 1.704627 v 2.40454 c -0.67734,0.18062 -1.29822,0.34995 -1.806227,0.47413 l 0.259644,0.84667 1.546583,-0.45156 v 2.88996 c 0,0.15804 -0.0677,0.21449 -0.22578,0.21449 -0.14675,0.0113 -0.64347,0.0113 -1.17404,0 0.11288,0.22578 0.23706,0.57573 0.27093,0.80151 0.79022,0 1.25307,-0.0226 1.55787,-0.15804 0.29351,-0.13547 0.4064,-0.37254 0.4064,-0.84667 v -3.1496 l 1.69333,-0.50801 -0.11289,-0.80151 -1.58044,0.45156 v -2.16747 h 1.56915 v -0.8128 h -1.56915 v -2.28036 z m 2.47227,0.94827 v 0.84667 h 3.21733 v 7.33778 c 0,0.21449 -0.079,0.28222 -0.3048,0.28222 -0.24835,0.0226 -1.06115,0.0226 -1.89653,-0.0113 0.13547,0.24835 0.29351,0.66604 0.34995,0.9144 1.07245,0 1.78365,-0.0113 2.20134,-0.15805 0.4064,-0.14675 0.55316,-0.44027 0.55316,-1.016 v -7.34907 h 2.00942 v -0.84667 z m 9.99068,-1.00471 c -0.66605,1.54658 -1.78365,3.00284 -3.02543,3.91725 0.2032,0.14675 0.55316,0.46284 0.69991,0.62088 0.68863,-0.56444 1.36596,-1.30951 1.96427,-2.15618 h 5.92667 c -0.0903,3.14961 -0.21448,4.28979 -0.42897,4.56072 -0.1016,0.13547 -0.2032,0.15805 -0.38383,0.14676 -0.19191,0.0113 -0.64346,0 -1.14018,-0.0339 0.12418,0.21449 0.21449,0.55316 0.23707,0.80151 0.51929,0.0339 1.016,0.0339 1.30951,0 0.3048,-0.0339 0.53058,-0.12418 0.72249,-0.38382 0.31609,-0.4064 0.42898,-1.7272 0.55316,-5.4977 0.0113,-0.11288 0.0113,-0.39511 0.0113,-0.39511 h -6.28792 c 0.25965,-0.42898 0.48542,-0.88053 0.68862,-1.33209 z m -0.38383,4.31236 h 2.96898 v 1.84009 h -2.96898 z m -0.83537,-0.75636 v 5.06872 c 0,1.27564 0.53057,1.58044 2.31422,1.58044 0.39511,0 3.84952,0 4.28978,0 1.53529,0 1.86267,-0.42898 2.04329,-1.91911 -0.24835,-0.0452 -0.6096,-0.18062 -0.82409,-0.31609 -0.11289,1.18534 -0.27093,1.43369 -1.24178,1.43369 -0.74506,0 -3.73662,0 -4.32364,0 -1.20792,0 -1.42241,-0.15804 -1.42241,-0.77893 v -1.71592 h 3.79307 v -3.3528 z m 14.19015,-2.21262 h 4.19947 v 2.07715 h -4.19947 z m -0.81281,-0.75636 v 3.60116 h 2.46098 v 1.39982 h -3.29635 v 0.77894 h 2.79964 c -0.76764,1.19662 -1.96427,2.3368 -3.12702,2.91253 0.19191,0.15805 0.45155,0.46285 0.58702,0.66605 1.10631,-0.64347 2.24649,-1.77236 3.03671,-3.02543 v 3.52214 h 0.84667 v -3.556 c 0.75636,1.24178 1.84009,2.42711 2.87867,3.08187 0.14676,-0.21449 0.4064,-0.508 0.59831,-0.67734 -1.09502,-0.58702 -2.24649,-1.7272 -2.96898,-2.92382 h 2.66418 v -0.77894 h -3.17218 v -1.39982 h 2.55129 v -3.60116 z m -1.16275,-0.49671 c -0.65476,1.70462 -1.73849,3.38667 -2.86738,4.4704 0.14675,0.19191 0.39511,0.64347 0.47413,0.83538 0.41769,-0.41769 0.82409,-0.9144 1.2192,-1.45627 v 6.46854 h 0.8128 v -7.7216 c 0.44027,-0.74507 0.83538,-1.54658 1.15147,-2.3481 z m 9.31333,0.76764 c 0.60961,0.53058 1.37725,1.26436 1.74978,1.73849 l 0.58703,-0.58702 c -0.37254,-0.46284 -1.16276,-1.17404 -1.78365,-1.65947 z m 2.82223,8.3425 v 0.79022 h 6.88623 v -0.79022 h -2.68676 v -3.72534 h 2.2352 v -0.80151 h -2.2352 v -2.95769 h 2.4384 v -0.79022 h -6.25405 v 0.79022 h 2.94641 v 7.48454 h -1.52401 v -5.44125 h -0.83537 v 5.44125 z m -3.40925,-5.59929 v 0.8128 h 1.59174 v 3.91725 c 0,0.59831 -0.41769,1.03857 -0.63218,1.2192 0.14675,0.12417 0.41769,0.4064 0.51929,0.57573 0.16933,-0.22578 0.47413,-0.47413 2.40453,-1.98685 -0.1016,-0.16933 -0.25964,-0.508 -0.33866,-0.72249 l -1.12889,0.85796 v -4.6736 z"
       id="text35"
       aria-label="高可靠打包保证" />
  </g>
</svg>
