<?xml version="1.0" encoding="UTF-8" standalone="no"?>
<!-- Created with Inkscape (http://www.inkscape.org/) -->

<svg
   width="149.79556mm"
   height="63.191891mm"
   viewBox="0 0 149.79556 63.191891"
   version="1.1"
   id="svg1"
   xml:space="preserve"
   inkscape:version="1.4 (e7c3feb100, 2024-10-09)"
   sodipodi:docname="free-soft.svg"
   xmlns:inkscape="http://www.inkscape.org/namespaces/inkscape"
   xmlns:sodipodi="http://sodipodi.sourceforge.net/DTD/sodipodi-0.dtd"
   xmlns="http://www.w3.org/2000/svg"
   xmlns:svg="http://www.w3.org/2000/svg"><sodipodi:namedview
     id="namedview1"
     pagecolor="#ffffff"
     bordercolor="#000000"
     borderopacity="0.25"
     inkscape:showpageshadow="2"
     inkscape:pageopacity="0.0"
     inkscape:pagecheckerboard="0"
     inkscape:deskcolor="#d1d1d1"
     inkscape:document-units="mm"
     inkscape:zoom="1.1880445"
     inkscape:cx="261.35385"
     inkscape:cy="33.247913"
     inkscape:window-width="2194"
     inkscape:window-height="1158"
     inkscape:window-x="0"
     inkscape:window-y="0"
     inkscape:window-maximized="1"
     inkscape:current-layer="layer1" /><defs
     id="defs1"><rect
       x="478.93826"
       y="562.26849"
       width="206.52901"
       height="50.924019"
       id="rect15" /><rect
       x="519.34082"
       y="459.9996"
       width="215.36708"
       height="96.523575"
       id="rect13" /><rect
       x="135.61716"
       y="588.36176"
       width="295.34311"
       height="42.085964"
       id="rect12" /><rect
       x="145.19658"
       y="505.87329"
       width="307.7395"
       height="98.481155"
       id="rect4" /><rect
       x="166.65192"
       y="455.91202"
       width="248.78751"
       height="42.853352"
       id="rect2" /></defs><g
     inkscape:label="图层 1"
     inkscape:groupmode="layer"
     id="layer1"
     transform="translate(-31.817657,-111.86482)"><rect
       style="fill:#ffffff;stroke:#000000;stroke-width:0.3;stroke-dasharray:none;stroke-opacity:1;fill-opacity:1"
       id="rect1"
       width="87.871681"
       height="62.675514"
       x="31.967657"
       y="112.12301"
       ry="4.4426856" /><rect
       style="fill:none;stroke:#000000;stroke-width:1;stroke-dasharray:none;stroke-opacity:1"
       id="rect1-06"
       width="80.679382"
       height="54.340057"
       x="35.882038"
       y="116.32057"
       ry="3.8518357" /><rect
       style="fill:#ffffff;stroke:#000000;stroke-width:0.5;stroke-dasharray:none;stroke-opacity:1;fill-opacity:1"
       id="rect1-0"
       width="61.432064"
       height="62.691891"
       x="119.93115"
       y="112.11482"
       ry="4.4438462" /><path
       id="rect1-0-8"
       style="fill:#ae89b9;fill-opacity:1;fill-rule:evenodd;stroke:none;stroke-width:0.5;stroke-dasharray:none"
       d="m 127.45592,116.49419 h 46.79909 c 2.15618,0 3.89202,1.73584 3.89202,3.89202 v 47.12303 c 0,2.15618 -1.73584,3.89202 -3.89202,3.89202 h -46.79909 c -2.15619,0 -3.89203,-1.73584 -3.89203,-3.89202 v -47.12303 c 0,-2.15618 1.73584,-3.89202 3.89203,-3.89202 z m -3.08092,-4.37937 h 52.54437 c 2.46189,0 4.44385,1.98196 4.44385,4.44385 v 53.8042 c 0,2.46189 -1.98196,4.44384 -4.44385,4.44384 H 124.375 c -2.46189,0 -4.44385,-1.98195 -4.44385,-4.44384 v -53.8042 c 0,-2.46189 1.98196,-4.44385 4.44385,-4.44385 z" /><g
       id="text3"
       style="font-weight:bold;font-size:7.76111px;line-height:1.2;font-family:'思源宋体 CN';-inkscape-font-specification:'思源宋体 CN Bold';letter-spacing:0px;word-spacing:0px;fill:none;stroke:#000000"
       aria-label="使用 自由  软件"><path
         style="font-weight:normal;font-family:'思源黑体 CN';-inkscape-font-specification:'思源黑体 CN';fill:#000000;stroke:none"
         d="m 50.373724,122.79963 v 0.83044 h -2.157589 v 0.53552 h 2.157589 v 0.76058 h -1.932516 v 2.14983 h 1.89371 c -0.05433,0.42686 -0.170744,0.83044 -0.4191,1.19521 -0.411338,-0.28716 -0.745066,-0.63641 -0.98566,-1.03999 l -0.48895,0.16299 c 0.287161,0.49671 0.667455,0.91581 1.125361,1.26506 -0.357012,0.32596 -0.884767,0.5976 -1.637595,0.79163 0.124178,0.12418 0.287161,0.34925 0.357011,0.48119 0.807156,-0.24059 1.365956,-0.56656 1.761772,-0.94686 0.783872,0.47343 1.761772,0.78388 2.871611,0.9391 0.07761,-0.17075 0.225072,-0.39582 0.34925,-0.52776 -1.1176,-0.12417 -2.0955,-0.39581 -2.879372,-0.82267 0.310445,-0.45791 0.450145,-0.96238 0.512233,-1.4979 h 2.033411 v -2.14983 h -1.994605 v -0.76058 h 2.250722 v -0.53552 h -2.250722 v -0.83044 z m -1.389239,2.61549 h 1.389239 v 0.81492 l -0.0078,0.34925 h -1.381478 z m 1.9558,0 h 1.435805 v 1.16417 h -1.443566 l 0.0078,-0.34925 z m -3.057877,-2.66206 c -0.457906,1.17969 -1.210733,2.32834 -1.994606,3.0734 0.100895,0.1397 0.263878,0.44239 0.325967,0.57433 0.294922,-0.29493 0.582083,-0.63642 0.853722,-1.01671 v 4.55577 h 0.5588 v -5.40173 c 0.302683,-0.52 0.582083,-1.06327 0.799394,-1.61431 z m 6.790971,0.5588 v 2.81729 c 0,1.09431 -0.07761,2.46803 -0.939094,3.43817 0.131938,0.0699 0.364772,0.26388 0.450144,0.38029 0.597605,-0.65969 0.861483,-1.55222 0.9779,-2.42146 h 1.948038 v 2.31281 h 0.589845 v -2.31281 h 2.095499 v 1.59102 c 0,0.1397 -0.05433,0.18627 -0.20955,0.19403 -0.147461,0.008 -0.675216,0.0155 -1.218494,-0.008 0.07761,0.15522 0.170745,0.41134 0.201789,0.5588 0.729544,0.008 1.179689,0 1.443566,-0.0931 0.263878,-0.0931 0.357011,-0.27164 0.357011,-0.65194 v -5.80531 z m 0.574322,0.5588 h 1.862666 v 1.24954 h -1.862666 z m 4.54801,0 v 1.24954 h -2.095499 v -1.24954 z m -4.54801,1.80058 h 1.862666 v 1.30387 h -1.89371 c 0.02328,-0.29492 0.03104,-0.58209 0.03104,-0.84596 z m 4.54801,0 v 1.30387 h -2.095499 v -1.30387 z"
         id="path5" /><path
         style="font-weight:normal;font-size:9.87778px;font-family:'思源黑体 CN';-inkscape-font-specification:'思源黑体 CN';fill:#000000;stroke:none"
         d="m 65.346324,125.22815 h 5.284612 v 1.45203 h -5.284612 z m 0,-0.70132 v -1.47179 h 5.284612 v 1.47179 z m 0,2.8448 h 5.284612 v 1.46191 h -5.284612 z m 2.133601,-6.4008 c -0.07902,0.39511 -0.237067,0.93839 -0.385234,1.37301 h -2.499078 v 7.74418 h 0.750711 v -0.55316 h 5.284612 v 0.50377 h 0.780345 v -7.69479 h -3.565879 c 0.167923,-0.37536 0.335845,-0.82973 0.493889,-1.25448 z m 7.250291,5.56119 h 2.667001 v 2.19286 h -2.667001 z m 6.134101,0 v 2.19286 h -2.716389 v -2.19286 z m -6.134101,-0.73096 v -2.15335 h 2.667001 v 2.15335 z m 6.134101,0 h -2.716389 v -2.15335 h 2.716389 z m -3.4671,-4.81048 v 1.91629 h -3.407835 v 7.17127 h 0.740834 v -0.61242 h 6.134101 v 0.57291 h 0.770467 v -7.13176 h -3.486856 v -1.91629 z"
         id="path6" /><path
         style="font-weight:normal;font-size:9.87778px;font-family:'思源黑体 CN';-inkscape-font-specification:'思源黑体 CN';fill:#000000;stroke:none"
         d="m 93.478256,120.98071 c -0.207434,1.54093 -0.602545,2.99296 -1.284112,3.92147 0.167922,0.0889 0.484011,0.29634 0.612423,0.41487 0.395111,-0.57291 0.701322,-1.30387 0.948266,-2.1336 h 2.53859 c -0.138289,0.69144 -0.306211,1.43228 -0.4445,1.91629 l 0.592667,0.1778 c 0.227189,-0.67169 0.474133,-1.73849 0.671689,-2.65712 l -0.493889,-0.13829 -0.0889,0.0198 h -2.597856 c 0.108655,-0.45437 0.197555,-0.92851 0.2667,-1.41252 z m 0.721078,3.14113 v 0.45438 c 0,1.38289 -0.138289,3.43746 -2.262012,5.00803 0.187678,0.10866 0.4445,0.34572 0.563033,0.50377 1.20509,-0.92851 1.817512,-2.01507 2.123723,-3.05224 0.414867,1.35326 1.0668,2.44969 2.054578,3.03248 0.108656,-0.18768 0.335845,-0.46425 0.503767,-0.60254 -1.234722,-0.65194 -1.945923,-2.20275 -2.291645,-3.97087 0.01976,-0.32597 0.02963,-0.63218 0.02963,-0.90876 v -0.46425 z m -5.630335,1.88666 c 0.07902,-0.079 0.395111,-0.13829 0.770467,-0.13829 h 1.047044 v 1.43227 l -2.360789,0.32597 0.167922,0.75071 2.192867,-0.34572 v 2.00519 h 0.67169 v -2.12372 l 1.343378,-0.21731 -0.02963,-0.69145 -1.313744,0.19756 v -1.3335 h 1.2446 v -0.67169 h -1.2446 v -1.47179 h -0.67169 v 1.47179 h -1.086555 c 0.325966,-0.68157 0.651933,-1.49155 0.938389,-2.33116 h 2.123722 v -0.7112 h -1.886655 c 0.09878,-0.32597 0.197555,-0.66181 0.286455,-0.98778 l -0.730956,-0.15804 c -0.07902,0.38523 -0.1778,0.77047 -0.296333,1.14582 h -1.6002 v 0.7112 h 1.382889 c -0.256822,0.79022 -0.523522,1.44216 -0.651934,1.6891 -0.187677,0.4445 -0.345722,0.75071 -0.5334,0.8001 0.07902,0.1778 0.197556,0.50377 0.237067,0.65194 z m 12.080521,-0.0889 v 0.72107 h 2.83493 v 3.43747 h 0.74083 v -3.43747 h 2.70651 v -0.72107 h -2.70651 v -2.18299 h 2.27189 v -0.72108 h -2.27189 v -1.90641 h -0.74083 v 1.90641 h -1.32362 c 0.12841,-0.4445 0.23706,-0.91864 0.33584,-1.38289 l -0.7112,-0.14817 c -0.22719,1.29399 -0.64206,2.56822 -1.21497,3.38808 0.1778,0.0889 0.49389,0.2667 0.63218,0.37536 0.2667,-0.41487 0.51365,-0.93839 0.72108,-1.5113 h 1.56069 v 2.18299 z m -0.48401,-4.88951 c -0.533397,1.49155 -1.402641,2.97322 -2.331152,3.94124 0.128411,0.16792 0.345722,0.55315 0.424744,0.73095 0.316089,-0.33584 0.612422,-0.73095 0.908756,-1.1557 v 5.5118 h 0.7112 v -6.6675 c 0.375352,-0.69144 0.711202,-1.4224 0.987782,-2.15335 z"
         id="path7" /></g><g
       id="text4"
       style="font-weight:650;font-size:70.6667px;line-height:1.2;font-family:'思源黑体 CN';-inkscape-font-specification:'思源黑体 CN weight=650';letter-spacing:0px;word-spacing:0px;white-space:pre;fill:#ed474b;stroke-width:3.77953"
       transform="matrix(0.26458333,0,0,0.26458333,0.55676226,-1.3362294)"
       aria-label="无需授权"><path
         style="font-weight:600;-inkscape-font-specification:'思源黑体 CN Semi-Bold'"
         d="m 153.04127,520.07706 v 6.572 h 22.82534 c -0.14133,4.59333 -0.35333,9.328 -0.98933,13.99201 h -26.21735 v 6.572 h 24.94535 c -2.89733,11.58934 -9.68134,22.18934 -25.93468,28.26668 1.696,1.41333 3.604,3.816 4.52267,5.58267 18.16134,-7.34934 25.29868,-20.14001 28.33735,-33.84935 h 0.56533 v 22.61334 c 0,7.34934 2.12,9.54001 10.17601,9.54001 1.62533,0 10.31733,0 12.01333,0 7.20801,0 9.25734,-3.03867 10.03468,-14.69868 -1.908,-0.49466 -4.94667,-1.62533 -6.43067,-2.82666 -0.35334,9.39867 -0.848,10.95334 -4.09867,10.95334 -1.97867,0 -9.18667,0 -10.74134,0 -3.392,0 -3.95734,-0.424 -3.95734,-3.03867 v -22.54268 h 24.59202 v -6.572 h -31.02269 c 0.636,-4.66401 0.848,-9.39868 1.06,-13.99201 h 26.00535 v -6.572 z m 76.74404,14.55734 v 4.16933 h 14.84001 v -4.16933 z m -1.55467,7.34933 v 4.16934 h 16.46534 v -4.16934 z m 29.11468,0 v 4.24001 h 16.88934 v -4.24001 z m 0,-7.34933 v 4.16933 h 15.19334 v -4.16933 z m -36.60535,-7.91467 v 13.78 h 6.00667 v -9.116 h 21.05868 v 16.11201 h 6.43067 v -16.11201 h 21.27067 v 9.116 h 6.28934 v -13.78 h -27.56001 v -3.46267 H 277.132 v -5.15867 h -52.01069 v 5.15867 h 22.68401 v 3.46267 z m 4.80534,32.57735 v 21.62401 h 6.28933 v -16.25335 h 9.04534 v 15.82935 h 6.148 v -15.82935 h 9.32801 v 15.82935 h 6.07733 v -15.82935 h 9.68134 v 9.96401 c 0,0.636 -0.212,0.848 -0.98933,0.91867 -0.77733,0 -3.10934,0 -5.65334,-0.0707 0.77734,1.55467 1.76667,3.88667 2.04934,5.512 3.816,0 6.572,0 8.55067,-0.98933 1.97867,-0.848 2.47333,-2.40267 2.47333,-5.3 v -15.40534 h -26.07601 l 1.62533,-4.38134 H 282.432 v -5.3 h -62.25736 v 5.3 h 27.06534 l -1.20133,4.38134 z"
         id="path3" /><path
         style="font-weight:600;-inkscape-font-specification:'思源黑体 CN Semi-Bold';fill:#000000"
         d="m 347.72803,515.83705 c -8.40933,2.19067 -23.17867,3.74534 -35.61601,4.45201 0.636,1.34266 1.41333,3.604 1.55466,5.088 12.64934,-0.636 27.98402,-2.04934 38.16002,-4.59334 z m -33.21335,12.08401 c 1.62534,2.89733 3.39201,6.85467 3.95734,9.328 l 5.37067,-1.908 c -0.636,-2.47333 -2.47334,-6.28933 -4.24,-9.116 z m 13.63868,-1.62533 c 1.20133,3.18 2.40267,7.34933 2.756,9.89333 l 5.58267,-1.484 c -0.49467,-2.47333 -1.76667,-6.50133 -3.03867,-9.54 z m -16.60668,11.024 v 11.44801 h 5.93601 v -5.86534 h 30.03334 v 5.936 h 6.21867 v -11.51867 h -8.19733 c 2.12,-3.25067 4.452,-7.42 6.50133,-11.236 l -6.21867,-1.83734 c -1.41333,3.95734 -4.16933,9.46934 -6.43067,13.07334 z m 29.75068,18.37334 c -2.26133,4.16934 -5.44133,7.63201 -9.328,10.45868 -3.67467,-2.89734 -6.572,-6.43067 -8.55067,-10.45868 z m -26.14668,-5.512 v 5.512 h 5.79467 l -3.53333,1.06 c 2.332,4.94667 5.37067,9.18668 9.116,12.72001 -5.3,2.68534 -11.37734,4.52267 -17.87867,5.58267 1.20133,1.41333 2.544,4.24 3.03867,5.86534 7.27867,-1.55467 14.06267,-3.88667 19.92801,-7.34934 5.3,3.53333 11.58934,6.00667 19.00934,7.56134 0.848,-1.76667 2.61467,-4.38134 4.028,-5.79467 -6.64267,-1.06 -12.50801,-2.968 -17.45467,-5.72401 5.512,-4.52266 9.82267,-10.388 12.36667,-18.09067 l -3.95734,-1.62534 -1.06,0.28267 z m -17.73734,-34.62668 v 13.78 h -8.33867 v 6.21867 h 8.33867 v 13.85068 l -9.116,2.544 1.55467,6.43067 7.56133,-2.332 v 17.66667 c 0,0.98934 -0.35333,1.20134 -1.20133,1.20134 -0.848,0.0707 -3.46267,0.0707 -6.36,0 0.848,1.76666 1.62533,4.59333 1.83733,6.21867 4.52267,0 7.42,-0.212 9.25734,-1.272 1.97867,-1.06 2.61467,-2.82667 2.61467,-6.14801 v -19.57467 l 7.49067,-2.40267 -0.848,-6.07734 -6.64267,1.97867 v -12.08401 h 6.996 v -6.21867 h -6.996 v -13.78 z m 118.8614,12.64934 c -2.12001,11.236 -5.86534,20.77601 -10.95334,28.40801 -4.59334,-7.632 -7.42001,-16.74801 -9.54001,-28.40801 z m 1.908,-6.50134 -1.06,0.0707 h -29.68002 v 6.43067 h 2.756 l -0.70666,0.14133 c 2.47333,14.20401 5.79466,25.01601 11.51867,33.92002 -5.088,5.936 -11.16534,10.31734 -17.87868,13.144 1.484,1.272 3.25067,3.88667 4.16934,5.51201 6.64267,-3.18001 12.64934,-7.49067 17.73734,-13.14401 4.16934,5.01734 9.39867,9.46934 15.90001,13.63867 0.91867,-1.97866 2.968,-4.31067 4.80533,-5.58267 -6.85467,-4.028 -12.15467,-8.33867 -16.324,-13.49734 6.996,-9.82267 11.872,-22.82534 14.13334,-39.57335 l -4.24001,-1.272 z m -46.64003,-6.21867 v 14.48667 h -11.30667 v 6.28934 h 9.82267 c -2.40267,9.32801 -6.996,19.99868 -11.80134,25.72268 1.20134,1.76667 2.968,4.80534 3.74534,6.85467 3.604,-4.73467 6.996,-12.22534 9.54,-20.14001 v 32.29468 h 6.50134 v -34.13201 c 2.89733,3.67466 6.43067,8.40933 7.98534,11.024 l 3.95733,-6.148 c -1.696,-1.83734 -9.54,-10.24667 -11.94267,-12.36667 v -3.10934 h 8.97467 v -6.28934 h -8.97467 v -14.48667 z"
         id="path4" /></g><path
       d="m -84.20418,-120.6089 c 0.9779,0 1.807634,-0.71613 1.807634,-1.85208 0,-1.13101 -0.829734,-1.83727 -1.807634,-1.83727 -0.968022,0 -1.802695,0.70133 -1.802695,1.83727 0,1.13595 0.834673,1.85208 1.802695,1.85208 z m 0,-0.26176 c -0.829733,0 -1.506361,-0.63711 -1.506361,-1.59032 0,-0.94827 0.676628,-1.57551 1.506361,-1.57551 0.834672,0 1.516239,0.62724 1.516239,1.57551 0,0.95321 -0.681567,1.59032 -1.516239,1.59032 z m 0.05433,-0.49389 c 0.316089,0 0.538339,-0.12841 0.745772,-0.30621 l -0.197555,-0.27657 c -0.158045,0.12347 -0.306212,0.22718 -0.5334,0.22718 -0.370417,0 -0.607484,-0.28645 -0.607484,-0.74083 0,-0.40005 0.242006,-0.69144 0.632178,-0.69144 0.182739,0 0.306211,0.0741 0.449439,0.21731 l 0.227189,-0.26176 c -0.172861,-0.18274 -0.380295,-0.32103 -0.706261,-0.32103 -0.543278,0 -1.042106,0.40993 -1.042106,1.05692 0,0.68157 0.449439,1.09643 1.032228,1.09643 z"
       id="text8"
       style="font-weight:600;font-size:4.93889px;line-height:1.2;font-family:'思源黑体 CN';-inkscape-font-specification:'思源黑体 CN Semi-Bold';letter-spacing:0px;word-spacing:0px"
       transform="scale(-1)"
       aria-label="©" /><path
       d="m 150.66251,594.18532 c 0.52266,1.04534 1.12,2.31467 1.60533,3.43467 h -13.43999 v 7.91466 h 3.584 v -4.62933 h 23.63198 v 4.62933 h 3.73333 v -7.91466 H 156.4865 c -0.56,-1.26933 -1.41866,-2.94933 -2.128,-4.29333 z m 8.95999,17.13599 c -1.04533,2.65066 -2.53866,4.816 -4.44266,6.57066 -2.38933,-0.93333 -4.816,-1.82933 -7.13066,-2.576 0.784,-1.19466 1.68,-2.576 2.50133,-3.99466 z m -13.36532,0 c -1.26933,2.05333 -2.576,3.95733 -3.77067,5.48799 l -0.0373,0.0373 c 2.98667,0.97066 6.272,2.20266 9.48266,3.50933 -3.584,2.16533 -8.13866,3.54666 -13.58932,4.40533 0.70933,0.784 1.792,2.38933 2.16533,3.248 6.08533,-1.232 11.19999,-3.09867 15.23199,-6.048 4.59199,2.05333 8.81066,4.18133 11.49865,6.01066 l 2.912,-3.024 c -2.8,-1.75466 -6.94399,-3.73333 -11.42399,-5.59999 2.09067,-2.20267 3.73333,-4.816 4.96533,-8.02666 h 6.98133 v -3.32266 h -18.21865 c 0.896,-1.71734 1.75466,-3.43467 2.42666,-5.07733 l -3.88266,-0.784 c -0.74667,1.82933 -1.71733,3.84533 -2.8,5.86133 h -10.19199 v 3.32266 z m 44.87463,-18.29332 c -3.77067,5.89866 -10.56533,11.12533 -17.39732,14.07466 0.93333,0.784 1.94133,2.01599 2.464,2.91199 1.38133,-0.672 2.72533,-1.41866 4.06933,-2.23999 v 2.46399 h 9.48265 v 5.152 h -9.14665 v 3.09866 h 9.14665 v 5.45067 h -13.96265 v 3.17333 h 31.88264 v -3.17333 H 193.4838 v -5.45067 h 9.55733 v -3.09866 h -9.55733 v -5.152 h 9.70666 v -2.42666 c 1.30667,0.82133 2.61333,1.60533 3.99467,2.38933 0.48533,-1.04533 1.53066,-2.27733 2.38933,-3.024 -6.048,-2.94933 -11.42399,-6.57066 -15.97866,-11.68532 l 0.672,-0.97067 z m -9.78133,14.03732 c 3.808,-2.50133 7.35466,-5.56266 10.26666,-8.99732 3.28533,3.65866 6.68266,6.49599 10.45332,8.99732 z m 80.67732,10.93866 v 5.712 c 0,2.91199 0.85867,3.77066 4.368,3.77066 0.70933,0 4.21866,0 4.96533,0 2.72533,0 3.584,-1.04533 3.95733,-5.22666 -0.85867,-0.18667 -2.20267,-0.63467 -2.83733,-1.12 -0.14933,3.136 -0.336,3.58399 -1.456,3.58399 -0.784,0 -3.62133,0 -4.256,0 -1.30666,0 -1.53066,-0.14933 -1.53066,-1.04533 v -5.67466 z m 3.88267,-0.85867 c 1.30666,1.456 2.87466,3.39733 3.62133,4.62933 l 2.576,-1.53066 c -0.82134,-1.232 -2.42667,-3.09867 -3.73333,-4.44266 z m 8.06399,1.344 c 1.19467,2.352 2.576,5.52533 3.136,7.392 l 2.94933,-1.008 c -0.63467,-1.86667 -2.09067,-4.928 -3.32267,-7.20533 z m -15.38132,-0.63466 c -0.784,2.16533 -2.05333,5.15199 -3.248,7.01866 l 2.8,1.53066 c 1.12,-2.05333 2.31467,-5.15199 3.136,-7.31732 z m 5.04,-24.63998 c -1.232,2.8 -3.584,6.04799 -7.09333,8.47466 0.70933,0.448 1.64266,1.568 2.09066,2.31466 l 0.97067,-0.74666 v 1.49333 h 14.37332 v 2.576 h -13.96265 v 2.68799 h 13.96265 v 2.65067 h -14.85865 v 2.912 h 18.03198 v -13.73866 h -4.59199 c 1.11999,-1.456 2.20266,-3.136 2.94933,-4.62933 l -2.128,-1.38133 -0.52267,0.14933 h -7.09333 c 0.41067,-0.70933 0.784,-1.456 1.12,-2.16533 z m -2.464,8.62399 c 1.04533,-1.008 1.94133,-2.016 2.76266,-3.09866 h 7.13066 c -0.63466,1.04533 -1.344,2.16533 -2.09066,3.09866 z m -5.04,-8.17599 c -2.50133,1.19466 -6.49599,2.27733 -10.07999,2.98666 0.41067,0.784 0.896,1.94133 1.008,2.72533 1.232,-0.18666 2.53866,-0.41066 3.84533,-0.70933 v 5.41333 h -5.04 v 3.28533 h 4.51733 c -1.26933,3.95733 -3.39733,8.47466 -5.45066,11.05066 0.59733,0.93333 1.456,2.42666 1.792,3.47199 1.49333,-2.09066 2.94933,-5.18933 4.18133,-8.43732 v 14.67199 h 3.28533 v -15.82932 c 0.896,1.60533 1.792,3.32266 2.24,4.36799 l 2.128,-2.94933 c -0.63467,-0.896 -3.32267,-4.40533 -4.368,-5.56266 v -0.784 h 3.99466 v -3.28533 h -3.99466 v -6.19733 c 1.49333,-0.37333 2.87467,-0.82133 4.10666,-1.344 z m 33.11464,17.13598 c -0.74667,6.608 -2.72533,11.90933 -6.832,15.00799 0.82134,0.52267 2.27733,1.75467 2.83733,2.352 2.31467,-2.016 4.06933,-4.62933 5.33867,-7.87733 3.43466,5.97333 8.84799,7.24266 16.27732,7.24266 h 9.03465 c 0.14934,-1.04533 0.74667,-2.76266 1.30667,-3.58399 -2.16533,0.0373 -8.47466,0.0373 -10.15466,0.0373 -1.904,0 -3.73333,-0.0747 -5.37599,-0.336 v -6.608 h 10.78932 v -3.32266 h -10.78932 v -5.41333 h 8.92266 v -3.36 h -21.31732 v 3.36 h 8.73599 v 14.33599 c -2.65066,-1.15733 -4.74133,-3.17333 -6.04799,-6.71999 0.336,-1.53067 0.63466,-3.09867 0.85866,-4.77867 z m 7.57866,-16.68798 c 0.56,1.04533 1.12,2.27733 1.53066,3.39733 h -14.26132 v 8.73599 h 3.472 v -5.37599 h 24.49064 v 5.37599 h 3.62133 v -8.73599 h -13.25332 c -0.41066,-1.30667 -1.30666,-3.06133 -2.09066,-4.40533 z m 72.128,-0.74667 v 3.06133 h -14.33599 v 3.024 h 14.33599 v 3.06133 h -12.02133 v 3.024 h 28.41065 v -3.024 H 372.4971 v -3.06133 h 14.48532 v -3.024 H 372.4971 v -3.06133 z m -11.27466,14.70932 v 4.77866 c 0,3.88267 -0.52267,9.184 -4.62933,13.02933 0.784,0.448 2.20267,1.71733 2.76267,2.38933 2.68799,-2.576 4.10666,-5.97333 4.77866,-9.29599 h 20.53331 v 1.94133 h 3.54667 v -12.84266 z m 23.44531,7.87733 h -8.66132 v -4.96533 h 8.66132 z m -20.12265,0 c 0.112,-1.04533 0.14934,-2.09067 0.14934,-3.024 v -1.94133 h 7.87732 v 4.96533 z m 36.25064,0 v 2.128 h 22.21331 v -2.128 z m 0,-3.88266 v 2.12799 h 22.21331 v -2.12799 z m -0.784,7.61599 v 8.39999 h 3.32266 v -1.15733 h 16.87465 v 1.12 h 3.472 v -8.36266 z m 3.32266,4.85333 v -2.464 h 16.87465 v 2.464 z m 17.77065,-30.83731 c -0.896,1.71733 -2.53866,4.10666 -3.80799,5.56266 l 0.67199,0.29867 h -6.79466 l 2.576,-1.04533 c -0.48533,-1.41867 -1.68,-3.472 -2.8,-5.00267 l -2.98666,1.15734 c 1.008,1.53066 2.09066,3.47199 2.50133,4.89066 h -7.50399 l 1.97866,-0.93333 c -0.59733,-1.38134 -2.05333,-3.32267 -3.43466,-4.704 l -2.912,1.30667 c 1.15733,1.30666 2.352,3.02399 3.024,4.33066 h -6.64533 v 2.94933 h 8.25066 c -2.24,2.87466 -5.67466,5.45066 -9.03466,6.83199 0.74667,0.63467 1.75467,1.82934 2.24,2.65067 1.008,-0.448 1.97866,-1.008 2.94933,-1.64267 h 24.82665 v -0.26133 c 0.93333,0.52267 1.90399,1.008 2.87466,1.38133 0.48533,-0.85866 1.53067,-2.128 2.27733,-2.76266 -3.62133,-1.19467 -7.09333,-3.50933 -9.33332,-6.19733 h 8.47466 v -2.94933 h -7.504 c 1.15733,-1.30667 2.464,-2.94933 3.65867,-4.51733 z m -12.46932,11.12532 c 0.52267,0.93334 1.08267,2.09067 1.568,3.136 h -7.76533 c 1.792,-1.60533 3.39733,-3.47199 4.62933,-5.45066 h 9.14666 c 1.26933,2.016 2.98666,3.88266 4.928,5.45066 h -7.28 c -0.48533,-1.15733 -1.344,-2.76266 -2.128,-4.03199 z"
       id="text12"
       style="font-weight:600;font-size:37.3333px;line-height:1.2;font-family:'思源黑体 CN';-inkscape-font-specification:'思源黑体 CN Semi-Bold';letter-spacing:0px;word-spacing:0px;white-space:pre;stroke-width:3.77953"
       transform="matrix(0.26458333,0,0,0.26458333,1.7536101,-0.33405734)"
       aria-label="安全    稳定    声誉" /><g
       id="text13"
       style="font-weight:600;font-size:32px;line-height:1;font-family:'思源黑体 CN';-inkscape-font-specification:'思源黑体 CN Semi-Bold';letter-spacing:0px;word-spacing:0px;white-space:pre;fill:#d7435e;stroke-width:3.77953"
       transform="matrix(0.26458333,0,0,0.26458333,-15.242181,-0.55676225)"
       aria-label="请认准&#10;系统内或关于页"><path
         style="text-align:center;text-anchor:middle"
         d="m 582.06344,463.584 c 1.696,1.536 3.872,3.68 4.896,5.088 l 2.048,-2.144 c -1.056,-1.312 -3.296,-3.36 -4.992,-4.768 z m -1.824,7.52 v 2.912 h 4.416 v 10.944 c 0,1.44 -0.928,2.464 -1.568,2.88 0.512,0.576 1.28,1.824 1.536,2.56 0.512,-0.704 1.44,-1.472 7.008,-5.824 -0.32,-0.608 -0.8,-1.76 -0.992,-2.592 l -3.072,2.336 v -13.216 z m 15.04,10.528 h 9.28 v 2.272 h -9.28 z m 0,-2.016 v -2.08 h 9.28 v 2.08 z m 3.136,-18.464 v 2.368 h -7.232 v 2.208 h 7.232 v 1.728 h -6.4 v 2.112 h 6.4 v 1.856 h -8.224 v 2.24 h 19.648 v -2.24 h -8.448 v -1.856 h 6.496 v -2.112 h -6.496 v -1.728 h 7.488 v -2.208 h -7.488 v -2.368 z m -5.984,14.112 v 15.584 h 2.848 v -4.832 h 9.28 v 1.664 c 0,0.416 -0.128,0.544 -0.576,0.544 -0.416,0 -1.952,0.032 -3.456,-0.064 0.352,0.736 0.736,1.856 0.864,2.624 2.24,0 3.744,-0.032 4.736,-0.448 1.024,-0.448 1.312,-1.216 1.312,-2.592 v -12.48 z m 22.784,-11.712 c 1.632,1.504 3.872,3.616 4.96,4.896 l 2.08,-2.208 c -1.12,-1.216 -3.424,-3.2 -5.024,-4.608 z m 15.424,-2.336 c -0.064,10.656 0.16,21.632 -7.936,27.424 0.832,0.512 1.792,1.44 2.304,2.208 4.032,-3.04 6.176,-7.264 7.328,-12.128 1.248,4.32 3.456,9.184 7.648,12.128 0.48,-0.768 1.344,-1.696 2.176,-2.272 -7.04,-4.704 -8.288,-14.656 -8.704,-17.824 0.224,-3.136 0.256,-6.336 0.288,-9.536 z m -18.24,9.888 v 2.912 h 5.152 v 10.432 c 0,1.6 -1.12,2.752 -1.824,3.264 0.512,0.48 1.312,1.536 1.6,2.176 0.512,-0.672 1.44,-1.44 7.52,-5.76 -0.288,-0.608 -0.704,-1.76 -0.896,-2.56 l -3.456,2.336 v -12.8 z m 31.968,-7.36 c 1.504,2.336 3.328,5.536 4.128,7.52 l 2.88,-1.44 c -0.832,-1.952 -2.784,-5.056 -4.32,-7.328 z m 0,24.256 3.136,1.376 c 1.472,-3.136 3.136,-7.168 4.448,-10.816 l -2.752,-1.44 c -1.44,3.936 -3.424,8.224 -4.832,10.88 z m 12.896,-12.192 h 6.336 v 3.68 h -6.336 z m 0,-2.656 v -3.744 h 6.336 v 3.744 z m 5.088,-10.688 c 0.8,1.312 1.76,3.04 2.272,4.32 h -6.624 c 0.704,-1.536 1.344,-3.104 1.888,-4.704 l -2.784,-0.672 c -1.6,4.992 -4.352,9.824 -7.584,12.864 0.64,0.512 1.728,1.6 2.176,2.176 0.96,-0.992 1.888,-2.112 2.752,-3.392 v 17.824 h 2.816 v -2.208 h 16.48 v -2.72 h -7.2 v -3.808 h 5.952 v -2.656 h -5.952 v -3.68 h 5.984 v -2.656 h -5.984 v -3.744 h 6.624 v -2.624 h -7.488 l 1.856,-0.96 c -0.544,-1.216 -1.6,-3.104 -2.624,-4.512 z m -5.088,19.68 h 6.336 v 3.808 h -6.336 z"
         id="path1" /><path
         style="font-size:26.6667px;fill:#000000"
         d="m 540.81,514.29333 c -1.33334,1.81333 -3.54668,3.70667 -5.62668,4.93334 0.64,0.37333 1.70667,1.2 2.21334,1.68 2,-1.41334 4.37334,-3.60001 5.94667,-5.73334 z m 9.65334,1.17333 c 2.16,1.62667 4.82667,3.97334 6.10668,5.46667 l 2.18666,-1.52 c -1.38666,-1.49333 -4.13333,-3.73334 -6.26667,-5.25334 z m 0.66667,-7.12001 c 0.61333,0.58667 1.25333,1.25334 1.86667,1.92 L 542.89,510.93332 c 3.76,-1.86667 7.60001,-4.16 11.17335,-6.93334 l -1.86667,-1.65334 c -1.25334,1.06667 -2.64001,2.08001 -4.02668,3.04001 l -6.02667,0.29333 c 1.78667,-1.25333 3.54667,-2.8 5.14667,-4.4 3.46667,-0.34667 6.77335,-0.82667 9.41335,-1.46667 l -1.81334,-2.10667 c -4.37334,1.09333 -12.00001,1.78667 -18.53335,2.08 0.26666,0.58667 0.58666,1.57334 0.64,2.21334 2.16,-0.08 4.48,-0.21334 6.77334,-0.4 -1.6,1.57333 -3.30667,2.90667 -3.94667,3.33333 -0.8,0.56 -1.41334,0.96001 -1.97334,1.04001 0.24,0.61333 0.58667,1.70666 0.69334,2.18666 0.58666,-0.21333 1.44,-0.34666 6.32,-0.64 -2.05333,1.25334 -3.78667,2.18667 -4.66667,2.58667 -1.65333,0.82667 -2.8,1.30667 -3.73334,1.44001 0.26667,0.66666 0.64,1.81333 0.74667,2.29333 0.8,-0.32 1.92,-0.48 8.72001,-1.01333 v 6.50667 c 0,0.32 -0.10667,0.4 -0.53333,0.42667 -0.45334,0.0267 -2,0.0267 -3.49334,-0.0533 0.37333,0.69333 0.8,1.76 0.93333,2.48 1.97334,0 3.38668,0 4.37334,-0.4 1.01334,-0.4 1.28,-1.09334 1.28,-2.37334 v -6.77334 l 6.16001,-0.48 c 0.74667,0.88 1.36,1.70667 1.78667,2.4 l 1.97334,-1.2 c -1.06667,-1.68 -3.30667,-4.16 -5.36001,-6.00001 z m 27.65337,2.50667 v 8.05335 c 0,2.26666 0.48,3.01333 2.58667,3.01333 0.4,0 1.70667,0 2.13333,0 1.81334,0 2.40001,-1.09333 2.58667,-4.98667 -0.64,-0.16 -1.65333,-0.58667 -2.16,-1.01334 -0.08,3.30668 -0.16,3.84001 -0.69333,3.84001 -0.26667,0 -1.20001,0 -1.41334,0 -0.50667,0 -0.56,-0.10667 -0.56,-0.88 v -8.02668 z m -5.04001,0.0533 c -0.16,4.93334 -0.66667,7.78668 -4.90667,9.44002 0.56,0.48 1.25333,1.44 1.57333,2.08 4.82668,-2.08 5.62668,-5.70667 5.84001,-11.52002 z m -12.37335,7.65335 0.58667,2.50667 c 2.50667,-0.88 5.68001,-2 8.69334,-3.09334 l -0.45333,-2.16 c -3.25334,1.06667 -6.61334,2.16 -8.82668,2.74667 z m 14.66669,-20.40003 c 0.48,1.01334 1.01333,2.32001 1.28,3.20001 h -6.21334 v 2.26667 h 4.53334 c -1.17334,1.6 -2.77334,3.68 -3.33334,4.18667 -0.53334,0.53333 -1.25334,0.74667 -1.81334,0.85333 0.26667,0.56 0.69334,1.81334 0.8,2.45334 0.8,-0.34667 2.00001,-0.50667 11.44002,-1.44 0.42667,0.72 0.77333,1.38667 1.01333,1.92 l 2.13334,-1.14667 c -0.77334,-1.6 -2.50667,-4.10667 -3.92001,-5.97334 l -1.94667,0.98667 c 0.50667,0.69333 1.01334,1.46667 1.52001,2.24 l -6.40001,0.56 c 1.09333,-1.38667 2.4,-3.14667 3.46667,-4.64 h 7.12001 v -2.26667 h -7.57334 l 1.76,-0.50667 c -0.29334,-0.85334 -0.93334,-2.26667 -1.49334,-3.28001 z m -14.08002,10.82668 c 0.42667,-0.18666 1.04,-0.34666 3.73334,-0.72 -1.01334,1.46667 -1.89334,2.58667 -2.32001,3.06667 -0.82666,0.98667 -1.44,1.6 -2.05333,1.73334 0.29333,0.66667 0.69333,1.86667 0.82667,2.37333 0.61333,-0.37333 1.6,-0.69333 8.13334,-2.16 -0.08,-0.53333 -0.10667,-1.52 -0.0267,-2.21333 l -4.45334,0.90666 c 1.86667,-2.24 3.68001,-4.88 5.20001,-7.52001 l -2.21334,-1.36 c -0.48,0.98667 -1.04,1.94667 -1.6,2.88001 l -2.69333,0.26666 c 1.6,-2.21333 3.12,-4.96 4.26667,-7.57334 l -2.58667,-1.17334 c -1.04,3.12001 -2.90667,6.48001 -3.52001,7.33335 -0.56,0.90667 -1.06667,1.49333 -1.6,1.6 0.34667,0.72 0.77334,2.02667 0.90667,2.56 z m 27.57337,-6.82667 v 20.29336 h 2.53333 v -17.81336 h 6.98668 c -0.13333,3.41334 -1.09334,7.62668 -6.64001,10.58668 0.61333,0.42667 1.46667,1.36 1.81334,1.89334 3.30667,-1.94667 5.17334,-4.29334 6.21334,-6.74668 2.24,2.16 4.61334,4.64001 5.84,6.32001 l 2.08001,-1.65334 c -1.54667,-1.92 -4.64001,-4.88 -7.12001,-7.12001 0.24,-1.12 0.37333,-2.21333 0.42667,-3.28 h 7.09334 V 519.28 c 0,0.48 -0.16,0.61333 -0.66667,0.64 -0.53333,0.0267 -2.34667,0.0267 -4.10667,-0.0533 0.37333,0.69333 0.74667,1.84 0.85333,2.53333 2.40001,0 4.05334,-0.0267 5.06668,-0.42666 1.01333,-0.4 1.33333,-1.17334 1.33333,-2.64001 v -17.17335 h -9.54668 v -4.50668 h -2.61333 v 4.50668 z m 25.68003,16.00002 0.48,2.58667 c 3.14667,-0.69334 7.52001,-1.62667 11.60001,-2.53334 l -0.24,-2.4 c -4.29334,0.88 -8.88001,1.81333 -11.84001,2.34667 z m 3.86667,-9.68001 h 4.8 v 3.94667 h -4.8 z m -2.32,-2.16001 v 8.26668 h 9.57334 v -8.26668 z m -1.41334,-4.56 v 2.48 h 13.06668 c 0.32,4.21334 0.93334,8.18668 1.89334,11.30668 -1.70667,2.02667 -3.68,3.70667 -5.97334,4.98667 0.56,0.48 1.57333,1.46667 1.94667,1.97334 1.84,-1.17334 3.52,-2.58667 5.01334,-4.21334 1.17333,2.56 2.69333,4.13334 4.58667,4.13334 2.24,0 3.14667,-1.25334 3.57334,-6.05334 -0.69334,-0.26667 -1.62667,-0.85334 -2.18667,-1.46667 -0.16,3.49334 -0.48,4.88001 -1.14667,4.88001 -1.04,0 -2.05334,-1.44001 -2.90667,-3.84001 1.94667,-2.69334 3.49334,-5.86667 4.64001,-9.44001 l -2.50667,-0.61333 c -0.77334,2.50667 -1.78667,4.8 -3.04001,6.85334 -0.56,-2.42667 -0.98667,-5.36001 -1.25333,-8.50668 h 7.76001 v -2.48 h -2.00001 l 1.30667,-1.44001 c -0.93333,-0.85333 -2.85333,-1.97333 -4.37334,-2.64 l -1.52,1.54667 c 1.41334,0.66667 3.01334,1.70667 4.00001,2.53334 h -5.30668 c -0.08,-1.33334 -0.08,-2.69334 -0.08,-4.05334 h -2.72 c 0.0267,1.36 0.0533,2.72 0.13333,4.05334 z m 30.74671,-2.88001 c 1.01333,1.30667 2.05333,3.04001 2.56,4.32001 h -4.88 v 2.50667 h 8.61334 v 3.33334 l -0.0267,0.96 h -10.26668 v 2.48 h 9.78668 c -0.96,2.69334 -3.57334,5.46667 -10.45334,7.65334 0.69333,0.58667 1.52,1.65334 1.86666,2.26667 6.50668,-2.18667 9.54668,-5.04 10.93335,-7.94667 2.24,3.78667 5.54668,6.45334 10.16001,7.78667 0.40001,-0.74666 1.20001,-1.89333 1.78667,-2.48 -4.77334,-1.09334 -8.26667,-3.68001 -10.32001,-7.28001 h 9.54668 v -2.48 h -10.13335 l 0.0267,-0.93334 v -3.36 h 8.66668 v -2.50667 h -4.90668 c 0.93334,-1.36 1.92001,-3.04001 2.77334,-4.58667 l -2.74667,-0.90667 c -0.64,1.65333 -1.78667,3.89334 -2.82667,5.49334 h -6.90667 l 1.68,-0.93334 c -0.50667,-1.25333 -1.65334,-3.09333 -2.80001,-4.45333 z m 24.18669,0.58667 v 2.50667 h 9.01334 v 6.18667 h -10.85334 v 2.50667 h 10.85334 v 8.26668 c 0,0.56 -0.24,0.72 -0.8,0.72 -0.61333,0.0267 -2.69333,0.0533 -4.8,-0.0267 0.42666,0.72 0.90667,1.89333 1.06667,2.66667 2.69333,0 4.53333,-0.08 5.65334,-0.48 1.12,-0.42667 1.54666,-1.17334 1.54666,-2.85334 v -8.29335 h 10.34668 v -2.50667 h -10.34668 v -6.18667 h 8.50668 v -2.50667 z m 35.52005,8.50668 v 4.82667 c 0,2.72 -1.30667,5.70667 -10.88002,7.57334 0.56,0.50667 1.25334,1.52001 1.54667,2.05334 10.18668,-2.16 11.94668,-5.86667 11.94668,-9.60001 v -4.85334 z m 2.32,9.44001 c 3.06667,1.38667 7.14668,3.57334 9.12001,5.04001 l 1.54667,-1.97334 c -2.08,-1.46667 -6.21334,-3.52 -9.22668,-4.77334 z m -10.10668,-13.17335 v 12.42668 h 2.56 v -10.10668 h 13.12002 v 10.05335 h 2.69334 v -12.37335 h -9.65335 c 0.45333,-0.85333 0.93334,-1.86667 1.36,-2.88 h 10.61335 v -2.34667 h -23.12003 v 2.34667 h 9.62668 c -0.29333,0.96 -0.66667,2 -1.01334,2.88 z"
         id="path2" /></g><path
       style="font-size:45.3333px;line-height:1;font-family:'思源黑体 CN';-inkscape-font-specification:'思源黑体 CN';text-align:center;letter-spacing:0px;word-spacing:0px;white-space:pre;stroke-width:3.77953"
       d="m 520.95686,570.29157 v 12.91999 h -12.69333 v -1.94933 -10.97066 z m -27.06398,12.91999 v 3.264 h 10.69866 c -0.63467,6.21066 -2.94667,12.28533 -10.608,16.95466 0.90667,0.58933 2.13067,1.72266 2.72,2.53866 8.38666,-5.304 10.74399,-12.37599 11.37866,-19.49332 h 12.87466 v 19.35732 h 3.49066 v -19.35732 h 10.10933 v -3.264 h -10.10933 v -12.91999 h 8.704 v -3.264 h -37.58131 v 3.264 h 9.24799 v 10.97066 l -0.0453,1.94933 z m 67.31995,0.49867 h 13.87199 v 3.98933 h -13.87199 z m 0,-6.43733 h 13.87199 v 3.89866 h -13.87199 z m -1.45067,15.59466 c -1.35999,3.03733 -3.35466,6.21066 -5.43999,8.43199 0.77066,0.45333 2.08533,1.26933 2.72,1.768 1.99466,-2.35733 4.26133,-6.02933 5.75733,-9.33866 z m 12.82933,0.77066 c 1.81333,2.90133 3.98933,6.70933 4.98666,8.976 l 3.128,-1.40534 c -1.088,-2.17599 -3.35466,-5.93866 -5.168,-8.70399 z m -31.77865,-26.70131 c 2.49334,1.58666 5.89333,3.808 7.57067,5.21333 l 2.03999,-2.72 c -1.76799,-1.31467 -5.16799,-3.4 -7.61599,-4.85066 z m -2.22133,12.23999 c 2.53867,1.40533 5.93866,3.58133 7.66133,4.85066 l 1.99467,-2.72 c -1.768,-1.26933 -5.21333,-3.21866 -7.70667,-4.53333 z m 0.952,24.07198 3.03733,1.904 c 2.176,-4.26133 4.71467,-9.88266 6.57333,-14.68799 l -2.72,-1.904 c -2.04,5.168 -4.89599,11.152 -6.89066,14.68799 z m 12.64799,-36.94664 v 12.42133 c 0,7.47999 -0.49866,17.77065 -5.62133,25.06931 0.77067,0.36267 2.22134,1.224 2.81067,1.81333 5.39466,-7.61599 6.11999,-18.94932 6.11999,-26.88264 v -9.33866 h 24.47999 v -3.08267 z m 14.14399,3.71733 c -0.272,1.31467 -0.816,3.17333 -1.31466,4.624 h -6.89066 v 15.68532 h 8.15999 v 11.83199 c 0,0.49867 -0.18133,0.68 -0.72533,0.72534 -0.58934,0 -2.584,0 -4.71467,-0.0453 0.408,0.86134 0.816,2.08533 0.952,2.90133 2.992,0.0453 4.98667,0.0453 6.21067,-0.45333 1.22399,-0.49867 1.54133,-1.36 1.54133,-3.03733 v -11.92266 h 8.70399 v -15.68532 h -9.92799 c 0.58933,-1.17867 1.17866,-2.53867 1.768,-3.85333 z m 33.36531,10.65333 c -0.816,4.30666 -2.312,8.61333 -4.30666,11.51466 0.72533,0.408 2.04,1.31466 2.584,1.768 2.04,-3.128 3.80799,-7.888 4.80533,-12.69333 z m 20.49066,0.72533 c 1.26933,4.17067 2.53866,9.70133 2.90133,12.96533 l 3.17333,-0.816 c -0.49867,-3.17333 -1.85867,-8.568 -3.17333,-12.73866 z m -30.73598,-17.31732 v 10.60799 h -5.12267 v 3.17333 h 5.12267 v 27.87998 h 3.30933 v -27.87998 h 4.85066 v -3.17333 h -4.85066 v -10.60799 z m 17.63465,0.408 v 8.11466 0.0907 h -8.06933 v 3.30933 h 8.024 c -0.272,8.74933 -2.13067,19.31198 -12.14933,27.51731 0.816,0.544 2.04,1.58667 2.62933,2.312 10.56266,-8.83999 12.512,-20.30932 12.784,-29.82931 h 6.30132 c -0.45333,17.58932 -0.90666,24.02665 -2.13066,25.47731 -0.45333,0.58934 -0.90667,0.68 -1.768,0.68 -0.952,0 -3.30933,0 -5.93866,-0.22666 0.63466,0.90666 0.952,2.312 1.04266,3.30933 2.40267,0.136 4.85067,0.18133 6.256,0 1.496,-0.136 2.448,-0.544 3.35466,-1.768 1.54134,-2.04 1.99467,-8.79466 2.448,-29.05865 0,-0.45333 0.0453,-1.72266 0.0453,-1.72266 h -9.56533 v -0.0907 -8.11466 z m 45.01597,1.72267 c 1.81334,3.03733 3.71733,7.07199 4.44267,9.56532 l 3.08266,-1.40533 c -0.72533,-2.49333 -2.76533,-6.392 -4.66933,-9.38399 z m -19.44798,0.99733 c 2.04,2.13066 4.48799,5.12266 5.66666,7.02666 l 2.584,-2.13067 c -1.17867,-1.85866 -3.71733,-4.66933 -5.80266,-6.75466 z m 32.59464,-0.31734 c -1.496,9.42933 -3.85333,17.90666 -8.70399,24.70665 -4.57867,-6.34666 -7.344,-14.55199 -8.976,-24.16265 l -3.21866,0.544 c 1.94933,10.744 4.896,19.67466 9.88266,26.47465 -3.17333,3.58133 -7.29866,6.57333 -12.60266,8.84 0.63467,0.72533 1.58667,1.99466 2.04,2.81066 5.25866,-2.35733 9.42933,-5.44 12.73866,-9.02133 3.39999,3.808 7.66132,6.75467 12.91999,8.84 0.544,-0.90667 1.632,-2.26667 2.448,-2.94667 -5.34933,-1.904 -9.61066,-4.85066 -13.05599,-8.65866 5.48532,-7.34399 8.20532,-16.54665 10.01865,-26.88265 z m -35.63197,11.37866 v 3.30933 h 6.39199 v 16.00266 c 0,2.35733 -1.224,3.89866 -1.94933,4.624 0.58933,0.49866 1.58666,1.67733 1.94933,2.40266 0.72533,-0.90666 1.904,-1.81333 9.88266,-7.47999 -0.36267,-0.68 -0.86133,-1.99467 -1.13333,-2.90133 l -5.44,3.76266 v -19.71999 z"
       id="text15"
       transform="matrix(0.26458333,0,0,0.26458333,-3.5617214,0.11135245)"
       aria-label="开源协议" /><path
       d="m 128.72699,166.54976 0.23706,-0.10583 c -0.36406,-0.60113 -0.53763,-1.3208 -0.53763,-2.04046 0,-0.71544 0.17357,-1.43087 0.53763,-2.03624 l -0.23706,-0.11006 c -0.38947,0.635 -0.6223,1.31656 -0.6223,2.1463 0,0.83396 0.23283,1.51553 0.6223,2.14629 z m 1.98966,-0.77469 c 0.77893,0 1.32503,-0.6223 1.32503,-1.61714 0,-0.99483 -0.5461,-1.59596 -1.32503,-1.59596 -0.77894,0 -1.32503,0.60113 -1.32503,1.59596 0,0.99484 0.54609,1.61714 1.32503,1.61714 z m 0,-0.3429 c -0.5588,0 -0.92287,-0.49954 -0.92287,-1.27424 0,-0.7747 0.36407,-1.25306 0.92287,-1.25306 0.5588,0 0.92286,0.47836 0.92286,1.25306 0,0.7747 -0.36406,1.27424 -0.92286,1.27424 z m 1.96003,1.25729 h 0.38947 v -0.77893 l -0.0127,-0.40216 c 0.20743,0.17356 0.42756,0.2667 0.635,0.2667 0.52493,0 0.99906,-0.45297 0.99906,-1.24037 0,-0.7112 -0.32173,-1.17263 -0.9144,-1.17263 -0.2667,0 -0.52493,0.1524 -0.73236,0.32596 h -0.008 l -0.0381,-0.2667 h -0.3175 z m 0.94827,-1.24036 c -0.1524,0 -0.3556,-0.0593 -0.5588,-0.23707 v -1.21073 c 0.22013,-0.2032 0.4191,-0.31327 0.6096,-0.31327 0.44026,0 0.6096,0.33867 0.6096,0.8509 0,0.56727 -0.2794,0.91017 -0.6604,0.91017 z m 2.60773,0.32597 c 0.30904,0 0.55457,-0.1016 0.75353,-0.23284 l -0.13546,-0.25823 c -0.17357,0.1143 -0.35137,0.18203 -0.57573,0.18203 -0.43604,0 -0.7366,-0.31326 -0.762,-0.80433 h 1.54939 c 0.008,-0.0593 0.0169,-0.13547 0.0169,-0.22013 0,-0.65617 -0.3302,-1.0795 -0.91863,-1.0795 -0.52494,0 -1.0287,0.46143 -1.0287,1.21073 0,0.75777 0.48683,1.20227 1.10066,1.20227 z m -0.7239,-1.38854 c 0.0466,-0.4572 0.33444,-0.71543 0.6604,-0.71543 0.35984,0 0.5715,0.24977 0.5715,0.71543 z m 2.13784,1.3335 h 0.38946 v -1.66793 c 0.2286,-0.23283 0.38947,-0.35137 0.62654,-0.35137 0.3048,0 0.43603,0.18204 0.43603,0.61384 v 1.40546 h 0.38523 v -1.45626 c 0,-0.5842 -0.22013,-0.9017 -0.70273,-0.9017 -0.31327,0 -0.55457,0.17356 -0.77047,0.3937 h -0.008 l -0.0381,-0.33444 h -0.3175 z m 4.42807,0.055 c 0.6477,0 1.0541,-0.38947 1.0541,-0.88054 0,-0.46143 -0.2794,-0.6731 -0.63924,-0.82973 l -0.44026,-0.1905 c -0.2413,-0.1016 -0.51647,-0.2159 -0.51647,-0.5207 0,-0.27517 0.2286,-0.44873 0.57997,-0.44873 0.28786,0 0.51646,0.11006 0.70696,0.28786 l 0.2032,-0.24976 c -0.2159,-0.22437 -0.54186,-0.381 -0.91016,-0.381 -0.56304,0 -0.9779,0.3429 -0.9779,0.82126 0,0.45297 0.3429,0.6731 0.63076,0.79587 l 0.4445,0.19473 c 0.29634,0.13124 0.5207,0.23284 0.5207,0.55457 0,0.30057 -0.2413,0.50377 -0.65193,0.50377 -0.32173,0 -0.635,-0.1524 -0.85513,-0.38524 l -0.23284,0.27094 c 0.2667,0.2794 0.64347,0.4572 1.08374,0.4572 z m 2.51883,0 c 0.56303,0 1.06257,-0.44027 1.06257,-1.20227 0,-0.76623 -0.49954,-1.21073 -1.06257,-1.21073 -0.56303,0 -1.06256,0.4445 -1.06256,1.21073 0,0.762 0.49953,1.20227 1.06256,1.20227 z m 0,-0.32174 c -0.39793,0 -0.66463,-0.35136 -0.66463,-0.88053 0,-0.52917 0.2667,-0.88477 0.66463,-0.88477 0.39793,0 0.66887,0.3556 0.66887,0.88477 0,0.52917 -0.27094,0.88053 -0.66887,0.88053 z m 2.34527,0.32174 c 0.31327,0 0.54187,-0.1651 0.75777,-0.41487 h 0.0127 l 0.0296,0.35983 h 0.32173 v -2.2987 h -0.38523 v 1.62984 c -0.22013,0.27093 -0.38523,0.38946 -0.6223,0.38946 -0.3048,0 -0.4318,-0.18203 -0.4318,-0.6096 v -1.4097 h -0.38947 v 1.45627 c 0,0.58843 0.22014,0.89747 0.70697,0.89747 z m 1.89653,-0.055 h 0.38947 v -1.47743 c 0.1524,-0.38947 0.38523,-0.5334 0.57573,-0.5334 0.0974,0 0.14817,0.0127 0.22437,0.0381 l 0.072,-0.33443 c -0.072,-0.0381 -0.14393,-0.0508 -0.24553,-0.0508 -0.254,0 -0.49106,0.18626 -0.65193,0.47836 h -0.008 l -0.0381,-0.4191 h -0.3175 z m 2.50191,0.055 c 0.27516,0 0.53763,-0.11007 0.74506,-0.28787 l -0.16933,-0.26247 c -0.14394,0.127 -0.3302,0.2286 -0.54187,0.2286 -0.42333,0 -0.7112,-0.35136 -0.7112,-0.88053 0,-0.52917 0.3048,-0.88477 0.7239,-0.88477 0.1778,0 0.32597,0.0804 0.4572,0.19897 l 0.19473,-0.254 c -0.16086,-0.14393 -0.3683,-0.27093 -0.66886,-0.27093 -0.59267,0 -1.1049,0.4445 -1.1049,1.21073 0,0.762 0.46567,1.20227 1.07527,1.20227 z m 2.08279,0 c 0.30904,0 0.55457,-0.1016 0.75354,-0.23284 l -0.13547,-0.25823 c -0.17357,0.1143 -0.35137,0.18203 -0.57573,0.18203 -0.43604,0 -0.7366,-0.31326 -0.762,-0.80433 h 1.5494 c 0.008,-0.0593 0.0169,-0.13547 0.0169,-0.22013 0,-0.65617 -0.3302,-1.0795 -0.91863,-1.0795 -0.52494,0 -1.0287,0.46143 -1.0287,1.21073 0,0.75777 0.48683,1.20227 1.10066,1.20227 z m -0.7239,-1.38854 c 0.0466,-0.4572 0.33444,-0.71543 0.6604,-0.71543 0.35984,0 0.5715,0.24977 0.5715,0.71543 z m 3.12421,1.3335 h 1.74836 v -0.33443 h -1.35889 v -2.7686 h -0.38947 z m 2.26059,0 h 0.38947 v -2.2987 h -0.38947 z m 0.19474,-2.77283 c 0.1524,0 0.25823,-0.1016 0.25823,-0.25823 0,-0.14817 -0.10583,-0.24977 -0.25823,-0.24977 -0.1524,0 -0.254,0.1016 -0.254,0.24977 0,0.15663 0.1016,0.25823 0.254,0.25823 z m 1.87536,2.82787 c 0.27517,0 0.53763,-0.11007 0.74507,-0.28787 l -0.16934,-0.26247 c -0.14393,0.127 -0.3302,0.2286 -0.54186,0.2286 -0.42334,0 -0.7112,-0.35136 -0.7112,-0.88053 0,-0.52917 0.3048,-0.88477 0.7239,-0.88477 0.1778,0 0.32596,0.0804 0.4572,0.19897 l 0.19473,-0.254 c -0.16087,-0.14393 -0.3683,-0.27093 -0.66887,-0.27093 -0.59266,0 -1.1049,0.4445 -1.1049,1.21073 0,0.762 0.46567,1.20227 1.07527,1.20227 z m 2.0828,0 c 0.30903,0 0.55456,-0.1016 0.75353,-0.23284 l -0.13547,-0.25823 c -0.17356,0.1143 -0.35136,0.18203 -0.57573,0.18203 -0.43603,0 -0.7366,-0.31326 -0.762,-0.80433 h 1.5494 c 0.008,-0.0593 0.0169,-0.13547 0.0169,-0.22013 0,-0.65617 -0.3302,-1.0795 -0.91863,-1.0795 -0.52493,0 -1.0287,0.46143 -1.0287,1.21073 0,0.75777 0.48684,1.20227 1.10067,1.20227 z m -0.7239,-1.38854 c 0.0466,-0.4572 0.33443,-0.71543 0.6604,-0.71543 0.35983,0 0.5715,0.24977 0.5715,0.71543 z m 2.13783,1.3335 h 0.38947 v -1.66793 c 0.2286,-0.23283 0.38947,-0.35137 0.62653,-0.35137 0.3048,0 0.43604,0.18204 0.43604,0.61384 v 1.40546 h 0.38523 v -1.45626 c 0,-0.5842 -0.22013,-0.9017 -0.70273,-0.9017 -0.31327,0 -0.55457,0.17356 -0.77047,0.3937 h -0.008 l -0.0381,-0.33444 h -0.3175 z m 3.18347,0.055 c 0.54187,0 0.83397,-0.30904 0.83397,-0.68157 0,-0.43603 -0.36407,-0.5715 -0.6985,-0.6985 -0.25824,-0.0974 -0.4953,-0.18203 -0.4953,-0.39793 0,-0.18204 0.13546,-0.33444 0.42756,-0.33444 0.2032,0 0.36407,0.0889 0.5207,0.2032 l 0.18627,-0.2413 c -0.17357,-0.14393 -0.42757,-0.26246 -0.7112,-0.26246 -0.50377,0 -0.79163,0.28786 -0.79163,0.65193 0,0.3937 0.34713,0.5461 0.66886,0.66463 0.254,0.0931 0.52494,0.2032 0.52494,0.43604 0,0.19896 -0.14817,0.35983 -0.45297,0.35983 -0.27517,0 -0.47837,-0.11007 -0.68157,-0.27517 l -0.18626,0.25824 c 0.2159,0.18203 0.52916,0.3175 0.85513,0.3175 z m 2.3114,0 c 0.30903,0 0.55457,-0.1016 0.75353,-0.23284 l -0.13546,-0.25823 c -0.17357,0.1143 -0.35137,0.18203 -0.57574,0.18203 -0.43603,0 -0.7366,-0.31326 -0.762,-0.80433 h 1.5494 c 0.008,-0.0593 0.0169,-0.13547 0.0169,-0.22013 0,-0.65617 -0.3302,-1.0795 -0.91864,-1.0795 -0.52493,0 -1.0287,0.46143 -1.0287,1.21073 0,0.75777 0.48684,1.20227 1.10067,1.20227 z m -0.7239,-1.38854 c 0.0466,-0.4572 0.33443,-0.71543 0.6604,-0.71543 0.35983,0 0.5715,0.24977 0.5715,0.71543 z m 2.73897,1.38854 c 0.54186,0 0.83396,-0.30904 0.83396,-0.68157 0,-0.43603 -0.36406,-0.5715 -0.69849,-0.6985 -0.25824,-0.0974 -0.4953,-0.18203 -0.4953,-0.39793 0,-0.18204 0.13546,-0.33444 0.42756,-0.33444 0.2032,0 0.36407,0.0889 0.5207,0.2032 l 0.18627,-0.2413 c -0.17357,-0.14393 -0.42757,-0.26246 -0.7112,-0.26246 -0.50377,0 -0.79163,0.28786 -0.79163,0.65193 0,0.3937 0.34713,0.5461 0.66886,0.66463 0.254,0.0931 0.52493,0.2032 0.52493,0.43604 0,0.19896 -0.14816,0.35983 -0.45296,0.35983 -0.27517,0 -0.47837,-0.11007 -0.68157,-0.27517 l -0.18626,0.25824 c 0.2159,0.18203 0.52916,0.3175 0.85513,0.3175 z m 1.4097,0.77469 c 0.38947,-0.63076 0.6223,-1.31233 0.6223,-2.14629 0,-0.82974 -0.23283,-1.5113 -0.6223,-2.1463 l -0.2413,0.11006 c 0.36407,0.60537 0.5461,1.3208 0.5461,2.03624 0,0.71966 -0.18203,1.43933 -0.5461,2.04046 z"
       id="text17"
       style="font-size:4.23333px;line-height:1;font-family:'思源黑体 CN';-inkscape-font-specification:'思源黑体 CN';text-align:center;letter-spacing:0px;word-spacing:0px;text-anchor:middle"
       aria-label="(Open Source Licenses)" /><path
       style="fill:#ae89b9;fill-opacity:1;stroke:none;stroke-width:1;stroke-dasharray:none;stroke-opacity:1"
       d="m 129.184,139.58029 20.93426,7.79467 21.99211,-7.73899 z"
       id="path17" /></g></svg>
