<?xml version="1.0" encoding="UTF-8" standalone="no"?>
<!-- Generator: Adobe Illustrator 26.5.0, SVG Export Plug-In . SVG Version: 6.00 Build 0)  -->

<svg
   version="1.0"
   id="Badges"
   x="0px"
   y="0px"
   viewBox="0 0 644.29999 170.20001"
   xml:space="preserve"
   sodipodi:docname="imggpu-1.svg"
   width="644.29999"
   height="170.20001"
   inkscape:version="1.4 (e7c3feb100, 2024-10-09)"
   xmlns:inkscape="http://www.inkscape.org/namespaces/inkscape"
   xmlns:sodipodi="http://sodipodi.sourceforge.net/DTD/sodipodi-0.dtd"
   xmlns="http://www.w3.org/2000/svg"
   xmlns:svg="http://www.w3.org/2000/svg"><defs
   id="defs7"><rect
     x="274.0665"
     y="237.33594"
     width="154.69217"
     height="67.103912"
     id="rect12" /></defs><sodipodi:namedview
   id="namedview7"
   pagecolor="#ffffff"
   bordercolor="#000000"
   borderopacity="0.25"
   inkscape:showpageshadow="2"
   inkscape:pageopacity="0.0"
   inkscape:pagecheckerboard="0"
   inkscape:deskcolor="#d1d1d1"
   inkscape:zoom="1.0010616"
   inkscape:cx="400.07529"
   inkscape:cy="12.486744"
   inkscape:window-width="2194"
   inkscape:window-height="1158"
   inkscape:window-x="0"
   inkscape:window-y="0"
   inkscape:window-maximized="1"
   inkscape:current-layer="Badges" />
<style
   type="text/css"
   id="style1">
	.st0{fill:#76B900;}
	.st1{fill:#1E1E1E;}
	.st2{fill:#FFFFFF;}
</style>
<g
   id="GeForce_RTX_Studio"
   transform="translate(-56.4,-149.39999)">
	<path
   style="fill:#1e1e1e;fill-opacity:1"
   d="m 682.9,149.4 v 170.2 h 17.8 V 149.4 Z"
   id="path12" /><path
   style="fill:#1e1e1e;fill-opacity:1"
   d="M 257.5,149.4 V 319.6 H 56.4 V 149.4 Z"
   id="path1" />
	<rect
   x="257.5"
   y="149.39999"
   class="st1"
   width="425.39999"
   height="170.2"
   id="rect1"
   style="fill:#650f4d;fill-opacity:1;stroke-width:1.10978" />
	<path
   id="NVIDIA_Logo"
   class="st1"
   d="m 145.5,261.8 v 25.6 h 7.2 v -25.6 z m -56.9,0 v 25.6 h 7.3 v -19.5 h 5.6 c 1.9,0 3.2,0.5 4.1,1.4 1.1,1.2 1.6,3.2 1.6,6.8 v 11.2 h 7.1 v -14.2 c 0,-10.1 -6.4,-11.5 -12.7,-11.5 l -13,0.2 m 68.5,0 v 25.6 h 11.7 c 6.2,0 8.3,-1 10.5,-3.4 1.6,-1.6 2.6,-5.2 2.6,-9.1 0,-3.6 -0.9,-6.8 -2.3,-8.8 -2.7,-3.6 -6.5,-4.3 -12.3,-4.3 z m 7.2,5.6 h 3.1 c 4.5,0 7.4,2 7.4,7.3 0,5.3 -2.9,7.3 -7.4,7.3 h -3.1 z m -29.3,-5.6 -6,20.3 -5.8,-20.3 h -7.8 l 8.3,25.6 h 10.4 l 8.3,-25.6 z m 50.2,25.6 h 7.2 v -25.6 h -7.2 z m 20.3,-25.6 -10.1,25.6 h 7.1 l 1.6,-4.5 H 216 l 1.5,4.5 h 7.7 L 215,261.8 Z m 4.7,4.7 4.4,12 h -8.9 z m -74.3,-64.6 v -6.1 c 0.6,0 1.2,-0.1 1.8,-0.1 16.8,-0.5 27.8,14.4 27.8,14.4 0,0 -11.9,16.5 -24.6,16.5 -1.8,0 -3.5,-0.3 -5,-0.8 v -18.6 c 6.5,0.8 7.9,3.7 11.8,10.2 l 8.7,-7.4 c 0,0 -6.4,-8.4 -17.2,-8.4 -1.1,0.1 -2.2,0.2 -3.3,0.3 m 0,-20.3 v 9.2 c 0.6,0 1.2,-0.1 1.8,-0.1 23.4,-0.8 38.6,19.2 38.6,19.2 0,0 -17.5,21.3 -35.7,21.3 -1.7,0 -3.2,-0.2 -4.7,-0.4 v 5.7 c 1.3,0.2 2.6,0.3 3.9,0.3 17,0 29.2,-8.7 41.1,-18.9 2,1.6 10,5.4 11.7,7.1 -11.3,9.5 -37.6,17.1 -52.5,17.1 -1.4,0 -2.8,-0.1 -4.2,-0.2 v 8 h 64.5 v -68 z m 0,44.2 v 4.8 c -15.7,-2.8 -20,-19.1 -20,-19.1 0,0 7.5,-8.3 20,-9.7 v 5.3 0 c -6.6,-0.8 -11.7,5.3 -11.7,5.3 0,0 2.9,10.5 11.7,13.4 M 108,210.9 c 0,0 9.3,-13.7 27.9,-15.1 v -5 c -20.6,1.6 -38.4,19.1 -38.4,19.1 0,0 10.1,29.1 38.4,31.8 v -5.3 C 115.1,233.8 108,210.9 108,210.9 Z"
   style="display:inline" />
	
	
	
	
	
	
	
	
	
	
</g>
<path
   style="fill:#ffffff;fill-opacity:1;fill-rule:nonzero;stroke:none;stroke-width:3.10653"
   d="m 105.51619,58.284376 c 1.35135,2.9279 2.3532,6.00725 3.00558,9.16039 H 156.9681 V 119.98784 H 104.83276 V 74.939266 c -0.16309,-5.82474 -1.66584,-11.51358 -4.38021,-16.65489 h -0.0311 c -6.29458,-11.86307 -18.7207,-19.94781 -32.97579,-19.94781 -20.63124,0 -37.39097,16.89952 -37.39097,37.67832 0,20.76716 16.75973,37.678334 37.39097,37.678334 9.0245,0 17.30726,-3.24632 23.76884,-8.62839 L 91.23,91.458226 c -5.05196,7.855644 -13.82017,13.090144 -23.78437,13.090144 -15.62581,0 -28.3199,-12.802784 -28.3199,-28.533484 0,-15.73069 12.69409,-28.52959 28.3199,-28.52959 15.54819,0 28.21117,12.70959 28.30437,28.37815 v 53.273114 h 70.30465 V 58.284366 Z"
   id="path11" /><path
   style="fill:#ffffff;fill-opacity:1;fill-rule:nonzero;stroke:none;stroke-width:2.95556"
   d="m 511.09726,38.153616 h 8.94795 v 37.35089 h -8.94795 z"
   id="path10" /><path
   style="fill:#ffffff;fill-opacity:1;fill-rule:nonzero;stroke:none;stroke-width:2.95556"
   d="m 393.7837,38.153616 h 8.94796 v 37.35089 h -8.94796 z"
   id="path9" /><path
   style="fill:#ffffff;fill-opacity:1;fill-rule:nonzero;stroke:none;stroke-width:2.95556"
   d="m 584.90131,36.886426 c -5.60082,0 -8.65982,3.10334 -10.1339,4.50353 v -3.23634 h -8.22385 v 37.32134 h 8.88884 v -17.77769 c 0,-3.11812 0,-7.03054 1.60339,-9.3248 1.59971,-2.46789 4.4592,-3.28805 6.07368,-3.28805 7.47757,0 7.47757,8.87406 7.47757,11.9774 v 18.41314 h 8.85928 v -20.19017 c 0,-2.87059 0,-9.13268 -3.42105,-13.23352 -3.04423,-3.74986 -7.90613,-5.16484 -11.12396,-5.16484"
   id="path8" /><path
   style="fill:#ffffff;fill-opacity:1;fill-rule:nonzero;stroke:none;stroke-width:2.95556"
   d="m 543.37936,68.477666 c -5.5971,0 -10.86538,-4.57743 -10.86538,-11.61904 0,-7.82116 6.29164,-11.77421 10.86538,-11.77421 5.55644,0 10.78043,5.05031 10.78043,11.81854 0,5.94436 -4.30037,11.57471 -10.78043,11.57471 m 0,-31.59124 c -10.60676,0 -19.73945,8.68566 -19.73945,19.9722 0,10.66587 8.74477,19.81333 19.73945,19.81333 10.30384,0 19.64339,-7.73248 19.64339,-19.95742 0,-11.43063 -9.15115,-19.82811 -19.64339,-19.82811"
   id="path7" /><path
   style="fill:#ffffff;fill-opacity:1;fill-rule:nonzero;stroke:none;stroke-width:2.95556"
   d="m 501.80202,25.714416 h -8.90363 v 12.4392 h -4.32986 v 7.95416 h 4.32986 v 29.36718 h 8.90363 v -29.36718 h 5.34218 v -7.95416 h -5.34218 z"
   id="path6-3" /><path
   style="fill:#ffffff;fill-opacity:1;fill-rule:nonzero;stroke:none;stroke-width:2.95556"
   d="m 464.8723,68.477666 c -6.33598,0 -10.99468,-5.18331 -10.99468,-11.50451 0,-5.55646 3.724,-11.90352 10.99468,-11.90352 5.29784,0 10.82474,3.90873 10.82474,11.65967 0,6.91233 -4.67717,11.74836 -10.82474,11.74836 m 11.09813,-25.58776 h -0.14394 c -0.27339,-0.56525 -4.76214,-6.00348 -12.28035,-6.00348 -10.27423,0 -18.54614,8.28296 -18.54614,19.71358 0,12.42444 8.47138,20.07195 18.02522,20.07195 4.6624,0 10.13018,-2.46789 12.94535,-5.84462 v 4.64762 h 8.13888 v -37.32134 h -8.13888 v 4.73629 z"
   id="path5-6" /><path
   style="fill:#ffffff;fill-opacity:1;fill-rule:nonzero;stroke:none;stroke-width:2.95556"
   d="m 426.51283,36.886426 c -5.58232,0 -8.64132,3.10334 -10.13018,4.50353 v -3.23634 h -8.20906 v 37.32134 h 8.87406 v -17.77769 c 0,-3.11812 0,-7.03054 1.61447,-9.3248 1.58865,-2.46789 4.4629,-3.28805 6.0626,-3.28805 7.48865,0 7.48865,8.87406 7.48865,11.9774 v 18.41314 h 8.86298 v -20.19017 c 0,-2.87059 0,-9.13268 -3.42107,-13.23352 -3.04422,-3.74986 -7.93567,-5.16484 -11.14245,-5.16484"
   id="path4-7" /><path
   style="fill:#ffffff;fill-opacity:1;fill-rule:nonzero;stroke:none;stroke-width:2.95556"
   d="m 368.87572,68.518296 c -5.38281,0 -11.06858,-4.37053 -11.06858,-11.96262 0,-7.05639 5.46779,-11.43063 10.83584,-11.43063 6.59831,0 10.85429,6.04781 10.85429,11.35674 0,7.44801 -5.23873,12.03651 -10.62155,12.03651 m 10.89494,-25.74662 h -0.14395 c -0.98272,-1.49994 -4.18577,-5.84461 -11.80376,-5.84461 -9.39498,0 -18.87864,7.86549 -18.87864,19.55472 0,12.49832 9.94546,20.2345 18.94884,20.2345 7.54775,0 10.93926,-4.27078 12.13627,-6.00348 l 0.14422,0.15872 c -0.47289,8.12409 -6.34706,11.61534 -11.34196,11.61534 -1.41497,0 -5.67098,0 -9.16224,-4.15255 h -10.11909 c 3.19201,8.33836 10.99838,12.3801 18.61633,12.3801 7.00098,0 20.21976,-4.11192 20.21976,-22.06696 v -30.44965 h -8.61549 v 4.57373 z"
   id="path3-5" /><path
   style="fill:#ffffff;fill-opacity:1;fill-rule:nonzero;stroke:none;stroke-width:2.95556"
   d="m 325.82802,68.518296 c -6.35078,0 -10.9984,-5.17961 -10.9984,-11.50081 0,-5.55645 3.72404,-11.922 10.9984,-11.922 5.24981,0 10.82105,3.92721 10.82105,11.66339 0,6.92709 -4.68829,11.75942 -10.82105,11.75942 m 11.05377,-25.59883 h -0.11823 c -0.25861,-0.56525 -4.74736,-5.9924 -12.29513,-5.9924 -10.24471,0 -18.52766,8.27187 -18.52766,19.71358 0,12.42813 8.47137,20.07564 18.02521,20.07564 4.65871,0 10.11541,-2.46789 12.91581,-5.84462 v 4.63284 h 8.15365 v -37.30654 h -8.15365 z"
   id="path2-3" /><path
   style="fill:#ffffff;fill-opacity:1;fill-rule:nonzero;stroke:none;stroke-width:2.95556"
   d="m 287.1508,36.927066 c -2.58242,0 -8.06868,0.24738 -11.96263,5.84461 -3.45062,-5.39388 -8.65979,-5.84461 -10.66588,-5.84461 -6.40986,0 -8.94795,3.22156 -9.6536,4.44812 h -0.14778 v -3.17722 h -8.15364 v 37.30654 h 8.86298 v -18.60155 c 0,-3.9974 0,-11.77791 7.07118,-11.77791 5.48257,0 7.43323,4.57743 7.43323,9.69793 v 20.68153 h 8.87407 v -18.60155 c 0,-2.35337 -0.0739,-6.06259 1.35587,-8.28295 1.22655,-2.13909 3.62424,-3.49496 6.118,-3.49496 6.98621,0 6.98621,7.53298 6.98621,9.69793 v 20.68153 h 8.87406 v -21.76399 c 0,-5.52691 -1.31152,-9.07728 -2.79669,-11.02425 -1.33001,-1.87678 -4.93579,-5.7892 -12.19538,-5.7892"
   id="path1-5" /><path
   style="fill:#ffffff;fill-opacity:1;fill-rule:nonzero;stroke:none;stroke-width:2.95556"
   d="m 232.10719,34.791676 v 40.65372 h 9.00707 v -49.73098 z"
   id="path53425" /><path
   style="font-weight:bold;font-size:69.3333px;line-height:0.8;font-family:Carlito;-inkscape-font-specification:'Carlito Bold';white-space:pre;fill:#ffffff;stroke-width:0.377953"
   d="m 278.09505,282.40258 v -44.95831 h 15.26822 q 4.33333,0 7.41406,0.84635 3.08073,0.84636 5.01041,2.40365 1.96354,1.55729 2.84375,3.79166 0.91406,2.20052 0.91406,4.94271 0,1.55729 -0.4401,3.01302 -0.4401,1.45573 -1.35417,2.70833 -0.91406,1.2526 -2.36979,2.30208 -1.42187,1.01563 -3.41926,1.72657 8.70051,2.09895 8.70051,9.91926 0,2.8776 -1.04948,5.3151 -1.04948,2.4375 -3.08072,4.23177 -1.9974,1.76042 -4.97656,2.77604 -2.94532,0.98177 -6.77083,0.98177 z m 8.90364,-19.53384 v 12.62759 h 7.61718 q 2.13282,0 3.55469,-0.54166 1.42187,-0.54167 2.23437,-1.45573 0.84636,-0.91406 1.1849,-2.09896 0.33854,-1.21875 0.33854,-2.5052 0,-1.38802 -0.40625,-2.50521 -0.37239,-1.11719 -1.2526,-1.89583 -0.84636,-0.77865 -2.26823,-1.1849 -1.38802,-0.4401 -3.41927,-0.4401 z m 0,-6.1276 h 5.85677 q 3.75781,0 5.78906,-1.42188 2.03125,-1.45573 2.03125,-4.77343 0,-3.45313 -1.76042,-4.84115 -1.76041,-1.42187 -5.55208,-1.42187 h -6.36458 z m 37.30727,2.53906 -12.35676,-21.83593 h 8.93749 q 0.88021,0 1.25261,0.23698 0.40625,0.20313 0.74479,0.74479 l 8.125,15.60676 0.54166,-0.98177 7.10937,-14.45572 q 0.3724,-0.57552 0.77865,-0.84635 0.40625,-0.30469 0.98177,-0.30469 h 8.49739 l -12.49218,21.42968 12.76301,23.52863 h -8.83593 q -0.91406,0 -1.45573,-0.4401 -0.50781,-0.47396 -0.88021,-1.04948 l -8.15885,-16.21614 q -0.0677,0.16927 -0.16927,0.33854 -0.10156,0.13542 -0.16927,0.30469 l -7.58333,15.53905 q -0.37239,0.57553 -0.84635,1.04948 -0.47396,0.47396 -1.2526,0.47396 h -8.36198 z m 56.53643,-21.83593 v 7.07552 h -18.48436 v 11.8828 h 14.38801 v 6.80469 h -14.38801 v 12.11978 h 18.51822 l -0.0339,7.07552 h -27.42186 v -44.95831 z"
   id="text12"
   transform="translate(-46.4,-143.39999)"
   aria-label="BXE" /></svg>
