<?xml version="1.0" encoding="UTF-8" standalone="no"?>
<svg
   width="237.96394"
   height="71.686111"
   version="1.1"
   id="svg4"
   sodipodi:docname="no-systemd.svg"
   inkscape:version="1.4 (e7c3feb100, 2024-10-09)"
   inkscape:export-filename="no-systemd.webp"
   inkscape:export-xdpi="200"
   inkscape:export-ydpi="200"
   xmlns:inkscape="http://www.inkscape.org/namespaces/inkscape"
   xmlns:sodipodi="http://sodipodi.sourceforge.net/DTD/sodipodi-0.dtd"
   xmlns="http://www.w3.org/2000/svg"
   xmlns:svg="http://www.w3.org/2000/svg">
  <defs
     id="defs4" />
  <sodipodi:namedview
     id="namedview4"
     pagecolor="#ffffff"
     bordercolor="#000000"
     borderopacity="0.25"
     inkscape:showpageshadow="2"
     inkscape:pageopacity="0.0"
     inkscape:pagecheckerboard="0"
     inkscape:deskcolor="#d1d1d1"
     inkscape:zoom="2.3575"
     inkscape:cx="119.83033"
     inkscape:cy="-29.480382"
     inkscape:window-width="2194"
     inkscape:window-height="1158"
     inkscape:window-x="0"
     inkscape:window-y="0"
     inkscape:window-maximized="1"
     inkscape:current-layer="svg4" />
  <rect
     style="fill:#ffffff;stroke-width:0.377953"
     id="rect4"
     width="237.96394"
     height="71.686111"
     x="0"
     y="0" />
  <g
     transform="translate(28.981972,-886.99494)"
     id="g4">
    <path
       style="line-height:normal;font-variant-ligatures:normal;font-variant-position:normal;font-variant-caps:normal;font-variant-numeric:normal;font-variant-alternates:normal;font-feature-settings:normal;text-indent:0;text-align:start;text-decoration-line:none;text-decoration-style:solid;text-decoration-color:#000000;text-transform:none;text-orientation:mixed;white-space:normal;shape-padding:0;isolation:auto;mix-blend-mode:normal;solid-color:#000000;solid-opacity:1"
       d="m -12,917.61 v 26 h 10 v -4 h -6 v -18 h 6 v -4 z m 76,0 v 4 h 6 v 18 h -6 v 4 h 10 v -26 z"
       color="#000000"
       font-weight="400"
       font-family="sans-serif"
       overflow="visible"
       fill="#201a26"
       id="path2" />
    <path
       d="m 101.498,932.536 q -4.5,-0.96 -4.5,-3.878 0,-1.079 0.609,-1.981 0.621,-0.902 1.781,-1.441 1.16,-0.54 2.707,-0.54 1.63,0 2.848,0.528 1.219,0.516 1.875,1.453 0.656,0.926 0.656,2.121 h -3.539 q 0,-0.762 -0.457,-1.183 -0.457,-0.434 -1.394,-0.434 -0.774,0 -1.243,0.363 -0.457,0.364 -0.457,0.938 0,0.55 0.516,0.89 0.527,0.34 1.781,0.575 1.5,0.28 2.543,0.738 1.043,0.445 1.653,1.242 0.62,0.797 0.62,2.027 0,1.114 -0.667,2.004 -0.657,0.88 -1.887,1.383 -1.219,0.504 -2.836,0.504 -1.711,0 -2.965,-0.621 -1.242,-0.633 -1.898,-1.617 -0.645,-0.985 -0.645,-2.051 h 3.34 q 0.036,0.914 0.656,1.36 0.621,0.433 1.594,0.433 0.902,0 1.383,-0.34 0.492,-0.351 0.492,-0.937 0,-0.364 -0.223,-0.61 -0.21,-0.258 -0.773,-0.48 -0.55,-0.223 -1.57,-0.446 z m 19.384,-7.606 -5.086,14.58 q -0.293,0.831 -0.726,1.523 -0.434,0.703 -1.266,1.195 -0.832,0.504 -2.098,0.504 -0.457,0 -0.75,-0.048 -0.281,-0.046 -0.785,-0.176 v -2.672 q 0.176,0.02 0.527,0.02 0.95,0 1.418,-0.293 0.47,-0.293 0.715,-0.961 l 0.352,-0.926 -4.43,-12.738 h 3.797 l 2.262,7.687 2.285,-7.687 z m 5.884,7.606 q -4.5,-0.96 -4.5,-3.878 0,-1.079 0.61,-1.981 0.62,-0.902 1.781,-1.441 1.16,-0.54 2.707,-0.54 1.629,0 2.848,0.528 1.218,0.516 1.875,1.453 0.656,0.926 0.656,2.121 h -3.539 q 0,-0.762 -0.457,-1.183 -0.457,-0.434 -1.395,-0.434 -0.773,0 -1.242,0.363 -0.457,0.364 -0.457,0.938 0,0.55 0.516,0.89 0.527,0.34 1.781,0.575 1.5,0.28 2.543,0.738 1.043,0.445 1.652,1.242 0.621,0.797 0.621,2.027 0,1.114 -0.668,2.004 -0.656,0.88 -1.886,1.383 -1.219,0.504 -2.836,0.504 -1.711,0 -2.965,-0.621 -1.242,-0.633 -1.899,-1.617 -0.644,-0.985 -0.644,-2.051 h 3.34 q 0.036,0.914 0.656,1.36 0.621,0.433 1.594,0.433 0.902,0 1.383,-0.34 0.492,-0.351 0.492,-0.937 0,-0.364 -0.223,-0.61 -0.21,-0.258 -0.773,-0.48 -0.551,-0.223 -1.57,-0.446 z m 13.983,2.403 q 0.574,0 0.984,-0.082 v 2.66 q -0.914,0.328 -2.086,0.328 -3.727,0 -3.727,-3.797 v -6.539 h -1.793 v -2.578 h 1.793 v -3.14 h 3.54 v 3.14 h 2.132 v 2.578 h -2.133 v 6.129 q 0,0.75 0.293,1.031 0.293,0.27 0.997,0.27 z m 14.228,-2.519 h -8.016 q 0.2,1.183 0.985,1.886 0.785,0.691 2.015,0.691 0.914,0 1.688,-0.34 0.785,-0.351 1.336,-1.042 l 1.699,1.957 q -0.668,0.96 -1.957,1.617 -1.278,0.656 -3,0.656 -1.946,0 -3.387,-0.82 -1.43,-0.82 -2.203,-2.227 -0.762,-1.406 -0.762,-3.105 v -0.446 q 0,-1.898 0.715,-3.386 0.715,-1.489 2.063,-2.32 1.347,-0.844 3.187,-0.844 1.793,0 3.059,0.761 1.265,0.762 1.922,2.168 0.656,1.395 0.656,3.293 z m -3.469,-2.65 q -0.024,-1.03 -0.574,-1.628 -0.54,-0.598 -1.617,-0.598 -1.008,0 -1.582,0.668 -0.563,0.668 -0.739,1.84 h 4.512 z m 19.923,-5.073 q 1.934,0 2.989,1.148 1.054,1.148 1.054,3.727 v 8.039 h -3.539 v -8.051 q 0,-0.797 -0.21,-1.23 -0.212,-0.446 -0.61,-0.61 -0.387,-0.164 -0.984,-0.164 -0.715,0 -1.219,0.352 -0.504,0.34 -0.797,0.972 0.02,0.082 0.02,0.27 v 8.46 h -3.54 v -8.015 q 0,-0.797 -0.21,-1.242 -0.211,-0.445 -0.61,-0.621 -0.386,-0.176 -0.996,-0.176 -0.68,0 -1.183,0.304 -0.492,0.293 -0.797,0.844 v 8.906 h -3.539 v -12.68 h 3.316 l 0.118,1.419 q 0.633,-0.797 1.547,-1.22 0.926,-0.433 2.086,-0.433 1.172,0 2.016,0.48 0.855,0.47 1.312,1.442 0.633,-0.926 1.582,-1.418 0.961,-0.504 2.203,-0.504 z m 17.967,-5.087 v 18 h -3.187 l -0.176,-1.359 q -1.243,1.594 -3.212,1.594 -1.535,0 -2.66,-0.82 -1.113,-0.832 -1.699,-2.285 -0.574,-1.454 -0.574,-3.317 v -0.246 q 0,-1.934 0.574,-3.398 0.586,-1.465 1.7,-2.274 1.124,-0.808 2.683,-0.808 1.805,0 3.012,1.37 v -6.456 z m -5.672,15.376 q 1.488,0 2.133,-1.266 v -4.898 q -0.61,-1.266 -2.11,-1.266 -1.207,0 -1.77,0.984 -0.55,0.985 -0.55,2.637 v 0.246 q 0,1.629 0.54,2.602 0.55,0.96 1.757,0.96 z"
       style="line-height:1.25;-inkscape-font-specification:'Heebo Bold';text-align:start"
       font-weight="700"
       font-size="12px"
       font-family="Heebo"
       letter-spacing="0.2"
       word-spacing="0"
       fill="#201a26"
       id="path3" />
    <path
       d="m 33,930.61 18,-10 v 20 z"
       fill="#30d475"
       id="path4" />
    <circle
       r="9"
       cy="930.61102"
       cx="18.000999"
       fill="#30d475"
       id="circle4" />
  </g>
  <rect
     style="fill:#800000;stroke-width:0.319389"
     id="rect7"
     width="215.47449"
     height="3"
     x="11.244728"
     y="42" />
  <g
     id="text4"
     style="font-weight:500;font-size:16px;line-height:0.8;font-family:Roboto;-inkscape-font-specification:'Roboto Medium';fill:#6a4ad6;stroke-width:0.377953"
     aria-label="NOT Powered By"
     transform="translate(-31.018028,-55.384941)">
    <path
       style="font-weight:normal;font-size:13.3333px;-inkscape-font-specification:Roboto;fill:#800000"
       d="m 108.57562,80.386147 h -1.64713 l -4.22525,-6.725244 v 6.725244 h -1.64713 v -9.479143 h 1.64713 l 4.23827,6.751285 v -6.751285 h 1.63411 z m 9.51169,-4.492177 q 0,1.393226 -0.48177,2.447911 -0.48177,1.048174 -1.3802,1.614579 -0.89193,0.559895 -2.05729,0.559895 -1.15234,0 -2.05728,-0.559895 -0.89844,-0.566405 -1.39323,-1.608069 -0.48828,-1.041664 -0.49479,-2.402337 v -0.533853 q 0,-1.386715 0.48828,-2.447911 0.49479,-1.061195 1.38672,-1.621089 0.89843,-0.566405 2.05728,-0.566405 1.15885,0 2.05078,0.559894 0.89843,0.553384 1.38671,1.601559 0.48828,1.041664 0.49479,2.428379 z m -1.64713,-0.49479 q 0,-1.575517 -0.59895,-2.415358 -0.59245,-0.839842 -1.6862,-0.839842 -1.0677,0 -1.67317,0.839842 -0.59896,0.833331 -0.61198,2.363275 v 0.546873 q 0,1.562496 0.60547,2.415359 0.61198,0.852862 1.6927,0.852862 1.09375,0 1.67969,-0.833331 0.59244,-0.833331 0.59244,-2.43489 z m 9.58331,-3.164055 h -2.95572 v 8.151022 h -1.63411 v -8.151022 h -2.92968 v -1.328121 h 7.51951 z"
       id="path1" />
    <path
       style="font-weight:350;font-size:13.3333px;-inkscape-font-specification:'Roboto Semi-Light';fill:#000000"
       d="m 132.19276,76.525479 v 3.860668 h -0.80078 v -9.479143 h 3.22916 q 1.47786,0 2.33072,0.755206 0.85937,0.755207 0.85937,2.076818 0,1.334632 -0.82682,2.063797 -0.82031,0.722654 -2.38281,0.722654 z m 0,-0.677081 h 2.42838 q 1.16536,0 1.77733,-0.553384 0.61198,-0.553384 0.61198,-1.542965 0,-0.983071 -0.61198,-1.562496 -0.60546,-0.585936 -1.72525,-0.598957 h -2.48046 z m 6.71222,0.911456 q 0,-1.015623 0.39062,-1.829423 0.39714,-0.8138 1.11328,-1.263017 0.72266,-0.455728 1.63411,-0.455728 1.40625,0 2.27864,0.98958 0.87239,0.983071 0.87239,2.610671 v 0.16276 q 0,1.022133 -0.39713,1.842443 -0.39062,0.8138 -1.10677,1.256507 -0.71614,0.442708 -1.63411,0.442708 -1.39973,0 -2.27864,-0.983071 -0.87239,-0.989581 -0.87239,-2.617181 z m 0.78125,0.214843 q 0,1.263017 0.65104,2.076818 0.65755,0.807289 1.71874,0.807289 1.05469,0 1.70573,-0.807289 0.65755,-0.813801 0.65755,-2.141922 v -0.149739 q 0,-0.80729 -0.29948,-1.477861 -0.29948,-0.670571 -0.83984,-1.035154 -0.54037,-0.371093 -1.23698,-0.371093 -1.04166,0 -1.69921,0.820311 -0.65755,0.8138 -0.65755,2.135411 z m 8.80206,1.79036 0.11719,0.605467 0.15625,-0.638019 1.6927,-5.390611 h 0.66406 l 1.67317,5.345038 0.18229,0.742186 0.14974,-0.683592 1.44531,-5.403632 h 0.80729 l -2.05077,7.044253 h -0.66407 l -1.80989,-5.585924 -0.0846,-0.384113 -0.0846,0.390624 -1.77734,5.579413 h -0.66406 l -2.04426,-7.044253 h 0.80078 z m 11.09372,1.751298 q -0.89843,0 -1.6276,-0.442708 -0.72265,-0.442707 -1.1263,-1.230465 -0.40364,-0.794269 -0.40364,-1.77734 v -0.279947 q 0,-1.015622 0.39062,-1.829422 0.39714,-0.8138 1.10026,-1.276039 0.70312,-0.468748 1.52343,-0.468748 1.28255,0 2.03125,0.878904 0.7552,0.872393 0.7552,2.389316 v 0.436197 h -5.02602 v 0.149739 q 0,1.197914 0.68359,1.998693 0.6901,0.794269 1.73176,0.794269 0.625,0 1.10026,-0.227864 0.48177,-0.227864 0.87239,-0.729165 l 0.48828,0.371093 q -0.85937,1.243487 -2.49348,1.243487 z m -0.14323,-6.640609 q -0.8789,0 -1.48437,0.64453 -0.59896,0.64453 -0.72916,1.731766 h 4.22525 v -0.08464 q -0.0326,-1.015622 -0.57943,-1.653641 -0.54687,-0.63802 -1.43229,-0.63802 z m 7.55857,0.130208 q -0.24739,-0.04557 -0.52734,-0.04557 -0.72916,0 -1.23697,0.410155 -0.5013,0.403645 -0.71615,1.178382 v 4.837228 h -0.77474 v -7.044253 h 0.76172 l 0.013,1.119788 q 0.61849,-1.249996 1.98567,-1.249996 0.32552,0 0.51433,0.08464 z m 3.83463,6.510401 q -0.89843,0 -1.6276,-0.442708 -0.72265,-0.442707 -1.1263,-1.230465 -0.40364,-0.794269 -0.40364,-1.77734 v -0.279947 q 0,-1.015622 0.39062,-1.829422 0.39714,-0.8138 1.10026,-1.276039 0.70312,-0.468748 1.52343,-0.468748 1.28255,0 2.03125,0.878904 0.7552,0.872393 0.7552,2.389316 v 0.436197 h -5.02603 v 0.149739 q 0,1.197914 0.6836,1.998693 0.6901,0.794269 1.73176,0.794269 0.625,0 1.10026,-0.227864 0.48177,-0.227864 0.87239,-0.729165 l 0.48828,0.371093 q -0.85937,1.243487 -2.49348,1.243487 z m -0.14323,-6.640609 q -0.8789,0 -1.48437,0.64453 -0.59896,0.64453 -0.72916,1.731766 h 4.22525 v -0.08464 q -0.0326,-1.015622 -0.57943,-1.653641 -0.54687,-0.63802 -1.43229,-0.63802 z m 3.99087,2.92317 q 0,-1.640621 0.72917,-2.61067 0.73567,-0.97656 1.99218,-0.97656 1.42578,0 2.17448,1.126299 v -3.951813 h 0.77473 v 9.999975 h -0.72916 l -0.0325,-0.937498 q -0.7487,1.067706 -2.20052,1.067706 -1.21744,0 -1.96614,-0.97656 -0.74219,-0.983071 -0.74219,-2.649733 z m 0.78776,0.136718 q 0,1.347653 0.54037,2.128901 0.54036,0.774738 1.52343,0.774738 1.4388,0 2.04427,-1.269528 v -3.307283 q -0.60547,-1.373695 -2.03125,-1.373695 -0.98307,0 -1.52994,0.774738 -0.54688,0.768227 -0.54688,2.272129 z m 10.35805,3.450513 v -9.479143 h 2.79947 q 1.52344,0 2.3112,0.631509 0.78775,0.624998 0.78775,1.848953 0,0.735676 -0.40364,1.282549 -0.39714,0.540363 -1.09375,0.774738 0.82682,0.182291 1.32812,0.8138 0.50781,0.631509 0.50781,1.458329 0,1.256508 -0.8138,1.966141 -0.80728,0.703124 -2.25259,0.703124 z m 0.80078,-4.557281 v 3.880199 h 2.40234 q 1.02864,0 1.6276,-0.520832 0.60547,-0.527343 0.60547,-1.45833 0,-0.878904 -0.57943,-1.386715 -0.57292,-0.514322 -1.58854,-0.514322 z m 0,-0.670571 h 2.1875 q 1.0026,-0.01953 1.54947,-0.468749 0.55338,-0.455728 0.55338,-1.321611 0,-0.911456 -0.57291,-1.341142 -0.56641,-0.436197 -1.71875,-0.436197 h -1.99869 z m 9.42055,4.108063 2.05729,-5.924464 h 0.83984 l -3.0078,8.242166 -0.15625,0.364583 q -0.57943,1.282548 -1.79036,1.282548 -0.27995,0 -0.59896,-0.09114 l -0.007,-0.64453 0.40364,0.03906 q 0.57292,0 0.92448,-0.286458 0.35807,-0.279947 0.60547,-0.97005 l 0.34505,-0.950518 -2.65624,-6.985659 h 0.85286 z"
       id="path5" />
  </g>
</svg>
