<?xml version="1.0" encoding="UTF-8" standalone="no"?>
<!-- Created with Inkscape (http://www.inkscape.org/) -->

<svg
   width="12.496819mm"
   height="15.570425mm"
   viewBox="0 0 12.496818 15.570425"
   version="1.1"
   id="svg1"
   sodipodi:docname="pipewire.svg"
   inkscape:version="1.4 (e7c3feb100, 2024-10-09)"
   xmlns:inkscape="http://www.inkscape.org/namespaces/inkscape"
   xmlns:sodipodi="http://sodipodi.sourceforge.net/DTD/sodipodi-0.dtd"
   xmlns="http://www.w3.org/2000/svg"
   xmlns:svg="http://www.w3.org/2000/svg">
  <sodipodi:namedview
     id="namedview1"
     pagecolor="#ffffff"
     bordercolor="#000000"
     borderopacity="0.25"
     inkscape:showpageshadow="2"
     inkscape:pageopacity="0.0"
     inkscape:pagecheckerboard="0"
     inkscape:deskcolor="#d1d1d1"
     inkscape:document-units="mm"
     inkscape:zoom="13.44119"
     inkscape:cx="7.8490077"
     inkscape:cy="19.455123"
     inkscape:window-width="2194"
     inkscape:window-height="1158"
     inkscape:window-x="0"
     inkscape:window-y="0"
     inkscape:window-maximized="1"
     inkscape:current-layer="layer1" />
  <defs
     id="defs1" />
  <g
     inkscape:label="图层 1"
     inkscape:groupmode="layer"
     id="layer1"
     transform="translate(-134.40674,-167.56388)">
    <path
       class="cls-28"
       d="m 146.85492,168.35757 c -0.37117,4.7592 -0.37117,9.46272 0,14.11057 0.0674,0.84431 -12.45403,0.80282 -12.39955,0 0.3155,-4.64949 0.3155,-9.35465 0,-14.11549 -0.0652,-0.9841 12.39955,-0.99157 12.39955,0.004 z"
       id="path8-8"
       style="fill:#5da2c7;fill-opacity:1;stroke:#aaaaaa;stroke-width:0.096786px;stroke-linecap:round;stroke-linejoin:bevel"
       sodipodi:nodetypes="cssssc" />
    <g
       id="g1"
       transform="matrix(0.83096614,0,0,0.83096614,23.775476,25.98821)">
      <rect
         style="fill:#ffffff;fill-opacity:1;stroke:none;stroke-width:0.188117;stop-color:#000000"
         id="rect5604"
         width="6.5840797"
         height="4.8910303"
         x="137.36311"
         y="173.67278" />
      <path
         inkscape:connector-curvature="0"
         inkscape:label="#path847"
         id="pwlogo"
         d="m -49851.44,8071.4503 c -2253.211,0 -4416.886,896.1 -6010.147,2489.3597 -1593.261,1593.27 -2489.367,3756.94 -2489.367,6010.15 0,2253.21 896.106,4416.89 2489.367,6010.15 455.029,455.02 960.45,845.75 1497.315,1182.43 v 62202.84 c -536.865,336.68 -1042.286,727.4 -1497.315,1182.43 -1593.261,1593.27 -2489.367,3756.94 -2489.367,6010.15 0,2253.21 896.106,4416.89 2489.367,6010.14 1593.261,1593.26 3756.936,2489.37 6010.147,2489.37 2253.211,0 4416.886,-896.11 6010.146,-2489.37 1593.261,-1593.25 2489.366,-3756.93 2489.366,-6010.14 0,-2253.21 -896.105,-4416.88 -2489.366,-6010.15 -674.305,-674.3 -1455.214,-1214.74 -2297.384,-1624.23 V 69032.42 L -16803.669,52096.05 V 26390.26 l -6974.885,-6974.88 c 322.287,-906.05 501.247,-1865.03 501.247,-2844.42 0,-2253.21 -896.104,-4416.88 -2489.369,-6010.15 -1593.261,-1593.2597 -3756.933,-2489.3597 -6010.146,-2489.3597 -2253.208,0 -4416.885,896.1 -6010.146,2489.3597 -1593.261,1593.27 -2489.365,3756.94 -2489.365,6010.15 0,2253.21 896.104,4416.89 2489.365,6010.15 1593.261,1593.26 3756.938,2489.36 6010.146,2489.36 616.344,0 1224.738,-73.19 1817.828,-203.23 l 4929.73,4929.74 V 47347.06 L -46138.678,59534.43 V 24205.34 c 842.17,-409.49 1623.079,-949.93 2297.384,-1624.23 1593.261,-1593.26 2489.366,-3756.94 2489.366,-6010.15 0,-2253.21 -896.105,-4416.88 -2489.366,-6010.15 -1593.26,-1593.2597 -3756.935,-2489.3597 -6010.146,-2489.3597 z m 43891.2598,0 c -2253.212,0 -4416.8848,896.1 -6010.1458,2489.3597 -1593.261,1593.27 -2489.369,3756.94 -2489.369,6010.15 0,2253.21 896.108,4416.89 2489.369,6010.15 811.151,811.15 1771.333,1438.49 2814.6958,1862 V 69989.13 L 17386.372,54664.94 V 68976.99 L 52676.102,48888.55 V 23953.91 c 657.64,-373.49 1271.55,-828.94 1815.41,-1372.8 1593.26,-1593.26 2489.37,-3756.94 2489.37,-6010.15 0,-2253.21 -896.11,-4416.88 -2489.37,-6010.15 -1593.27,-1593.2597 -3756.94,-2489.3597 -6010.15,-2489.3597 -2253.21,0 -4416.89,896.1 -6010.14,2489.3597 -1593.27,1593.27 -2489.37,3756.94 -2489.37,6010.15 0,2253.21 896.1,4416.89 2489.37,6010.15 589.35,589.35 1258.19,1081.49 1979.28,1470 v 20054.71 l -18838.54,10724.6 V 23822.18 c 573.62,-349.07 1112.92,-758.68 1595.32,-1241.07 1593.25,-1593.26 2489.36,-3756.94 2489.36,-6010.15 0,-2253.21 -896.11,-4416.88 -2489.36,-6010.15 -1593.27,-1593.2597 -3756.94,-2489.3597 -6010.15,-2489.3597 -2253.22,0 -4416.088,896.1 -6009.338,2489.3597 -1593.263,1593.27 -2490.174,3756.94 -2490.174,6010.15 0,2253.21 896.911,4416.89 2490.174,6010.15 648.23,648.23 1393.9,1173.6 2198.578,1577.64 v 21007.4 L -930.03512,55741.34 v -32320.8 c 345.23198,-253.47 673.54398,-532.98 980.000926,-839.43 C 1643.2268,20987.85 2539.3308,18824.17 2539.3308,16570.96 c 0,-2253.21 -896.104,-4416.88 -2489.364994,-6010.15 C -1543.2951,8967.5503 -3706.9712,8071.4503 -5960.1802,8071.4503 Z M -49851.44,13212.44 c 891.709,0 1743.965,352.69 2374.498,983.22 630.533,630.53 984.017,1483.59 984.017,2375.3 0,891.71 -353.484,1743.96 -984.017,2374.5 -630.533,630.53 -1482.789,984.02 -2374.498,984.02 -891.709,0 -1743.964,-353.49 -2374.498,-984.02 -630.533,-630.54 -984.019,-1482.79 -984.019,-2374.5 0,-891.71 353.486,-1744.77 984.019,-2375.3 630.534,-630.53 1482.789,-983.22 2374.498,-983.22 z m 18074.618,0 c 891.712,0 1743.966,352.69 2374.499,983.22 630.533,630.53 984.02,1483.59 984.02,2375.3 0,891.71 -353.487,1743.96 -984.02,2374.5 -630.533,630.53 -1482.787,984.02 -2374.499,984.02 -891.708,0 -1743.962,-353.49 -2374.495,-984.02 -630.533,-630.54 -984.019,-1482.79 -984.019,-2374.5 0,-891.71 353.486,-1744.77 984.019,-2375.3 630.533,-630.53 1482.787,-983.22 2374.495,-983.22 z m 25816.6418,0 c 891.708,0 1743.962,352.69 2374.499,983.22 630.533,630.53 984.0161,1483.59 984.0161,2375.3 0,891.71 -353.4831,1743.96 -984.0161,2374.5 -630.537,630.53 -1482.791,984.02 -2374.499,984.02 -891.712,0 -1743.966,-353.49 -2374.499,-984.02 -630.533,-630.54 -984.019,-1482.79 -984.019,-2374.5 0,-891.71 353.486,-1744.77 984.019,-2375.3 630.533,-630.53 1482.787,-983.22 2374.499,-983.22 z m 27157.3122,0 c 891.71,0 1744.77,352.69 2375.3,983.22 630.54,630.53 983.22,1483.59 983.22,2375.3 0,891.71 -352.68,1743.96 -983.22,2374.5 -630.53,630.53 -1483.59,984.02 -2375.3,984.02 -891.71,0 -1743.96,-353.49 -2374.5,-984.02 -630.53,-630.54 -984.02,-1482.79 -984.02,-2374.5 0,-891.71 353.49,-1744.77 984.02,-2375.3 630.54,-630.53 1482.79,-983.22 2374.5,-983.22 z m 27284.23,0 c 891.71,0 1744.77,352.69 2375.3,983.22 630.54,630.53 983.22,1483.59 983.22,2375.3 0,891.71 -352.68,1743.96 -983.22,2374.5 -630.53,630.53 -1483.59,984.02 -2375.3,984.02 -891.7,0 -1743.96,-353.49 -2374.5,-984.02 -630.53,-630.54 -984.01,-1482.79 -984.01,-2374.5 0,-891.71 353.48,-1744.77 984.01,-2375.3 630.54,-630.53 1482.8,-983.22 2374.5,-983.22 z m -98332.802,76588 c 891.709,0 1743.965,353.49 2374.498,984.02 630.533,630.53 984.017,1482.79 984.017,2374.5 0,891.7 -353.484,1743.96 -984.017,2374.5 -630.533,630.53 -1482.789,984.01 -2374.498,984.01 -891.709,0 -1743.964,-353.48 -2374.498,-984.01 -630.533,-630.54 -984.019,-1482.8 -984.019,-2374.5 0,-891.71 353.486,-1743.97 984.019,-2374.5 630.534,-630.53 1482.789,-984.02 2374.498,-984.02 z"
         style="color:#000000;font-style:normal;font-variant:normal;font-weight:normal;font-stretch:normal;font-size:medium;line-height:normal;font-family:sans-serif;font-variant-ligatures:normal;font-variant-position:normal;font-variant-caps:normal;font-variant-numeric:normal;font-variant-alternates:normal;font-variant-east-asian:normal;font-feature-settings:normal;text-indent:0;text-align:start;text-decoration:none;text-decoration-line:none;text-decoration-style:solid;text-decoration-color:#000000;letter-spacing:normal;word-spacing:normal;text-transform:none;writing-mode:lr-tb;direction:ltr;text-orientation:mixed;dominant-baseline:auto;baseline-shift:baseline;text-anchor:start;white-space:normal;shape-padding:0;clip-rule:nonzero;display:inline;overflow:visible;visibility:visible;opacity:1;isolation:auto;mix-blend-mode:normal;color-interpolation:sRGB;color-interpolation-filters:linearRGB;solid-color:#000000;solid-opacity:1;vector-effect:none;fill:#5da2c7;fill-opacity:1;fill-rule:nonzero;stroke:none;stroke-width:5141;stroke-linecap:butt;stroke-linejoin:miter;stroke-miterlimit:4;stroke-dasharray:none;stroke-dashoffset:0;stroke-opacity:1;color-rendering:auto;image-rendering:auto;shape-rendering:auto;text-rendering:auto;enable-background:accumulate"
         transform="matrix(4.3244193e-5,0,0,4.3244206e-5,140.68477,173.7457)" />
    </g>
    <g
       id="text1"
       style="font-weight:bold;font-size:2.11667px;line-height:0;font-family:Carlito;-inkscape-font-specification:'Carlito Bold';fill:#ffffff;stroke-width:0.1"
       aria-label="PIPEWIRE&#10;ADVANCED&#10;  AUDIO™">
      <path
         style="line-height:1.2;font-family:'Open Sans';-inkscape-font-specification:'Open Sans Bold';text-align:center;text-anchor:middle"
         d="m 136.27919,175.85657 h 0.10542 q 0.14779,0 0.22117,-0.0579 0.0734,-0.0589 0.0734,-0.17053 0,-0.11265 -0.062,-0.1664 -0.061,-0.0537 -0.19224,-0.0537 h -0.14572 z m 0.72347,-0.23978 q 0,0.24392 -0.15297,0.37311 -0.15192,0.12919 -0.43305,0.12919 h -0.13745 v 0.53743 h -0.3204 v -1.51102 h 0.48266 q 0.27492,0 0.41755,0.11886 0.14366,0.11782 0.14366,0.35243 z m 0.28525,1.03973 v -1.51102 h 0.3204 v 1.51102 z m 1.02113,-0.79995 h 0.10542 q 0.14779,0 0.22117,-0.0579 0.0734,-0.0589 0.0734,-0.17053 0,-0.11265 -0.062,-0.1664 -0.061,-0.0537 -0.19223,-0.0537 h -0.14573 z m 0.72347,-0.23978 q 0,0.24392 -0.15296,0.37311 -0.15193,0.12919 -0.43305,0.12919 h -0.13746 v 0.53743 h -0.3204 v -1.51102 h 0.48266 q 0.27492,0 0.41755,0.11886 0.14366,0.11782 0.14366,0.35243 z m 1.15549,1.03973 h -0.87024 v -1.51102 h 0.87024 v 0.26252 h -0.54984 v 0.33176 h 0.5116 v 0.26252 h -0.5116 v 0.38964 h 0.54984 z m 1.78697,0 h -0.36484 l -0.20463,-0.79375 q -0.0114,-0.0424 -0.0393,-0.17466 -0.0269,-0.13333 -0.031,-0.1788 -0.006,0.0558 -0.031,0.17983 -0.0248,0.12299 -0.0382,0.1757 l -0.20361,0.79168 h -0.3638 l -0.38551,-1.51102 h 0.31523 l 0.19327,0.82476 q 0.0506,0.22841 0.0734,0.39584 0.006,-0.0589 0.0279,-0.1819 0.0227,-0.12402 0.0424,-0.19224 l 0.22014,-0.84646 h 0.30283 l 0.22014,0.84646 q 0.0145,0.0568 0.0362,0.17364 0.0217,0.11679 0.0331,0.2005 0.0103,-0.0806 0.0331,-0.2005 0.0227,-0.12093 0.0413,-0.19534 l 0.19224,-0.82476 h 0.31522 z m 0.57464,0 v -1.51102 h 0.3204 v 1.51102 z m 1.02113,-0.84026 h 0.10335 q 0.15193,0 0.22428,-0.0506 0.0724,-0.0506 0.0724,-0.15916 0,-0.10749 -0.0744,-0.15296 -0.0734,-0.0455 -0.22841,-0.0455 h -0.0971 z m 0,0.26045 v 0.57981 h -0.32039 v -1.51102 h 0.44028 q 0.30799,0 0.45579,0.11266 0.14779,0.11162 0.14779,0.34003 0,0.13333 -0.0734,0.23771 -0.0734,0.10335 -0.20774,0.16227 0.34107,0.50953 0.44442,0.65835 h -0.35553 l -0.36071,-0.57981 z m 1.94717,0.57981 h -0.87023 v -1.51102 h 0.87023 v 0.26252 h -0.54984 v 0.33176 h 0.5116 v 0.26252 h -0.5116 v 0.38964 h 0.54984 z"
         id="path21" />
      <path
         style="font-weight:normal;font-size:1.76389px;line-height:1.1;font-family:'Open Sans';-inkscape-font-specification:'Open Sans';text-align:center;text-anchor:middle"
         d="m 137.07552,178.80457 -0.15675,-0.40049 h -0.50471 l -0.15502,0.40049 h -0.14814 l 0.49781,-1.26435 h 0.12317 l 0.49523,1.26435 z m -0.2024,-0.53226 -0.14641,-0.39016 q -0.0284,-0.0741 -0.0586,-0.18173 -0.0189,0.0827 -0.0543,0.18173 l -0.14814,0.39016 z m 1.53221,-0.10939 q 0,0.31179 -0.16967,0.47715 -0.16881,0.1645 -0.48662,0.1645 h -0.34882 v -1.25918 h 0.38585 q 0.2937,0 0.45648,0.16278 0.16278,0.16278 0.16278,0.45475 z m -0.15503,0.005 q 0,-0.24632 -0.12402,-0.37121 -0.12316,-0.12488 -0.3669,-0.12488 h -0.21274 v 1.00597 h 0.17828 q 0.26183,0 0.39361,-0.12833 0.13177,-0.1292 0.13177,-0.38155 z m 1.13775,-0.6227 h 0.15761 l -0.45389,1.25918 h -0.1447 l -0.4513,-1.25918 h 0.15502 l 0.28939,0.81477 q 0.05,0.14038 0.0792,0.27302 0.031,-0.13953 0.081,-0.27819 z m 1.05161,1.25918 -0.15675,-0.40049 h -0.50471 l -0.15503,0.40049 h -0.14814 l 0.49782,-1.26435 h 0.12316 l 0.49524,1.26435 z m -0.2024,-0.53226 -0.14641,-0.39016 q -0.0284,-0.0741 -0.0586,-0.18173 -0.0189,0.0827 -0.0543,0.18173 l -0.14814,0.39016 z m 1.51068,0.53226 h -0.16709 l -0.68816,-1.05678 h -0.007 q 0.0138,0.18603 0.0138,0.34106 v 0.71572 h -0.13522 v -1.25918 h 0.16537 l 0.68643,1.05248 h 0.007 q -0.002,-0.0233 -0.008,-0.149 -0.006,-0.12661 -0.004,-0.18087 v -0.72261 h 0.13695 z m 0.88539,-1.14635 q -0.20757,0 -0.32815,0.13866 -0.11972,0.13781 -0.11972,0.3781 0,0.24719 0.11542,0.38241 0.11627,0.13436 0.33072,0.13436 0.13178,0 0.30059,-0.0474 v 0.12833 q -0.13091,0.0491 -0.32298,0.0491 -0.27819,0 -0.42977,-0.16881 -0.15073,-0.16881 -0.15073,-0.47973 0,-0.19465 0.0724,-0.34107 0.0732,-0.14641 0.21015,-0.22565 0.1378,-0.0792 0.32384,-0.0792 0.19809,0 0.34623,0.0724 l -0.062,0.12575 q -0.14297,-0.0672 -0.28594,-0.0672 z m 1.27555,1.14635 h -0.70194 v -1.25918 h 0.70194 v 0.13005 h -0.55553 v 0.40566 h 0.52194 v 0.12919 h -0.52194 v 0.46337 h 0.55553 z m 1.28416,-0.64165 q 0,0.31179 -0.16968,0.47715 -0.16881,0.1645 -0.48662,0.1645 h -0.34881 v -1.25918 h 0.38585 q 0.29369,0 0.45647,0.16278 0.16279,0.16278 0.16279,0.45475 z m -0.15503,0.005 q 0,-0.24632 -0.12403,-0.37121 -0.12316,-0.12488 -0.3669,-0.12488 h -0.21274 v 1.00597 h 0.17829 q 0.26183,0 0.3936,-0.12833 0.13178,-0.1292 0.13178,-0.38155 z"
         id="path22" />
      <path
         style="font-weight:normal;font-size:1.76389px;line-height:1.1;font-family:'Open Sans';-inkscape-font-specification:'Open Sans';text-align:center;text-anchor:middle"
         d="m 138.66845,180.74485 -0.15675,-0.40049 h -0.50471 l -0.15503,0.40049 h -0.14814 l 0.49782,-1.26435 h 0.12316 l 0.49523,1.26435 z m -0.2024,-0.53227 -0.14642,-0.39015 q -0.0284,-0.0741 -0.0586,-0.18173 -0.0189,0.0827 -0.0543,0.18173 l -0.14814,0.39015 z m 1.47795,-0.72691 v 0.81476 q 0,0.21532 -0.13005,0.33849 -0.13006,0.12316 -0.35743,0.12316 -0.22738,0 -0.35226,-0.12403 -0.12403,-0.12402 -0.12403,-0.34106 v -0.81132 h 0.14642 v 0.82165 q 0,0.15762 0.0861,0.24202 0.0861,0.0844 0.25321,0.0844 0.15934,0 0.24546,-0.0844 0.0861,-0.0853 0.0861,-0.24374 v -0.81993 z m 1.33842,0.61753 q 0,0.31178 -0.16967,0.47715 -0.16881,0.1645 -0.48662,0.1645 h -0.34882 v -1.25918 h 0.38585 q 0.2937,0 0.45648,0.16278 0.16278,0.16278 0.16278,0.45475 z m -0.15503,0.005 q 0,-0.24632 -0.12402,-0.37121 -0.12317,-0.12488 -0.36691,-0.12488 h -0.21273 v 1.00597 h 0.17828 q 0.26183,0 0.3936,-0.12833 0.13178,-0.1292 0.13178,-0.38155 z m 0.4358,0.63648 v -1.25918 h 0.14642 v 1.25918 z m 1.58475,-0.63131 q 0,0.30231 -0.15331,0.47542 -0.15244,0.17312 -0.42461,0.17312 -0.27819,0 -0.42977,-0.16967 -0.15073,-0.17054 -0.15073,-0.48059 0,-0.30748 0.15159,-0.47629 0.15158,-0.16967 0.43064,-0.16967 0.2713,0 0.42374,0.17225 0.15245,0.17226 0.15245,0.47543 z m -1.00339,0 q 0,0.2558 0.10852,0.38843 0.10939,0.13178 0.31695,0.13178 0.20929,0 0.31609,-0.13178 0.1068,-0.13177 0.1068,-0.38843 0,-0.25408 -0.1068,-0.38499 -0.10594,-0.13178 -0.31436,-0.13178 -0.20929,0 -0.31868,0.13264 -0.10852,0.13177 -0.10852,0.38413 z m 1.42886,-0.007 h -0.10594 v -0.52969 h -0.18 v -0.0913 h 0.46767 v 0.0913 h -0.18173 z m 0.51676,0 -0.17311,-0.48145 h -0.007 l 0.005,0.1111 v 0.37035 h -0.10249 v -0.62098 h 0.16106 l 0.16881,0.48145 0.17484,-0.48145 h 0.15503 v 0.62098 h -0.10938 v -0.36174 l 0.005,-0.11799 h -0.007 l -0.18172,0.47973 z"
         id="path23" />
    </g>
  </g>
</svg>
