<?xml version="1.0" encoding="UTF-8" standalone="no"?>
<!-- Created with Inkscape (http://www.inkscape.org/) -->

<svg
   width="225.30116mm"
   height="86.407204mm"
   viewBox="0 0 225.30116 86.407204"
   version="1.1"
   id="svg1"
   xml:space="preserve"
   inkscape:version="1.4 (e7c3feb100, 2024-10-09)"
   sodipodi:docname="warning-opt.svg"
   xmlns:inkscape="http://www.inkscape.org/namespaces/inkscape"
   xmlns:sodipodi="http://sodipodi.sourceforge.net/DTD/sodipodi-0.dtd"
   xmlns="http://www.w3.org/2000/svg"
   xmlns:svg="http://www.w3.org/2000/svg"><sodipodi:namedview
     id="namedview1"
     pagecolor="#ffffff"
     bordercolor="#000000"
     borderopacity="0.25"
     inkscape:showpageshadow="2"
     inkscape:pageopacity="0.0"
     inkscape:pagecheckerboard="0"
     inkscape:deskcolor="#d1d1d1"
     inkscape:document-units="mm"
     inkscape:zoom="0.59402227"
     inkscape:cx="371.1982"
     inkscape:cy="31.143614"
     inkscape:window-width="2194"
     inkscape:window-height="1158"
     inkscape:window-x="0"
     inkscape:window-y="0"
     inkscape:window-maximized="1"
     inkscape:current-layer="g2" /><defs
     id="defs1"><rect
       x="307.11566"
       y="207.12453"
       width="602.32764"
       height="217.83784"
       id="rect11" /><rect
       x="158.31932"
       y="101.18152"
       width="522.57281"
       height="146.41562"
       id="rect10" /><rect
       x="371.39569"
       y="461.86389"
       width="305.92529"
       height="200.57747"
       id="rect4" /><inkscape:path-effect
       effect="fillet_chamfer"
       id="path-effect2"
       is_visible="true"
       lpeversion="1"
       nodesatellites_param="F,0,0,1,0,0,0,1 @ F,0,0,1,0,0,0,1 @ F,0,0,1,0,0,0,1 @ F,0,0,1,0,0,0,1"
       radius="0"
       unit="px"
       method="auto"
       mode="F"
       chamfer_steps="1"
       flexible="false"
       use_knot_distance="true"
       apply_no_radius="true"
       apply_with_radius="true"
       only_selected="false"
       hide_knots="false" /><marker
       viewBox="0 0 10 10"
       refY="5"
       refX="0"
       orient="auto"
       markerWidth="4"
       markerUnits="strokeWidth"
       markerHeight="3"
       id="ArrowEnd"><path
         id="path1612"
         d="M 0,0 10,5 0,10 Z" /></marker><marker
       viewBox="0 0 10 10"
       refY="5"
       refX="10"
       orient="auto"
       markerWidth="4"
       markerUnits="strokeWidth"
       markerHeight="3"
       id="ArrowStart"><path
         id="path1614"
         d="M 10,0 0,5 10,10 Z" /></marker><marker
       viewBox="0 0 10 10"
       refY="5"
       refX="0"
       orient="auto"
       markerWidth="4"
       markerUnits="strokeWidth"
       markerHeight="3"
       id="ArrowEnd-9"><path
         id="path1612-6"
         d="M 0 0 L 10 5 L 0 10 z" /></marker><marker
       viewBox="0 0 10 10"
       refY="5"
       refX="10"
       orient="auto"
       markerWidth="4"
       markerUnits="strokeWidth"
       markerHeight="3"
       id="ArrowStart-4"><path
         id="path1614-3"
         d="M 10 0 L 0 5 L 10 10 z" /></marker></defs><g
     inkscape:label="图层 1"
     inkscape:groupmode="layer"
     id="layer1"
     transform="translate(-13.487805,-18.527045)"><g
       id="g2"
       transform="matrix(0.30419837,0,0,0.30419837,8.6189845,120.46678)"><rect
         style="fill:#ff9400;fill-opacity:1;stroke:#000000;stroke-width:7.33026;stroke-dasharray:none;stroke-opacity:1"
         id="rect7"
         width="733.30872"
         height="89.319992"
         x="19.670542"
         y="-331.44427" /><rect
         style="fill:#ffffff;fill-opacity:1;stroke:#000000;stroke-width:6.57466;stroke-dasharray:none;stroke-opacity:1"
         id="rect8"
         width="191.54005"
         height="187.39864"
         x="19.292742"
         y="-241.74649" /><rect
         style="fill:#ffffff;fill-opacity:1;stroke:#000000;stroke-width:7.68961;stroke-dasharray:none;stroke-opacity:1"
         id="rect9"
         width="541.4093"
         height="186.28368"
         x="211.39026"
         y="-241.18901" /><g
         id="g10"
         transform="matrix(0.86716291,0,0,0.86716291,23.435404,-227.34599)"><path
           id="path4577"
           style="color:#000000;opacity:1;solid-color:#000000;fill:#000000;fill-opacity:1;stroke:none;stroke-width:3.28733;stroke-dasharray:none"
           d="M 105.40086,7.9948869 C 102.06421,8.037294 99.007067,10.211539 97.602156,13.195599 68.961524,62.819662 40.291524,112.4278 11.669234,162.06181 c -2.1054418,3.73603 -0.818336,8.85762 2.719758,11.24182 1.986725,1.48653 4.545272,1.69433 6.940454,1.5688 57.018214,-0.009 114.037004,0.0179 171.054854,-0.0134 4.37062,-0.11597 8.16332,-3.99414 8.26716,-8.34879 0.22126,-2.59817 -1.18367,-4.8947 -2.47964,-7.01974 -28.40207,-49.1753 -56.7714,-98.370371 -85.19672,-147.531703 -1.613,-2.5215296 -4.58328,-4.0753497 -7.57424,-3.9638801 z" /><path
           style="opacity:1;fill:#fff600;fill-opacity:1;stroke:none"
           id="path4573"
           d="m -46.997381,124.54655 h -62.501079 -62.50108 l 31.25054,-54.127524 31.25054,-54.127522 31.25054,54.127521 z"
           transform="matrix(1.3801111,0,0,1.3801111,256.7764,-5.755009)" /><g
           style="fill:#000000"
           id="g1"
           transform="matrix(0.33508249,0,0,0.33508249,62.765801,70.935489)"><path
             d="m 252.11164,104.49756 -23.615,24.747 c -4.006,-2.963 -8.623,-5.129 -13.643,-6.27 l 5.759,-34.227 z m -79.971,17.975 -7.324,23.32 -25.535,-3.445 c -0.591,0.817 -1.102,1.654 -1.713,2.471 -2.235,2.874 -4.705,5.434 -7.334,7.806 l 7.599,23.674 -21.637,11.31 -15.62,-20.505 c -4.518,0.797 -9.086,1.122 -13.663,0.886 l -9.224,-35.113 -32.268,15.337 v 0.01 l -23.664,7.56 -11.271,-21.646 20.436,-15.583 c -0.807,-4.518 -1.122,-9.105 -0.876,-13.703 l -22.0599993,-11.349 7.3039993,-23.261 25.525,3.426 c 0.591,-0.817 1.102,-1.654 1.733,-2.461 2.225,-2.904 4.705,-5.503 7.334,-7.875 l -7.679,-23.635 21.725,-11.301 15.612,20.475 c 4.518,-0.797 9.105,-1.112 13.712,-0.866 l 11.262,-22.108999 23.32,7.323999 -3.386,25.564 c 0.827,0.541 1.654,1.093 2.461,1.703 2.865,2.215 5.444,4.686 7.777,7.284 l 23.714,-7.57 11.222,21.637 -20.445,15.642 c 0.787,4.499 1.112,9.066 0.876,13.634 z m -77.017,-32.75 c -9.174,-2.884 -18.998,2.215 -21.912,11.468 -2.904,9.273 2.235,19.057 11.419,21.942 9.224,2.904 19.008,-2.205 21.912,-11.468 2.913,-9.264 -2.196,-19.048 -11.419,-21.942 z m 148.788,127.703 12.206,9.637 -7.107,12.984 -15.366,-5.296 c -2.874,2.953 -6.064,5.542 -9.696,7.54 l 1.742,15.543 -14.185,4.164 -7.088,-14.677 c -1.191,0.01 -2.343,0.187 -3.554,0.108 -3.012,-0.217 -5.926,-0.768 -8.731,-1.575 l -9.706,12.275 -12.935,-7.127 5.286,-15.406 c -2.953,-2.884 -5.542,-6.074 -7.54,-9.706 l -15.593,1.772 -4.144,-14.136 14.726,-7.186 c -0.01,-1.181 -0.177,-2.313 -0.098,-3.514 0.197,-3.002 0.748,-5.887 1.545,-8.692 l -12.236,-9.716 7.078,-12.964 15.435,5.286 c 2.855,-2.933 6.044,-5.522 9.657,-7.53 l -1.693,-15.583 14.086,-4.134 7.235,14.638 c 1.142,-0.03 2.264,-0.187 3.416,-0.118 0.738,0.049 1.477,0.128 2.205,0.226 l -4.568,24.6 c -1.723,-0.02 -3.475,0.207 -5.217,0.719 -9.47,2.776 -14.923,12.698 -12.147,22.178 2.786,9.48 12.738,14.874 22.208,12.098 9.411,-2.756 14.815,-12.659 12.029,-22.148 -0.689,-2.343 -1.811,-4.44 -3.248,-6.221 l 14.913,-19.5 c 2.933,2.845 5.503,6.034 7.481,9.627 l 15.514,-1.792 4.165,14.194 -14.598,7.156 c 0.01,1.171 0.187,2.303 0.118,3.485 -0.207,3.042 -0.778,5.956 -1.595,8.791 z m -196.414,17.343 -31.667,-35.751 39.407,-15.77 11.813,3.938 z m 51.152,15.465 -27.628,11.764 -0.035,-39.375 z"
             id="path1" /></g></g><g
         id="g11"
         transform="translate(41.38114)"><text
           xml:space="preserve"
           transform="matrix(0.86977236,0,0,0.86977236,24.332513,-421.02868)"
           id="text9"
           style="font-style:normal;font-variant:normal;font-weight:bold;font-stretch:normal;font-size:85.3333px;line-height:1.2;font-family:Sans;-inkscape-font-specification:'Sans Bold';text-align:center;letter-spacing:0px;word-spacing:0px;writing-mode:lr-tb;direction:ltr;white-space:pre;shape-inside:url(#rect10);display:inline;fill:#ff9400;fill-opacity:1;stroke:#000000;stroke-width:7.55906;stroke-dasharray:none;stroke-opacity:1"
           x="0"
           y="0"><tspan
             x="205.67489"
             y="184.80827"
             id="tspan4"><tspan
               style="fill:#000000;stroke:none"
               id="tspan3">WARNING</tspan></tspan></text><g
           transform="matrix(0.48682586,0,0,0.48682586,207.64819,-321.07178)"
           id="g4593"><path
             id="path4577-3"
             style="color:#000000;opacity:1;solid-color:#000000;fill:#000000;fill-opacity:1;stroke:none"
             d="m -109.72656,9.2050781 c -2.66723,0.045098 -5.12578,1.7629589 -6.26406,4.1472349 -20.75702,35.964388 -41.53492,71.9172 -62.27889,107.888817 -1.67821,2.98615 -0.70214,7.07498 2.08857,9.03592 1.55021,1.20658 3.57405,1.47258 5.48094,1.36162 41.3227,-0.006 82.645828,0.0113 123.968254,-0.008 3.42687,-0.0381 6.482585,-2.92566 6.787828,-6.32502 0.269698,-1.94782 -0.512321,-3.83381 -1.563501,-5.43105 C -62.19478,84.056197 -82.858094,48.223807 -103.5625,12.416016 c -1.31724,-2.048628 -3.72952,-3.3081612 -6.16406,-3.2109379 z" /><path
             style="opacity:1;fill:#ffcc00;fill-opacity:1;stroke:none"
             id="path4573-3"
             d="m -46.997381,124.54655 h -62.501079 -62.50108 l 31.25054,-54.127524 31.25054,-54.127522 31.25054,54.127521 z" /><g
             id="g858"
             transform="translate(-188.06236)"><circle
               r="8.8173475"
               cy="111.11701"
               cx="78.564362"
               id="path846"
               style="opacity:1;fill:#000000;fill-opacity:1;stroke:none" /><path
               id="circle848"
               d="m 78.564453,42.955078 c -4.869714,-5.59e-4 -8.817839,3.946692 -8.818359,8.816406 3.15625,37.460938 0,0 3.15625,37.460938 8.93e-4,3.126411 2.535698,5.660342 5.662109,5.660156 3.126411,1.86e-4 5.661216,-2.533745 5.662109,-5.660156 3.154297,-37.460938 0,0 3.154297,-37.460938 -5.2e-4,-4.868951 -3.947455,-8.815886 -8.816406,-8.816406 z"
               style="opacity:1;fill:#000000;fill-opacity:1;stroke:none" /></g></g></g><path
         style="font-weight:bold;font-size:53.3333px;line-height:1.2;font-family:Sans;-inkscape-font-specification:'Sans Bold';letter-spacing:0px;word-spacing:0px;white-space:pre;stroke-width:7.55906"
         d="m 328.34189,227.55166 q -4.58667,0 -7.25333,3.46666 -2.61333,3.41333 -2.61333,9.43999 0,6.02667 2.50666,9.38667 2.56,3.30666 7.68,3.30666 2.50666,0 4.8,-0.58667 2.34666,-0.58666 4.69333,-1.49333 v 6.93333 q -4.53333,1.92 -10.4,1.92 -6.07999,0 -10.02666,-2.4 -3.89333,-2.45333 -5.81333,-6.82666 -1.86666,-4.42667 -1.86666,-10.29333 0,-5.76 2.13333,-10.18666 2.13333,-4.42666 6.23999,-6.93333 4.10667,-2.50666 10.02666,-2.50666 2.82667,0 5.70667,0.64 2.93333,0.58666 5.54666,1.86666 l -2.66666,6.50666 q -1.92,-0.90666 -4.10667,-1.54666 -2.13333,-0.69333 -4.58666,-0.69333 z m 51.14662,12.74665 q 0,5.92 -1.97333,10.34667 -1.92,4.37333 -5.92,6.82666 -4,2.45333 -10.23999,2.45333 -6.18667,0 -10.24,-2.45333 -4,-2.45333 -5.97333,-6.88 -1.92,-4.42666 -1.92,-10.34666 0,-5.86666 1.92,-10.23999 1.97333,-4.42667 5.97333,-6.82666 4.05333,-2.45334 10.29333,-2.45334 6.18666,0 10.18666,2.45334 4.05333,2.39999 5.97333,6.82666 1.92,4.37333 1.92,10.29332 z m -27.67998,0 q 0,5.97333 2.23999,9.38667 2.29334,3.35999 7.30667,3.35999 5.11999,0 7.30666,-3.35999 2.24,-3.41334 2.24,-9.38667 0,-5.97332 -2.24,-9.38666 -2.18667,-3.41333 -7.25333,-3.41333 -5.06666,0 -7.36,3.41333 -2.23999,3.41334 -2.23999,9.38666 z m 51.57331,19.09333 -9.17332,-29.86665 h -0.21334 q 0.0533,1.06666 0.16,3.2 0.10667,2.13333 0.21334,4.58666 0.10666,2.4 0.10666,4.37333 v 17.70666 h -7.19999 v -38.07998 h 10.98666 l 9.01332,29.11998 h 0.16 l 9.54667,-29.11998 h 10.98666 v 38.07998 h -7.52 v -18.02666 q 0,-1.81333 0.0533,-4.16 0.10667,-2.34666 0.16,-4.42666 0.10667,-2.13333 0.16,-3.2 h -0.21333 l -9.81333,29.81332 z m 45.86669,-38.07998 q 7.36,0 10.87999,3.09333 3.52,3.04 3.52,8.64 0,3.35999 -1.38666,6.29333 -1.38667,2.93333 -4.64,4.74666 -3.2,1.81333 -8.69333,1.81333 h -3.46666 v 13.49333 h -8.16 v -38.07998 z m -0.26667,6.66666 h -3.51999 v 11.2 h 2.71999 q 3.36,0 5.28,-1.33334 1.97333,-1.33333 1.97333,-4.53333 0,-2.56 -1.6,-3.94666 -1.54666,-1.38667 -4.85333,-1.38667 z m 35.94666,31.41332 H 467.5952 v -4.58667 l 4.64,-2.13333 v -24.63998 l -4.64,-2.13334 v -4.58666 h 17.33332 v 4.58666 l -4.63999,2.13334 v 24.63998 l 4.63999,2.13333 z m 6.24,0 v -38.07998 h 8.16 v 31.35998 h 15.41332 v 6.72 z m 51.99997,0 H 521.2485 v -38.07998 h 21.91999 v 6.61333 h -13.86666 v 8.37333 h 12.90666 v 6.61333 h -12.90666 v 9.81332 h 13.86666 z m 19.35996,-38.07998 q 14.87999,0 14.87999,11.09333 0,3.89333 -1.97333,6.34666 -1.97334,2.45333 -4.90667,3.84 l 10.82666,16.79999 h -9.33332 l -8.48,-14.61333 h -4.53333 v 14.61333 h -8.15999 v -38.07998 z m -0.16,6.34666 h -3.36 v 10.82666 h 3.36 q 3.25333,0 5.01333,-1.33333 1.76,-1.33333 1.76,-4.37333 0,-2.56 -1.65333,-3.84 -1.6,-1.28 -5.12,-1.28 z m 53.70666,31.73332 -9.17333,-29.86665 h -0.21333 q 0.0533,1.06666 0.16,3.2 0.10667,2.13333 0.21333,4.58666 0.10667,2.4 0.10667,4.37333 v 17.70666 h -7.2 v -38.07998 h 10.98666 l 9.01333,29.11998 h 0.16 l 9.54666,-29.11998 h 10.98666 v 38.07998 h -7.51999 v -18.02666 q 0,-1.81333 0.0533,-4.16 0.10667,-2.34666 0.16,-4.42666 0.10667,-2.13333 0.16,-3.2 h -0.21333 l -9.81333,29.81332 z m 57.49333,0 -2.93333,-8.96 h -13.43999 l -2.93333,8.96 h -8.8 l 13.38666,-38.23998 h 10.02666 l 13.49333,38.23998 z m -7.46666,-24.05332 q -0.21333,-0.8 -0.69333,-2.4 -0.42667,-1.6 -0.85334,-3.25333 -0.42666,-1.70667 -0.69333,-2.77333 -0.21333,1.22666 -0.64,2.82666 -0.37333,1.54667 -0.74666,3.09333 -0.37334,1.49334 -0.64,2.50667 l -2.72,8.26666 h 9.65332 z m 29.75997,1.92 7.84,-15.94666 h 8.85332 l -12.58666,23.25332 v 14.82666 h -8.21332 v -14.55999 l -12.58666,-23.51999 h 8.85332 z m 66.71995,2.45333 q 0,6.55999 -2.45333,10.93333 -2.45333,4.37333 -6.93333,6.55999 -4.48,2.18667 -10.61333,2.18667 h -11.62666 v -38.07998 h 12.58666 q 8.96,0 13.97333,4.74666 5.06666,4.69333 5.06666,13.65333 z m -8.53333,0.32 q 0,-6.13333 -2.72,-9.06666 -2.71999,-2.98667 -7.99999,-2.98667 h -4.21333 v 24.69332 h 3.41333 q 11.51999,0 11.51999,-12.63999 z m 50.61334,0.26666 q 0,5.92 -1.97333,10.34667 -1.92,4.37333 -5.92,6.82666 -4,2.45333 -10.23999,2.45333 -6.18667,0 -10.24,-2.45333 -4,-2.45333 -5.97333,-6.88 -1.92,-4.42666 -1.92,-10.34666 0,-5.86666 1.92,-10.23999 1.97333,-4.42667 5.97333,-6.82666 4.05333,-2.45334 10.29333,-2.45334 6.18666,0 10.18666,2.45334 4.05333,2.39999 5.97333,6.82666 1.92,4.37333 1.92,10.29332 z m -27.67999,0 q 0,5.97333 2.24,9.38667 2.29333,3.35999 7.30667,3.35999 5.11999,0 7.30666,-3.35999 2.24,-3.41334 2.24,-9.38667 0,-5.97332 -2.24,-9.38666 -2.18667,-3.41333 -7.25333,-3.41333 -5.06667,0 -7.36,3.41333 -2.24,3.41334 -2.24,9.38666 z m -430.66651,69.07331 q 0,5.91999 -1.97333,10.34666 -1.92,4.37333 -5.92,6.82666 -4,2.45333 -10.23999,2.45333 -6.18666,0 -10.24,-2.45333 -3.99999,-2.45333 -5.97333,-6.87999 -1.91999,-4.42667 -1.91999,-10.34667 0,-5.86666 1.91999,-10.23999 1.97334,-4.42666 5.97333,-6.82666 4.05334,-2.45333 10.29333,-2.45333 6.18666,0 10.18666,2.45333 4.05333,2.4 5.97333,6.82666 1.92,4.37333 1.92,10.29333 z m -27.67998,0 q 0,5.97333 2.24,9.38666 2.29333,3.36 7.30666,3.36 5.12,0 7.30666,-3.36 2.24,-3.41333 2.24,-9.38666 0,-5.97333 -2.24,-9.38666 -2.18666,-3.41333 -7.25333,-3.41333 -5.06666,0 -7.35999,3.41333 -2.24,3.41333 -2.24,9.38666 z m 64.79997,-18.98666 -12.96,38.07998 h -8.79999 l -12.90666,-38.07998 h 8.16 l 7.14666,22.66666 q 0.21333,0.58666 0.58666,2.18666 0.42667,1.54667 0.85334,3.30667 0.42666,1.70666 0.58666,2.87999 0.16,-1.17333 0.53334,-2.87999 0.42666,-1.76 0.85333,-3.30667 0.42667,-1.6 0.58667,-2.18666 l 7.19999,-22.66666 z m 26.71996,38.07998 h -21.91998 v -38.07998 h 21.91998 v 6.61333 h -13.86665 v 8.37333 h 12.90666 v 6.61333 h -12.90666 v 9.81333 h 13.86665 z m 19.35996,-38.07998 q 14.87999,0 14.87999,11.09333 0,3.89333 -1.97333,6.34666 -1.97333,2.45333 -4.90667,3.84 l 10.82667,16.79999 h -9.33333 l -8.48,-14.61332 h -4.53333 v 14.61332 h -8.15999 v -38.07998 z m -0.16,6.34667 h -3.36 v 10.82666 h 3.36 q 3.25333,0 5.01333,-1.33334 1.76,-1.33333 1.76,-4.37333 0,-2.56 -1.65333,-3.84 -1.6,-1.27999 -5.12,-1.27999 z m 20.42666,20.74665 v -6.61333 h 14.02666 v 6.61333 z m 54.77328,-8.10666 q 0,5.91999 -1.97333,10.34666 -1.92,4.37333 -5.91999,6.82666 -4,2.45333 -10.24,2.45333 -6.18666,0 -10.23999,-2.45333 -4,-2.45333 -5.97333,-6.87999 -1.92,-4.42667 -1.92,-10.34667 0,-5.86666 1.92,-10.23999 1.97333,-4.42666 5.97333,-6.82666 4.05333,-2.45333 10.29332,-2.45333 6.18667,0 10.18667,2.45333 4.05333,2.4 5.97333,6.82666 1.91999,4.37333 1.91999,10.29333 z m -27.67998,0 q 0,5.97333 2.24,9.38666 2.29333,3.36 7.30666,3.36 5.12,0 7.30666,-3.36 2.24,-3.41333 2.24,-9.38666 0,-5.97333 -2.24,-9.38666 -2.18666,-3.41333 -7.25333,-3.41333 -5.06666,0 -7.35999,3.41333 -2.24,3.41333 -2.24,9.38666 z m 47.14666,-18.98666 q 7.35999,0 10.87999,3.09333 3.52,3.04 3.52,8.64 0,3.36 -1.38667,6.29333 -1.38666,2.93333 -4.63999,4.74666 -3.2,1.81333 -8.69333,1.81333 h -3.46667 v 13.49333 h -8.15999 v -38.07998 z m -0.26667,6.66667 h -3.52 v 11.19999 h 2.72 q 3.36,0 5.28,-1.33333 1.97333,-1.33334 1.97333,-4.53333 0,-2.56 -1.6,-3.94667 -1.54666,-1.38666 -4.85333,-1.38666 z m 36.37333,31.41331 h -8.16 v -31.30665 h -10.29332 v -6.77333 h 28.74665 v 6.77333 H 560.1284 Z m 30.34665,0 h -17.33333 v -4.58666 l 4.64,-2.13334 v -24.63998 l -4.64,-2.13333 v -4.58667 h 17.33333 v 4.58667 l -4.64,2.13333 v 24.63998 l 4.64,2.13334 z m 22.61331,0 -9.17333,-29.86665 h -0.21334 q 0.0533,1.06667 0.16,3.2 0.10667,2.13333 0.21334,4.58666 0.10666,2.4 0.10666,4.37333 v 17.70666 h -7.19999 v -38.07998 h 10.98666 l 9.01333,29.11999 h 0.16 l 9.54666,-29.11999 h 10.98666 v 38.07998 h -7.52 v -18.02666 q 0,-1.81333 0.0533,-4.15999 0.10666,-2.34667 0.16,-4.42667 0.10666,-2.13333 0.16,-3.2 h -0.21334 l -9.81333,29.81332 z m 48.42667,0 H 644.1817 v -4.58666 l 4.64,-2.13334 v -24.63998 l -4.64,-2.13333 v -4.58667 h 17.33333 v 4.58667 l -4.64,2.13333 v 24.63998 l 4.64,2.13334 z m 31.30663,0 h -28.31998 v -5.22666 l 18.23999,-26.18665 h -17.75999 v -6.66667 h 27.35998 v 5.22667 l -18.23999,26.18665 h 18.71999 z m 29.38667,0 -2.93333,-8.95999 h -13.43999 l -2.93333,8.95999 h -8.8 l 13.38666,-38.23998 H 717.515 l 13.49333,38.23998 z m -7.46666,-24.05332 q -0.21333,-0.8 -0.69333,-2.4 -0.42667,-1.6 -0.85333,-3.25333 -0.42667,-1.70666 -0.69334,-2.77333 -0.21333,1.22667 -0.64,2.82666 -0.37333,1.54667 -0.74666,3.09334 -0.37334,1.49333 -0.64,2.50666 l -2.72,8.26666 h 9.65333 z m 31.99998,24.05332 h -8.16 v -31.30665 h -10.29332 v -6.77333 h 28.74665 v 6.77333 h -10.29333 z m 30.34662,0 h -17.33333 v -4.58666 l 4.64,-2.13334 v -24.63998 l -4.64,-2.13333 v -4.58667 h 17.33333 v 4.58667 l -4.64,2.13333 v 24.63998 l 4.64,2.13334 z m 40.90666,-19.09332 q 0,5.91999 -1.97333,10.34666 -1.92,4.37333 -5.92,6.82666 -4,2.45333 -10.23999,2.45333 -6.18667,0 -10.24,-2.45333 -4,-2.45333 -5.97333,-6.87999 -1.92,-4.42667 -1.92,-10.34667 0,-5.86666 1.92,-10.23999 1.97333,-4.42666 5.97333,-6.82666 4.05333,-2.45333 10.29333,-2.45333 6.18666,0 10.18666,2.45333 4.05333,2.4 5.97333,6.82666 1.92,4.37333 1.92,10.29333 z m -27.67998,0 q 0,5.97333 2.23999,9.38666 2.29334,3.36 7.30667,3.36 5.11999,0 7.30666,-3.36 2.24,-3.41333 2.24,-9.38666 0,-5.97333 -2.24,-9.38666 -2.18667,-3.41333 -7.25333,-3.41333 -5.06666,0 -7.36,3.41333 -2.23999,3.41333 -2.23999,9.38666 z m 69.22666,19.09332 h -10.24 l -16.58666,-28.79998 h -0.21333 q 0.10667,2.72 0.21333,5.43999 0.16,2.72 0.26667,5.44 v 17.91999 h -7.19999 v -38.07998 h 10.18666 l 16.53332,28.53332 h 0.16 q -0.0533,-2.66667 -0.16,-5.28 -0.10667,-2.61333 -0.21333,-5.22666 v -18.02666 h 7.25333 z"
         id="text10"
         transform="matrix(0.86977236,0,0,0.86977236,-26.543692,-387.11422)"
         aria-label="COMPILER MAY DO&#10;OVER-OPTIMIZATION" /></g></g></svg>
